<?xml version="1.0" encoding="UTF-8" standalone="no"?>
<!-- Created with Inkscape (http://www.inkscape.org/) -->

<svg
   xmlns:dc="http://purl.org/dc/elements/1.1/"
   xmlns:cc="http://creativecommons.org/ns#"
   xmlns:rdf="http://www.w3.org/1999/02/22-rdf-syntax-ns#"
   xmlns:svg="http://www.w3.org/2000/svg"
   xmlns="http://www.w3.org/2000/svg"
   xmlns:xlink="http://www.w3.org/1999/xlink"
   xmlns:sodipodi="http://sodipodi.sourceforge.net/DTD/sodipodi-0.dtd"
   xmlns:inkscape="http://www.inkscape.org/namespaces/inkscape"
   width="904.81158"
   height="281.52029"
   id="svg2"
   version="1.1"
   inkscape:version="0.91 r13725"
   sodipodi:docname="Digital Back to Graflok 23- top.svg">
  <defs
     id="defs4">
    <inkscape:perspective
       sodipodi:type="inkscape:persp3d"
       inkscape:vp_x="0 : 526.18109 : 1"
       inkscape:vp_y="0 : 1000 : 0"
       inkscape:vp_z="744.09448 : 526.18109 : 1"
       inkscape:persp3d-origin="372.04724 : 350.78739 : 1"
       id="perspective10" />
    <inkscape:perspective
       id="perspective2932"
       inkscape:persp3d-origin="0.5 : 0.33333333 : 1"
       inkscape:vp_z="1 : 0.5 : 1"
       inkscape:vp_y="0 : 1000 : 0"
       inkscape:vp_x="0 : 0.5 : 1"
       sodipodi:type="inkscape:persp3d" />
    <inkscape:perspective
       id="perspective3738"
       inkscape:persp3d-origin="0.5 : 0.33333333 : 1"
       inkscape:vp_z="1 : 0.5 : 1"
       inkscape:vp_y="0 : 1000 : 0"
       inkscape:vp_x="0 : 0.5 : 1"
       sodipodi:type="inkscape:persp3d" />
    <inkscape:perspective
       id="perspective3762"
       inkscape:persp3d-origin="0.5 : 0.33333333 : 1"
       inkscape:vp_z="1 : 0.5 : 1"
       inkscape:vp_y="0 : 1000 : 0"
       inkscape:vp_x="0 : 0.5 : 1"
       sodipodi:type="inkscape:persp3d" />
    <inkscape:perspective
       id="perspective7286"
       inkscape:persp3d-origin="0.5 : 0.33333333 : 1"
       inkscape:vp_z="1 : 0.5 : 1"
       inkscape:vp_y="0 : 1000 : 0"
       inkscape:vp_x="0 : 0.5 : 1"
       sodipodi:type="inkscape:persp3d" />
    <inkscape:perspective
       id="perspective7458"
       inkscape:persp3d-origin="0.5 : 0.33333333 : 1"
       inkscape:vp_z="1 : 0.5 : 1"
       inkscape:vp_y="0 : 1000 : 0"
       inkscape:vp_x="0 : 0.5 : 1"
       sodipodi:type="inkscape:persp3d" />
    <inkscape:perspective
       id="perspective10-7"
       inkscape:persp3d-origin="372.04724 : 350.78739 : 1"
       inkscape:vp_z="744.09448 : 526.18109 : 1"
       inkscape:vp_y="0 : 1000 : 0"
       inkscape:vp_x="0 : 526.18109 : 1"
       sodipodi:type="inkscape:persp3d" />
    <inkscape:perspective
       sodipodi:type="inkscape:persp3d"
       inkscape:vp_x="0 : 0.5 : 1"
       inkscape:vp_y="0 : 1000 : 0"
       inkscape:vp_z="1 : 0.5 : 1"
       inkscape:persp3d-origin="0.5 : 0.33333333 : 1"
       id="perspective5597" />
    <inkscape:perspective
       sodipodi:type="inkscape:persp3d"
       inkscape:vp_x="0 : 526.18109 : 1"
       inkscape:vp_y="0 : 1000 : 0"
       inkscape:vp_z="744.09448 : 526.18109 : 1"
       inkscape:persp3d-origin="372.04724 : 350.78739 : 1"
       id="perspective10-6" />
    <inkscape:perspective
       sodipodi:type="inkscape:persp3d"
       inkscape:vp_x="0 : 526.18109 : 1"
       inkscape:vp_y="0 : 1000 : 0"
       inkscape:vp_z="744.09448 : 526.18109 : 1"
       inkscape:persp3d-origin="372.04724 : 350.78739 : 1"
       id="perspective10-4" />
    <inkscape:perspective
       id="perspective7095"
       inkscape:persp3d-origin="0.5 : 0.33333333 : 1"
       inkscape:vp_z="1 : 0.5 : 1"
       inkscape:vp_y="0 : 1000 : 0"
       inkscape:vp_x="0 : 0.5 : 1"
       sodipodi:type="inkscape:persp3d" />
    <inkscape:perspective
       sodipodi:type="inkscape:persp3d"
       inkscape:vp_x="0 : 526.18109 : 1"
       inkscape:vp_y="0 : 1000 : 0"
       inkscape:vp_z="744.09448 : 526.18109 : 1"
       inkscape:persp3d-origin="372.04724 : 350.78739 : 1"
       id="perspective4851" />
    <inkscape:perspective
       id="perspective4963"
       inkscape:persp3d-origin="0.5 : 0.33333333 : 1"
       inkscape:vp_z="1 : 0.5 : 1"
       inkscape:vp_y="0 : 1000 : 0"
       inkscape:vp_x="0 : 0.5 : 1"
       sodipodi:type="inkscape:persp3d" />
    <inkscape:perspective
       id="perspective5499"
       inkscape:persp3d-origin="0.5 : 0.33333333 : 1"
       inkscape:vp_z="1 : 0.5 : 1"
       inkscape:vp_y="0 : 1000 : 0"
       inkscape:vp_x="0 : 0.5 : 1"
       sodipodi:type="inkscape:persp3d" />
    <inkscape:perspective
       id="perspective5521"
       inkscape:persp3d-origin="0.5 : 0.33333333 : 1"
       inkscape:vp_z="1 : 0.5 : 1"
       inkscape:vp_y="0 : 1000 : 0"
       inkscape:vp_x="0 : 0.5 : 1"
       sodipodi:type="inkscape:persp3d" />
    <inkscape:perspective
       sodipodi:type="inkscape:persp3d"
       inkscape:vp_x="0 : 17.541142 : 1"
       inkscape:vp_y="0 : 1000 : 0"
       inkscape:vp_z="409.26614 : 17.541142 : 1"
       inkscape:persp3d-origin="204.63307 : 11.694094 : 1"
       id="perspective3033" />
    <inkscape:perspective
       id="perspective3110"
       inkscape:persp3d-origin="183.81436 : 28.821261 : 1"
       inkscape:vp_z="367.62872 : 43.231892 : 1"
       inkscape:vp_y="0 : 1000 : 0"
       inkscape:vp_x="0 : 43.231892 : 1"
       sodipodi:type="inkscape:persp3d" />
    <inkscape:perspective
       id="perspective3186"
       inkscape:persp3d-origin="183.81436 : 28.821261 : 1"
       inkscape:vp_z="367.62872 : 43.231892 : 1"
       inkscape:vp_y="0 : 1000 : 0"
       inkscape:vp_x="0 : 43.231892 : 1"
       sodipodi:type="inkscape:persp3d" />
    <inkscape:perspective
       id="perspective3326"
       inkscape:persp3d-origin="183.81613 : 28.655907 : 1"
       inkscape:vp_z="367.63226 : 42.98386 : 1"
       inkscape:vp_y="0 : 1000 : 0"
       inkscape:vp_x="0 : 42.98386 : 1"
       sodipodi:type="inkscape:persp3d" />
    <inkscape:perspective
       id="perspective4292"
       inkscape:persp3d-origin="0.5 : 0.33333333 : 1"
       inkscape:vp_z="1 : 0.5 : 1"
       inkscape:vp_y="0 : 1000 : 0"
       inkscape:vp_x="0 : 0.5 : 1"
       sodipodi:type="inkscape:persp3d" />
    <inkscape:perspective
       sodipodi:type="inkscape:persp3d"
       inkscape:vp_x="0 : 526.18109 : 1"
       inkscape:vp_y="0 : 1000 : 0"
       inkscape:vp_z="744.09448 : 526.18109 : 1"
       inkscape:persp3d-origin="372.04724 : 350.78739 : 1"
       id="perspective10-0" />
    <inkscape:perspective
       id="perspective2948"
       inkscape:persp3d-origin="0.5 : 0.33333333 : 1"
       inkscape:vp_z="1 : 0.5 : 1"
       inkscape:vp_y="0 : 1000 : 0"
       inkscape:vp_x="0 : 0.5 : 1"
       sodipodi:type="inkscape:persp3d" />
    <inkscape:perspective
       id="perspective3908"
       inkscape:persp3d-origin="0.5 : 0.33333333 : 1"
       inkscape:vp_z="1 : 0.5 : 1"
       inkscape:vp_y="0 : 1000 : 0"
       inkscape:vp_x="0 : 0.5 : 1"
       sodipodi:type="inkscape:persp3d" />
    <inkscape:perspective
       id="perspective3945"
       inkscape:persp3d-origin="0.5 : 0.33333333 : 1"
       inkscape:vp_z="1 : 0.5 : 1"
       inkscape:vp_y="0 : 1000 : 0"
       inkscape:vp_x="0 : 0.5 : 1"
       sodipodi:type="inkscape:persp3d" />
    <inkscape:perspective
       id="perspective4036"
       inkscape:persp3d-origin="0.5 : 0.33333333 : 1"
       inkscape:vp_z="1 : 0.5 : 1"
       inkscape:vp_y="0 : 1000 : 0"
       inkscape:vp_x="0 : 0.5 : 1"
       sodipodi:type="inkscape:persp3d" />
    <inkscape:perspective
       sodipodi:type="inkscape:persp3d"
       inkscape:vp_x="0 : 526.18109 : 1"
       inkscape:vp_y="0 : 1000 : 0"
       inkscape:vp_z="744.09448 : 526.18109 : 1"
       inkscape:persp3d-origin="372.04724 : 350.78739 : 1"
       id="perspective10-65" />
    <inkscape:perspective
       id="perspective5597-6"
       inkscape:persp3d-origin="0.5 : 0.33333333 : 1"
       inkscape:vp_z="1 : 0.5 : 1"
       inkscape:vp_y="0 : 1000 : 0"
       inkscape:vp_x="0 : 0.5 : 1"
       sodipodi:type="inkscape:persp3d" />
    <inkscape:perspective
       id="perspective8855"
       inkscape:persp3d-origin="0.5 : 0.33333333 : 1"
       inkscape:vp_z="1 : 0.5 : 1"
       inkscape:vp_y="0 : 1000 : 0"
       inkscape:vp_x="0 : 0.5 : 1"
       sodipodi:type="inkscape:persp3d" />
    <inkscape:perspective
       sodipodi:type="inkscape:persp3d"
       inkscape:vp_x="0 : 526.18109 : 1"
       inkscape:vp_y="0 : 1000 : 0"
       inkscape:vp_z="744.09448 : 526.18109 : 1"
       inkscape:persp3d-origin="372.04724 : 350.78739 : 1"
       id="perspective10-43" />
    <inkscape:perspective
       sodipodi:type="inkscape:persp3d"
       inkscape:vp_x="0 : 526.18109 : 1"
       inkscape:vp_y="0 : 1000 : 0"
       inkscape:vp_z="744.09448 : 526.18109 : 1"
       inkscape:persp3d-origin="372.04724 : 350.78739 : 1"
       id="perspective10-68" />
    <inkscape:perspective
       sodipodi:type="inkscape:persp3d"
       inkscape:vp_x="0 : 526.18109 : 1"
       inkscape:vp_y="0 : 1000 : 0"
       inkscape:vp_z="744.09448 : 526.18109 : 1"
       inkscape:persp3d-origin="372.04724 : 350.78739 : 1"
       id="perspective10-48" />
    <inkscape:perspective
       id="perspective7095-7"
       inkscape:persp3d-origin="0.5 : 0.33333333 : 1"
       inkscape:vp_z="1 : 0.5 : 1"
       inkscape:vp_y="0 : 1000 : 0"
       inkscape:vp_x="0 : 0.5 : 1"
       sodipodi:type="inkscape:persp3d" />
    <inkscape:perspective
       sodipodi:type="inkscape:persp3d"
       inkscape:vp_x="0 : 188.31259 : 1"
       inkscape:vp_y="0 : 1000 : 0"
       inkscape:vp_z="492.27164 : 188.31259 : 1"
       inkscape:persp3d-origin="246.13582 : 125.54173 : 1"
       id="perspective4094" />
    <inkscape:perspective
       id="perspective4680"
       inkscape:persp3d-origin="246.13582 : 125.54173 : 1"
       inkscape:vp_z="492.27164 : 188.31259 : 1"
       inkscape:vp_y="0 : 1000 : 0"
       inkscape:vp_x="0 : 188.31259 : 1"
       sodipodi:type="inkscape:persp3d" />
    <inkscape:perspective
       id="perspective4757"
       inkscape:persp3d-origin="228.41928 : 124.41968 : 1"
       inkscape:vp_z="456.83856 : 186.62952 : 1"
       inkscape:vp_y="0 : 1000 : 0"
       inkscape:vp_x="0 : 186.62952 : 1"
       sodipodi:type="inkscape:persp3d" />
    <inkscape:perspective
       id="perspective4833"
       inkscape:persp3d-origin="228.41928 : 124.41968 : 1"
       inkscape:vp_z="456.83856 : 186.62952 : 1"
       inkscape:vp_y="0 : 1000 : 0"
       inkscape:vp_x="0 : 186.62952 : 1"
       sodipodi:type="inkscape:persp3d" />
    <inkscape:perspective
       id="perspective4922"
       inkscape:persp3d-origin="208.75215 : 122.5311 : 1"
       inkscape:vp_z="417.5043 : 183.79665 : 1"
       inkscape:vp_y="0 : 1000 : 0"
       inkscape:vp_x="0 : 183.79665 : 1"
       sodipodi:type="inkscape:persp3d" />
    <inkscape:perspective
       id="perspective4999"
       inkscape:persp3d-origin="35.877747 : 121.56592 : 1"
       inkscape:vp_z="71.755493 : 182.34888 : 1"
       inkscape:vp_y="0 : 1000 : 0"
       inkscape:vp_x="0 : 182.34888 : 1"
       sodipodi:type="inkscape:persp3d" />
    <inkscape:perspective
       id="perspective5083"
       inkscape:persp3d-origin="228.41928 : 124.41968 : 1"
       inkscape:vp_z="456.83856 : 186.62952 : 1"
       inkscape:vp_y="0 : 1000 : 0"
       inkscape:vp_x="0 : 186.62952 : 1"
       sodipodi:type="inkscape:persp3d" />
    <inkscape:perspective
       id="perspective3886"
       inkscape:persp3d-origin="204.45768 : 153.38385 : 1"
       inkscape:vp_z="408.91535 : 230.07578 : 1"
       inkscape:vp_y="0 : 999.99999 : 0"
       inkscape:vp_x="0 : 230.07578 : 1"
       sodipodi:type="inkscape:persp3d" />
    <inkscape:perspective
       sodipodi:type="inkscape:persp3d"
       inkscape:vp_x="0 : 211.56378 : 1"
       inkscape:vp_y="0 : 999.99999 : 0"
       inkscape:vp_z="408.91535 : 211.56378 : 1"
       inkscape:persp3d-origin="204.45768 : 141.04252 : 1"
       id="perspective4472" />
    <inkscape:perspective
       sodipodi:type="inkscape:persp3d"
       inkscape:vp_x="0 : 211.56378 : 1"
       inkscape:vp_y="0 : 999.99999 : 0"
       inkscape:vp_z="408.96852 : 211.56378 : 1"
       inkscape:persp3d-origin="204.48426 : 141.04252 : 1"
       id="perspective4548" />
    <inkscape:perspective
       sodipodi:type="inkscape:persp3d"
       inkscape:vp_x="0 : 0.5 : 1"
       inkscape:vp_y="0 : 999.99999 : 0"
       inkscape:vp_z="1 : 0.5 : 1"
       inkscape:persp3d-origin="0.50000002 : 0.33333333 : 1"
       id="perspective4564" />
    <inkscape:perspective
       sodipodi:type="inkscape:persp3d"
       inkscape:vp_x="0 : 135.07971 : 1"
       inkscape:vp_y="0 : 999.99999 : 0"
       inkscape:vp_z="383.75788 : 135.07971 : 1"
       inkscape:persp3d-origin="191.87895 : 90.05314 : 1"
       id="perspective4679" />
    <inkscape:perspective
       sodipodi:type="inkscape:persp3d"
       inkscape:vp_x="0 : 0.5 : 1"
       inkscape:vp_y="0 : 999.99999 : 0"
       inkscape:vp_z="1 : 0.5 : 1"
       inkscape:persp3d-origin="0.50000002 : 0.33333333 : 1"
       id="perspective4695" />
    <inkscape:perspective
       sodipodi:type="inkscape:persp3d"
       inkscape:vp_x="0 : 61.876769 : 1"
       inkscape:vp_y="0 : 999.99999 : 0"
       inkscape:vp_z="428.74015 : 61.876769 : 1"
       inkscape:persp3d-origin="214.37008 : 41.25118 : 1"
       id="perspective4392" />
    <clipPath
       clipPathUnits="userSpaceOnUse"
       id="clipPath3918">
      <rect
         style="fill:#ffffff;fill-opacity:1;stroke:#ffffff;stroke-width:0.37728414;stroke-miterlimit:4;stroke-dasharray:none;stroke-dashoffset:0;stroke-opacity:1"
         id="rect3920"
         width="119.41724"
         height="15.284922"
         x="-59.795086"
         y="-17.038937" />
    </clipPath>
    <inkscape:perspective
       id="perspective3930"
       inkscape:persp3d-origin="0.50000002 : 0.33333333 : 1"
       inkscape:vp_z="1 : 0.5 : 1"
       inkscape:vp_y="0 : 999.99999 : 0"
       inkscape:vp_x="0 : 0.5 : 1"
       sodipodi:type="inkscape:persp3d" />
    <inkscape:perspective
       sodipodi:type="inkscape:persp3d"
       inkscape:vp_x="0 : 61.876769 : 1"
       inkscape:vp_y="0 : 999.99999 : 0"
       inkscape:vp_z="428.74015 : 61.876769 : 1"
       inkscape:persp3d-origin="214.37008 : 41.25118 : 1"
       id="perspective4392-9" />
    <clipPath
       clipPathUnits="userSpaceOnUse"
       id="clipPath3918-8">
      <rect
         style="fill:#ffffff;fill-opacity:1;stroke:#ffffff;stroke-width:0.37728414;stroke-miterlimit:4;stroke-dasharray:none;stroke-dashoffset:0;stroke-opacity:1"
         id="rect3920-0"
         width="119.41724"
         height="15.284922"
         x="-59.795086"
         y="-17.038937" />
    </clipPath>
    <inkscape:perspective
       id="perspective3779"
       inkscape:persp3d-origin="0.50000002 : 0.33333333 : 1"
       inkscape:vp_z="1 : 0.5 : 1"
       inkscape:vp_y="0 : 999.99999 : 0"
       inkscape:vp_x="0 : 0.5 : 1"
       sodipodi:type="inkscape:persp3d" />
    <inkscape:perspective
       sodipodi:type="inkscape:persp3d"
       inkscape:vp_x="0 : 61.876769 : 1"
       inkscape:vp_y="0 : 999.99999 : 0"
       inkscape:vp_z="428.74015 : 61.876769 : 1"
       inkscape:persp3d-origin="214.37008 : 41.25118 : 1"
       id="perspective4392-3" />
    <inkscape:perspective
       sodipodi:type="inkscape:persp3d"
       inkscape:vp_x="0 : 0.5 : 1"
       inkscape:vp_y="0 : 999.99999 : 0"
       inkscape:vp_z="1 : 0.5 : 1"
       inkscape:persp3d-origin="0.50000002 : 0.33333333 : 1"
       id="perspective3440" />
    <inkscape:perspective
       sodipodi:type="inkscape:persp3d"
       inkscape:vp_x="0 : 43.235432 : 1"
       inkscape:vp_y="0 : 999.99999 : 0"
       inkscape:vp_z="383.58073 : 43.235432 : 1"
       inkscape:persp3d-origin="191.79037 : 28.823621 : 1"
       id="perspective7771" />
    <inkscape:perspective
       sodipodi:type="inkscape:persp3d"
       inkscape:vp_x="0 : 43.233662 : 1"
       inkscape:vp_y="0 : 999.99999 : 0"
       inkscape:vp_z="383.58073 : 43.233662 : 1"
       inkscape:persp3d-origin="191.79037 : 28.822441 : 1"
       id="perspective7879" />
    <inkscape:perspective
       sodipodi:type="inkscape:persp3d"
       inkscape:vp_x="0 : 42.98563 : 1"
       inkscape:vp_y="0 : 999.99999 : 0"
       inkscape:vp_z="383.58073 : 42.98563 : 1"
       inkscape:persp3d-origin="191.79037 : 28.657087 : 1"
       id="perspective8003" />
    <inkscape:perspective
       sodipodi:type="inkscape:persp3d"
       inkscape:vp_x="0 : 33.56295 : 1"
       inkscape:vp_y="0 : 999.99999 : 0"
       inkscape:vp_z="406.75831 : 33.56295 : 1"
       inkscape:persp3d-origin="203.37916 : 22.3753 : 1"
       id="perspective8590" />
    <inkscape:perspective
       sodipodi:type="inkscape:persp3d"
       inkscape:vp_x="0 : 43.233662 : 1"
       inkscape:vp_y="0 : 999.99999 : 0"
       inkscape:vp_z="383.58073 : 43.233662 : 1"
       inkscape:persp3d-origin="191.79037 : 28.822441 : 1"
       id="perspective8666" />
    <inkscape:perspective
       sodipodi:type="inkscape:persp3d"
       inkscape:vp_x="0 : 0.5 : 1"
       inkscape:vp_y="0 : 999.99999 : 0"
       inkscape:vp_z="1 : 0.5 : 1"
       inkscape:persp3d-origin="0.50000002 : 0.33333333 : 1"
       id="perspective8678" />
  </defs>
  <sodipodi:namedview
     id="base"
     pagecolor="#ffffff"
     bordercolor="#666666"
     borderopacity="1.0"
     inkscape:pageopacity="0.0"
     inkscape:pageshadow="2"
     inkscape:zoom="0.49497475"
     inkscape:cx="392.07722"
     inkscape:cy="-26.972397"
     inkscape:document-units="px"
     inkscape:current-layer="layer2"
     showgrid="false"
     inkscape:window-width="1798"
     inkscape:window-height="894"
     inkscape:window-x="36"
     inkscape:window-y="123"
     inkscape:window-maximized="0"
     fit-margin-top="10"
     fit-margin-left="10"
     fit-margin-right="10"
     fit-margin-bottom="10" />
  <metadata
     id="metadata7">
    <rdf:RDF>
      <cc:Work
         rdf:about="">
        <dc:format>image/svg+xml</dc:format>
        <dc:type
           rdf:resource="http://purl.org/dc/dcmitype/StillImage" />
        <dc:title></dc:title>
      </cc:Work>
    </rdf:RDF>
  </metadata>
  <g
     inkscape:label="img"
     inkscape:groupmode="layer"
     id="layer1"
     transform="translate(188.63324,-401.80286)"
     style="display:none">
    <image
       y="39.076488"
       x="-243.4286"
       id="image2934"
       height="903"
       width="1204"
       xlink:href="file:///Users/kamikun/Desktop/IMG_3268.JPG" />
  </g>
  <g
     inkscape:groupmode="layer"
     id="layer3"
     inkscape:label="circle"
     transform="translate(-54.795367,-362.72638)" />
  <g
     inkscape:groupmode="layer"
     id="layer2"
     inkscape:label="trace"
     transform="translate(188.63324,-401.80286)"
     style="display:inline">
    <rect
       style="fill:#ffffff;fill-opacity:1;stroke:#000000;stroke-width:2.5;stroke-miterlimit:4;stroke-dasharray:none;stroke-opacity:1"
       id="rect2938"
       width="830.25208"
       height="73.814774"
       x="-141.53432"
       y="519.61328"
       ry="0"
       rx="0" />
    <rect
       ry="4.8474231"
       y="445.81366"
       x="-123.03722"
       height="73.441536"
       width="790.35437"
       id="rect3712"
       style="fill:#ffffff;fill-opacity:1;stroke:#000000;stroke-width:2.5;stroke-miterlimit:4;stroke-dasharray:none;stroke-opacity:1" />
    <rect
       style="opacity:1;fill:#ffffff;fill-opacity:1;stroke:#000000;stroke-width:2.5;stroke-linecap:round;stroke-linejoin:miter;stroke-miterlimit:4;stroke-dasharray:none;stroke-dashoffset:0;stroke-opacity:1"
       id="rect4852"
       width="10.780769"
       height="32.875687"
       x="694.14758"
       y="413.05286"
       ry="0" />
    <rect
       style="opacity:1;fill:#ffffff;fill-opacity:1;stroke:#000000;stroke-width:2.5;stroke-linecap:round;stroke-linejoin:miter;stroke-miterlimit:4;stroke-dasharray:none;stroke-dashoffset:0;stroke-opacity:1"
       id="rect4848-0"
       width="832.0766"
       height="20.511133"
       x="-138.15602"
       y="425.30246"
       ry="0.37937266" />
    <rect
       ry="4.3787546"
       y="519.05652"
       x="-177.38324"
       height="117.18447"
       width="35.526253"
       id="rect4169"
       style="opacity:1;fill:none;fill-opacity:1;stroke:#000000;stroke-width:2.5;stroke-linecap:round;stroke-linejoin:miter;stroke-miterlimit:4;stroke-dasharray:none;stroke-dashoffset:0;stroke-opacity:1"
       rx="0" />
    <ellipse
       style="opacity:1;fill:#000000;fill-opacity:1;stroke:#000000;stroke-width:4.31552792;stroke-linecap:round;stroke-linejoin:miter;stroke-miterlimit:4;stroke-dasharray:none;stroke-dashoffset:0;stroke-opacity:1"
       id="path4352"
       cx="23.67507"
       cy="670.20209"
       rx="10.596162"
       ry="0.96328747" />
    <ellipse
       style="display:inline;opacity:1;fill:#000000;fill-opacity:1;stroke:#000000;stroke-width:4.31552792;stroke-linecap:round;stroke-linejoin:miter;stroke-miterlimit:4;stroke-dasharray:none;stroke-dashoffset:0;stroke-opacity:1"
       id="path4352-2"
       cx="523.23596"
       cy="670.0094"
       rx="10.596162"
       ry="0.96328747" />
    <g
       style="stroke-width:0.42177981;stroke-miterlimit:4;stroke-dasharray:none"
       id="layer11"
       inkscape:label="add 1"
       transform="matrix(6.2247661,0,0,5.6439789,236.07056,683.41261)">
      <path
         id="path7763"
         d="m 38.977013,-6.4899898 -0.014,-9.99e-4 -0.487354,0 -0.598645,0 -4.096001,0 -4.096001,0 -8.192,0 -2.048,0 -2.048001,0 -0.369151,0 -0.485849,0 -0.015,9.99e-4 -3.226,0 -4.5619998,0 -9.1e-4,0 -3.629091,0 -4.0960001,0 -1.18699991,0 -0.015,-9.99e-4 -2.89400099,0 -4.096,0 -4.0960012,0 -4.095999,0 -2.048,0 -1.024,0 -1.024001,0 -0.192281,0 -0.831719,0 -1.024,0 -2.048001,0 -2.047998,0 -0.59594,0 -1.452063,0 -0.201,0 -0.014,9.99e-4 -7.976998,0 -0.93409,0 -0.0011,0 -7.256844,0 -0.533001,0 -0.691768,-0.04723 -0.01123,-7.67e-4 -0.06013,-0.01402 -0.51722,-0.11975 -0.03165,-0.0072 -0.515999,-0.233999 -0.422001,-0.328 -0.327999,-0.422 -0.234001,-0.517 -0.140999,-0.609001 -0.047,-0.703 0,-0.008 0,-8.1920012 0,-8.192001 0,-0.009 0.047,-0.703001 0.140999,-0.609999 0.234001,-0.515001 0.327999,-0.422 0.422001,-0.328 0.515999,-0.234999 0.609001,-0.140001 0.702999,-0.047 0.533001,0 3.001999,0 0.015,-9.99e-4 1.078998,0 4.096001,0 4.096001,0 4.095997,0 0.278859,0 1.769144,0 0.16259,0 0.373773,0 1.511635,0 4.096001,0 8.192,0 0.903365,0 3.1926362,9e-5 4.096,1.16e-4 4.0960009,1.16e-4 4.0960001,1.16e-4 8.1920008,2.32e-4 0.64383,1.8e-5 2.577514,0 0.874656,0 1.170785,0 0.877216,0 0.083,0 0.81619,0 1.148811,6.99e-4 8.192,0.005 4.096001,0.0025 4.096001,0.0025 0.936596,5.7e-4 3.159402,0.0019 2.273449,0.0014 0.148803,9.1e-5 1.673749,0.0046 4.237072,0.01166 3.95493,0.01068 2.120998,0.0057 0.396999,0.09112 0.213002,0.04889 0.514999,0.234999 0.422001,0.328 0.327999,0.422 0.100002,0.21915 0.134999,0.295851 0.139999,0.609999 0.047,0.703001 0,0.009 0,8.192001 0,5.497001 0,2.6950002 0,0.0075 0,4.81e-4 -0.0226,0.33799 -0.0244,0.36501 -0.139999,0.609 -0.134999,0.297 -0.100002,0.22 -0.327999,0.422 -0.422001,0.328 -0.51128,0.232311 -0.0037,0.0017 -0.480191,0.110995 -0.04469,0.01021 -0.08512,0.01979 -0.702999,0.048 -1.417999,0 -6.37465,0 -1.817352,0 -4.096001,0 -2.995999,0"
         style="fill:#ffffff;fill-opacity:1;stroke:#000000;stroke-width:0.42177981;stroke-miterlimit:4;stroke-dasharray:none;stroke-opacity:1"
         inkscape:connector-curvature="0"
         sodipodi:nodetypes="ccccccccccccccccccccccccccccccccccccccccccccccccccccccccccccccccccccccccccccccccccccccccccccccccccccccccccccccccccccccccccccccccccccccc" />
    </g>
    <path
       style="fill:#ffffff;fill-opacity:1;stroke:#000000;stroke-width:1.75654519;stroke-miterlimit:4;stroke-dasharray:none;stroke-opacity:1"
       d="m 31.030652,567.32927 -0.851303,0.002 -0.20229,0 -1.500315,0.28447 -1.991303,0.33294 -1.422355,0.51625 -1.175809,0.45305 -0.368762,0.1433 -1.576171,1.07466 -2.701423,1.69418 -1.373892,1.47714 -1.032522,1.05991 -0.03366,0.0337 -0.08221,0.14118 -0.962989,1.60568 -1.399169,2.29052 -1.287495,4.26496 -1.314887,0 -2.6297752,0 -3.5864411,0 -5.20266034,0 0,4.41245 0,1.8164 1.89436574,0 3.3082946,0 3.93834,0 0.1306418,0 2.3769175,0 0.195968,0 0.857625,0 0.503622,1.91965 0.503611,1.71104 0.06538,0.21494 0.678519,1.22849 1.228491,2.39167 1.314887,1.52981 0.952448,1.09152 0.282365,0.32241 0.185427,0.21283 0.404581,0.30764 0.408799,0.30976 1.500326,1.24746 0.0506,0.0422 1.527718,0.75226 0.297113,0.15172 3.053323,1.39497 0.984048,0.26972 3.080715,0.30974 0.973529,0.078 0.490978,0.04 0.558397,0.0442 0.0065,0 0.204405,-0.0252 1.059916,-0.13275 0.739627,-0.19597 3.525323,-0.64269 0.0065,-0.002 0.177012,-0.0948 0.889225,-0.47622 1.302243,-0.69537 0.318195,-0.17069 0.571041,-0.50573 2.231517,-1.6984 0.663771,-0.50572 1.862755,-1.41604 0.516266,-0.56893 1.102057,-1.71105 1.055707,-1.71735 1.569849,-5.01091 1.508752,0 5.131012,0 6.049744,0 0,-1.8185 0,-4.41247 -6.049744,0 -6.677687,0 -0.623734,-2.10718 -0.552085,-1.83958 -0.903985,-1.80375 -0.893443,-1.53826 -0.840773,-1.04517 -0.423548,-0.52468 -1.405492,-1.47504 -2.659282,-2.05029 -1.167382,-0.77967 -1.869077,-0.75858 -1.525604,-0.64059 -0.12432,-0.0274 -1.841694,-0.41302 -1.873285,-0.35822 -2.018696,-0.0108 -0.09268,0 z m 1.295931,6.20989 0.193854,0.038 1.051489,0.2044 1.90701,0.42566 0.381407,0.16225 0.941907,0.39826 2.604497,1.71314 1.053593,0.85552 1.087308,1.56354 0.819702,1.17581 0.103249,0.1454 0.377188,0.99037 0.63216,1.48979 -12.449295,0 -11.600085,0 0.967207,-1.92808 2.065044,-3.3399 1.386526,-1.24113 1.633082,-1.17371 0.91241,-0.45304 0.636368,-0.19809 1.50243,-0.46779 1.152634,-0.29711 1.344384,-0.0108 0.278157,-0.004 1.017774,-0.0484 z m -12.946584,15.39303 11.650653,0 12.504081,0 -0.600549,1.45607 -0.914525,2.11562 -1.091527,1.29804 -2.23362,2.17883 -0.686946,0.50361 -0.598445,0.3224 -1.626749,0.74385 -1.127345,0.37297 -2.100875,0.29289 -1.099953,0.10746 -0.423547,-0.0337 -0.50783,-0.0422 -3.424188,-0.94824 -0.335036,-0.0696 -1.413929,-0.57105 -0.960884,-0.7038 -2.128257,-1.72369 -0.265513,-0.31818 -0.608975,-0.72277 -1.316991,-2.65717 -0.252868,-0.44251 -0.436182,-1.15896 z"
       id="path5135"
       inkscape:connector-curvature="0" />
    <rect
       style="opacity:1;fill:#ffffff;fill-opacity:1;stroke:#000000;stroke-width:2.15776396;stroke-linecap:round;stroke-linejoin:miter;stroke-miterlimit:4;stroke-dasharray:none;stroke-dashoffset:0;stroke-opacity:1"
       id="rect5175"
       width="638.08167"
       height="21.577641"
       x="-49.351131"
       y="645.58051" />
    <rect
       style="fill:#ffffff;fill-opacity:1;stroke:#ffffff;stroke-width:1.75654519;stroke-miterlimit:4;stroke-dasharray:none;stroke-dashoffset:0;stroke-opacity:1"
       id="rect8695"
       width="39.461918"
       height="92.547897"
       x="253.65717"
       y="566.96143"
       ry="0" />
    <g
       id="g5148"
       transform="matrix(1.078882,0,0,1.078882,-292.0812,-414.69834)">
      <path
         inkscape:connector-curvature="0"
         id="path5146"
         d="m 473.38941,865.69371 -4.05469,0.27149 -3.51367,0.80859 -1.16993,0.53321 -1.80664,0.82226 -2.43359,1.89258 -1.89258,2.43359 -1.34961,2.97071 -0.81445,3.51953 -0.27148,4.05469 0,0.0527 0,47.25977 0,47.25781 0,0.0469 0.01,0.14649 0.26172,3.9082 0.81445,3.51367 1.34961,2.98242 0.94531,1.2168 0.94727,1.21875 2.43359,1.89063 1.80664,0.82031 1.14649,0.51953 0.0234,0.0117 1.13476,0.25976 0.0781,0.0176 0.14648,0.0332 2.1543,0.50196 4.05469,0.27734 3.07617,0 36.82031,0 0,-0.002 0,-64.62109 0,-13.29102 10.4375,0 6.13086,0 0,13.29102 0,31.71093 0,15.54883 0,17.36133 0,0.002 39.88867,0 0.0195,-0.002 1.22071,-0.082 1.84179,-0.125 0.97266,-0.0664 0,-0.002 2.04687,-0.47461 0.26172,-0.0606 0.13672,-0.0312 0.64649,-0.14844 0.42773,-0.0977 2.9707,-1.34961 2.43555,-1.89258 0.0742,-0.0977 1.81641,-2.33789 1.35742,-2.98242 0.80664,-3.51367 0.27148,-4.05469 0,-0.0469 0,-47.25781 0,-47.25977 0,-0.0527 -0.27148,-4.05469 -0.80664,-3.51953 -1.35742,-2.97071 -1.81641,-2.33789 -0.0742,-0.0957 -2.43555,-1.89258 -2.9707,-1.35547 -3.51953,-0.80859 -2.81445,-0.1875 -1.24024,-0.084 -22.38867,0 -23.63086,0 -47.25781,0 -3.07617,0 z"
         style="fill:#ffffff;fill-opacity:1;stroke:#000000;stroke-width:1.62811613;stroke-miterlimit:4;stroke-dasharray:none;stroke-opacity:1" />
      <path
         inkscape:connector-curvature="0"
         id="path5140"
         d="m 473.39055,865.60023 -4.05664,0.27148 -3.51172,0.80664 -1.17187,0.5332 -1.80469,0.82227 -0.002,0 -2.43359,1.89258 -1.89258,2.43555 -1.34961,2.9707 -0.8125,3.51758 -0.27149,4.05664 0,0.0508 0,47.25976 0,47.25977 0,0.0488 0.0996,1.50195 0.17188,2.55664 0.8125,3.51172 1.34961,2.98242 1.89258,2.43555 2.43359,1.89255 1.80664,0.8184 1.17187,0.5312 1.05664,0.2422 0.1543,0.035 0,-0.1055 2.66406,-1.1875 3.1504,-4.24018 3.44531,-7.82227 0.17187,-0.47656 5.56641,-15.3418 0,-2.93164 0.0117,0 0,-31.71094 0,-19.02539 -0.0176,0 0,-34.64843 0.0176,0 41.68164,0 37.36523,0 0.0176,0 0,34.64843 -0.0176,0 0,19.02539 0,31.71094 0.0176,0 0,2.89649 5.75,15.85351 3.43945,7.82227 0.68555,0.92187 2.46875,3.31831 2.6543,1.1817 0,0.1113 0.10156,-0.025 0.0586,-0.014 0.39063,-0.09 0.66015,-0.1484 2.97266,-1.3496 2.4336,-1.8926 0.0742,-0.0977 1.81836,-2.33789 1.35547,-2.98242 0.8086,-3.51367 0.16992,-2.55469 0.0996,-1.50195 0,-0.0488 0,-47.25977 0,-47.31054 -0.26953,-4.05664 -0.8086,-3.51758 -1.35547,-2.97266 -1.89257,-2.43359 -2.4336,-1.89258 -2.97266,-1.35547 -3.51757,-0.80664 -2.81641,-0.18945 -1.24023,-0.082 -8.63477,0 -0.0176,0 -37.36523,0 -41.68164,0 -5.57813,0 -3.07422,0 z"
         style="fill:#ffffff;fill-opacity:1;stroke:#000000;stroke-width:1.62811613;stroke-miterlimit:4;stroke-dasharray:none;stroke-opacity:1" />
    </g>
    <path
       style="fill:none;fill-rule:evenodd;stroke:#000000;stroke-width:1.61832297;stroke-linecap:butt;stroke-linejoin:miter;stroke-miterlimit:4;stroke-dasharray:none;stroke-opacity:1"
       d="m 259.09354,658.7775 22.4446,0"
       id="path5152"
       inkscape:connector-curvature="0" />
    <circle
       style="opacity:1;fill:#ffffff;fill-opacity:1;stroke:#000000;stroke-width:1.61832297;stroke-linecap:round;stroke-linejoin:miter;stroke-miterlimit:4;stroke-dasharray:none;stroke-dashoffset:0;stroke-opacity:1"
       id="path4379"
       cx="270.11472"
       cy="547.71045"
       r="12.142364" />
    <circle
       style="display:inline;opacity:1;fill:#ffffff;fill-opacity:1;stroke:#000000;stroke-width:1.61832297;stroke-linecap:round;stroke-linejoin:miter;stroke-miterlimit:4;stroke-dasharray:none;stroke-dashoffset:0;stroke-opacity:1"
       id="path4379-1"
       cx="403.0087"
       cy="547.71045"
       r="12.142364" />
    <circle
       style="display:inline;opacity:1;fill:#ffffff;fill-opacity:1;stroke:#000000;stroke-width:1.61832297;stroke-linecap:round;stroke-linejoin:miter;stroke-miterlimit:4;stroke-dasharray:none;stroke-dashoffset:0;stroke-opacity:1"
       id="path4379-2"
       cx="139.45322"
       cy="547.71045"
       r="12.142364" />
  </g>
</svg>
