<?xml version="1.0" encoding="UTF-8" standalone="no"?>
<!-- Created with Inkscape (http://www.inkscape.org/) -->

<svg
   xmlns:dc="http://purl.org/dc/elements/1.1/"
   xmlns:cc="http://creativecommons.org/ns#"
   xmlns:rdf="http://www.w3.org/1999/02/22-rdf-syntax-ns#"
   xmlns:svg="http://www.w3.org/2000/svg"
   xmlns="http://www.w3.org/2000/svg"
   xmlns:xlink="http://www.w3.org/1999/xlink"
   xmlns:sodipodi="http://sodipodi.sourceforge.net/DTD/sodipodi-0.dtd"
   xmlns:inkscape="http://www.inkscape.org/namespaces/inkscape"
   width="604.2923"
   height="208.62845"
   id="svg13253"
   version="1.1"
   inkscape:version="0.47 r22583"
   sodipodi:docname="Focus Unit-side.svg"
   style="display:inline">
  <defs
     id="defs13255">
    <inkscape:perspective
       sodipodi:type="inkscape:persp3d"
       inkscape:vp_x="0 : 526.18109 : 1"
       inkscape:vp_y="0 : 1000 : 0"
       inkscape:vp_z="744.09448 : 526.18109 : 1"
       inkscape:persp3d-origin="372.04724 : 350.78739 : 1"
       id="perspective13261" />
    <inkscape:perspective
       id="perspective13637"
       inkscape:persp3d-origin="0.5 : 0.33333333 : 1"
       inkscape:vp_z="1 : 0.5 : 1"
       inkscape:vp_y="0 : 1000 : 0"
       inkscape:vp_x="0 : 0.5 : 1"
       sodipodi:type="inkscape:persp3d" />
    <inkscape:perspective
       id="perspective13732"
       inkscape:persp3d-origin="0.5 : 0.33333333 : 1"
       inkscape:vp_z="1 : 0.5 : 1"
       inkscape:vp_y="0 : 1000 : 0"
       inkscape:vp_x="0 : 0.5 : 1"
       sodipodi:type="inkscape:persp3d" />
    <inkscape:perspective
       id="perspective3021"
       inkscape:persp3d-origin="0.5 : 0.33333333 : 1"
       inkscape:vp_z="1 : 0.5 : 1"
       inkscape:vp_y="0 : 1000 : 0"
       inkscape:vp_x="0 : 0.5 : 1"
       sodipodi:type="inkscape:persp3d" />
    <inkscape:perspective
       id="perspective2933"
       inkscape:persp3d-origin="0.5 : 0.33333333 : 1"
       inkscape:vp_z="1 : 0.5 : 1"
       inkscape:vp_y="0 : 1000 : 0"
       inkscape:vp_x="0 : 0.5 : 1"
       sodipodi:type="inkscape:persp3d" />
    <inkscape:perspective
       id="perspective2955"
       inkscape:persp3d-origin="0.5 : 0.33333333 : 1"
       inkscape:vp_z="1 : 0.5 : 1"
       inkscape:vp_y="0 : 1000 : 0"
       inkscape:vp_x="0 : 0.5 : 1"
       sodipodi:type="inkscape:persp3d" />
  </defs>
  <sodipodi:namedview
     id="base"
     pagecolor="#ffffff"
     bordercolor="#666666"
     borderopacity="1.0"
     inkscape:pageopacity="0.0"
     inkscape:pageshadow="2"
     inkscape:zoom="1.4"
     inkscape:cx="222.67628"
     inkscape:cy="276.6965"
     inkscape:document-units="px"
     inkscape:current-layer="layer2"
     showgrid="false"
     inkscape:window-width="1174"
     inkscape:window-height="708"
     inkscape:window-x="108"
     inkscape:window-y="0"
     inkscape:window-maximized="0"
     showguides="true"
     inkscape:guide-bbox="true" />
  <metadata
     id="metadata13258">
    <rdf:RDF>
      <cc:Work
         rdf:about="">
        <dc:format>image/svg+xml</dc:format>
        <dc:type
           rdf:resource="http://purl.org/dc/dcmitype/StillImage" />
        <dc:title />
      </cc:Work>
    </rdf:RDF>
  </metadata>
  <g
     inkscape:label="img"
     inkscape:groupmode="layer"
     id="layer1"
     style="display:none"
     transform="translate(-159.01591,-524.77418)">
    <image
       y="-203.21669"
       x="-161.76108"
       id="image3023"
       height="1195.939"
       width="1913.5023"
       xlink:href="file:///Users/kamikun/Desktop/Screen%20Shot%202017-05-19%20at%204.55.17%20PM.png" />
  </g>
  <g
     inkscape:groupmode="layer"
     id="layer2"
     inkscape:label="trace"
     style="display:inline"
     transform="translate(-159.01591,-524.77418)">
    <path
       style="fill:#ffffff;fill-opacity:1;stroke:#000000;stroke-width:1.46771932;stroke-linecap:butt;stroke-linejoin:miter;stroke-miterlimit:4;stroke-opacity:1;stroke-dasharray:none"
       d="m 236.19778,667.55753 -66.76028,23.76454 c -6.80192,2.2519 -10.30934,6.46943 -9.59697,8.70381 l 0.13522,28.51842 c 3.49432,5.0017 23.48352,3.93359 36.98988,4.06223 l 262.17923,0.0587 -0.0306,-16.37832 -2.84677,0 0.1173,-17.46985 c -53.69945,0.0258 -111.26083,-1.34032 -161.3028,-7.1323 l -10.73345,2.78038 -19.19393,-3.38482 0,-5.07722 -23.92927,-6.46743 c -4.98695,-1.46516 -3.80798,-7.37525 -3.81443,-11.83219 l -1.21312,-0.14599 0,5e-5 -1e-5,-10e-6 z"
       id="path3041"
       sodipodi:nodetypes="cccccccccccccccccc" />
    <path
       sodipodi:nodetypes="ccccccccccccccccc"
       id="path3043"
       d="m 758.15467,693.13891 c 3.64503,2.70952 4.37438,3.40818 4.41966,6.2861 l -0.009,27.68298 c -0.46343,3.19917 -1.25894,4.76947 -13.12375,4.9867 -96.82001,1.23291 -193.76629,-0.3023 -290.20747,0.57408 l 0.0306,-16.41729 2.84568,-0.0855 0.20549,-17.34905 c 56.54357,1.39016 111.83185,-2.48362 168.22619,-6.36186 l 3.13478,2.2761 27.49794,-2.31758 0,-5.07723 c 15.88189,-2.11838 29.10776,-4.54236 41.7973,-11.00066 6.06735,-3.546 5.05987,-6.97111 4.92476,-11.00065 l 4e-5,0 50.25772,27.80386 6e-5,0 z"
       style="fill:#ffffff;fill-opacity:1;stroke:#000000;stroke-width:1.46771932;stroke-linecap:butt;stroke-linejoin:miter;stroke-miterlimit:4;stroke-opacity:1;stroke-dasharray:none" />
    <path
       style="fill:none;stroke:#000000;stroke-width:1.5;stroke-linecap:butt;stroke-linejoin:miter;stroke-miterlimit:4;stroke-opacity:1;stroke-dasharray:none"
       d="m 162.0039,695.57122 c -1.71336,1.84154 -0.97476,3.44105 6.7461,3.08429 l 577.67857,0.13527 c 10.49677,-0.51912 16.79361,0.73304 14.03951,-3.74178"
       id="path3047"
       sodipodi:nodetypes="cccc" />
    <path
       style="fill:none;stroke:#000000;stroke-width:1.5;stroke-linecap:butt;stroke-linejoin:miter;stroke-miterlimit:4;stroke-opacity:1;stroke-dasharray:none"
       d="m 268.91738,626.66435 c -1.37777,-0.0311 -5.30581,0.36755 -7.16514,0.50041 -1.16522,0.0833 -2.71131,4.5989 -3.87499,4.71178 -3.35576,0.32551 -9.712,0.78963 -12.87193,1.48155 -6.96394,1.52488 -11.24745,6.29122 -1.01015,8.67294 l 23.19018,5.00744 c 16.6826,2.60666 26.63834,5.22469 51.77032,6.6579 31.65145,1.95437 63.30289,2.33526 94.95434,3.44363 31.23055,1.04339 62.4611,0.69731 93.69165,0.8062 32.6616,0.3773 65.32319,-2.74625 97.98479,-3.58412 l 25.25382,-2.27285 2.98558,1.20142 26.54868,-2.64268 -4.08919,-3.01776 c 10.12195,-0.48491 19.52962,-2.67687 29.65157,-4.08395 5.47166,-1.25344 12.00577,-2.30185 17.83457,-4.98948 4.01703,-1.85797 3.10794,-4.96445 0.17281,-6.4969 -0.42415,-0.22145 -1.14146,0.76562 -3.50668,1.59203 -5.00414,1.50339 -11.50523,1.16478 -14.04573,-1.28987 -1.27792,-1.23474 -0.33275,-3.27718 2.03861,-4.83788 0.53141,-0.34975 1.27901,-0.44375 2.0585,-0.65613 1.82915,-0.49836 -11.03665,-0.43239 -13.46751,-0.53768"
       id="path3055"
       sodipodi:nodetypes="csssccccccccccccscsssc" />
    <path
       style="fill:none;stroke:#000000;stroke-width:1.5;stroke-linecap:butt;stroke-linejoin:miter;stroke-miterlimit:4;stroke-opacity:1;stroke-dasharray:none"
       d="m 265.19232,686.12836 0.93616,-33.8248 19.80891,3.06744 -1.13641,39.26968"
       id="path3051"
       sodipodi:nodetypes="cccc" />
    <path
       style="fill:none;stroke:#000000;stroke-width:1.5;stroke-linecap:butt;stroke-linejoin:miter;stroke-miterlimit:4;stroke-opacity:1;stroke-dasharray:none"
       d="m 285.82088,655.43578 9.63887,-3.47316 -0.84056,39.42658"
       id="path3053"
       sodipodi:nodetypes="ccc" />
    <path
       style="fill:none;stroke:#000000;stroke-width:1.5;stroke-linecap:butt;stroke-linejoin:miter;stroke-miterlimit:4;stroke-opacity:1;stroke-dasharray:none"
       d="m 265.929,652.15051 6.89885,-4.19117"
       id="path2969"
       sodipodi:nodetypes="cc" />
    <path
       style="fill:none;stroke:#000000;stroke-width:1.5;stroke-linecap:butt;stroke-linejoin:miter;stroke-miterlimit:4;stroke-opacity:1;stroke-dasharray:none"
       d="m 237.91894,637.11158 -0.53309,30.50875"
       id="path2971"
       sodipodi:nodetypes="cc" />
    <path
       style="fill:none;stroke:#000000;stroke-width:1.5;stroke-linecap:butt;stroke-linejoin:miter;stroke-miterlimit:4;stroke-opacity:1;stroke-dasharray:none"
       d="m 270.98214,535.84432 2.94643,-3.66071 c 19.84202,-3.10812 47.92112,-4.17622 71.79614,-4.34314 35.78446,-0.57282 72.98848,-2.3471 109.85409,-2.0203 39.24987,-0.78733 75.48264,0.0911 112.88454,1.51523 25.12144,0.15614 51.30551,1.67994 77.02414,2.77792 9.37113,0.44319 18.00106,0.9249 26.76904,1.89403"
       id="path2975"
       sodipodi:nodetypes="ccccccc" />
    <path
       style="fill:none;stroke:#000000;stroke-width:1.5;stroke-linecap:butt;stroke-linejoin:miter;stroke-miterlimit:4;stroke-opacity:1;stroke-dasharray:none"
       d="m 707.85714,665.0355 -1.48088,-30.17332"
       id="path3025"
       sodipodi:nodetypes="cc" />
    <path
       style="fill:none;stroke:#000000;stroke-width:1.5;stroke-linecap:butt;stroke-linejoin:miter;stroke-miterlimit:4;stroke-opacity:1;stroke-dasharray:none"
       d="m 661.14484,686.68696 0,-35.73414"
       id="path3027"
       sodipodi:nodetypes="cc" />
    <path
       style="fill:none;stroke:#000000;stroke-width:1.5;stroke-linecap:butt;stroke-linejoin:miter;stroke-miterlimit:4;stroke-opacity:1;stroke-dasharray:none"
       d="m 634.37579,694.51566 0,-40.91119"
       id="path3030"
       sodipodi:nodetypes="cc" />
    <path
       style="fill:none;stroke:#000000;stroke-width:1.5;stroke-linecap:butt;stroke-linejoin:miter;stroke-miterlimit:4;stroke-opacity:1;stroke-dasharray:none"
       d="m 630.71399,652.2155 0,40.27983"
       id="path3032"
       sodipodi:nodetypes="cc" />
    <path
       style="fill:none;stroke:#000000;stroke-width:1.5;stroke-linecap:butt;stroke-linejoin:miter;stroke-miterlimit:4;stroke-opacity:1;stroke-dasharray:none"
       d="m 271.60476,629.48707 c -0.15259,1.76776 -0.18367,4.54569 -0.12626,6.31346 1.91357,2.43972 7.65469,5.24288 13.63706,6.43972 12.35895,2.11009 37.53775,5.38486 62.12438,6.06091 21.46574,1.54105 42.93148,1.36729 64.39722,1.87237 18.18275,0.33672 36.36549,0.3163 54.54824,0.65302 26.09561,-0.0125 52.19121,0.0324 78.28682,-0.63135 l 60.35662,-2.14657 c 17.3203,-0.98771 36.86204,-2.91102 55.41045,-7.48949 5.89055,-1.53126 11.4974,-2.83221 17.06799,-6.92313 l 0,-10.20985"
       id="path3034"
       sodipodi:nodetypes="ccccccccccc" />
  </g>
  <g
     inkscape:groupmode="layer"
     id="layer3"
     inkscape:label="ridge"
     transform="translate(-159.01591,-524.77418)">
    <path
       style="fill:none;stroke:#000000;stroke-width:1.5;stroke-linecap:butt;stroke-linejoin:miter;stroke-miterlimit:4;stroke-opacity:1;stroke-dasharray:none"
       d="m 272.74119,630.37096 -9.59645,-8.83884 1.76777,-82.07489 9.59645,-5.30331 -1.76777,96.21704 z"
       id="path3029"
       sodipodi:nodetypes="ccccc" />
    <path
       style="fill:none;stroke:#000000;stroke-width:1.5;stroke-linecap:butt;stroke-linejoin:miter;stroke-miterlimit:4;stroke-opacity:1;stroke-dasharray:none"
       d="m 315.5464,638.1933 10e-6,-7.82235 6.18718,10e-6 9.83367,7.56979 -16.02086,0.25255 z"
       id="path3033"
       sodipodi:nodetypes="ccccc" />
    <path
       style="fill:none;stroke:#000000;stroke-width:1.5;stroke-linecap:butt;stroke-linejoin:miter;stroke-miterlimit:4;stroke-opacity:1;stroke-dasharray:none"
       d="m 290.14017,634.21133 2.93034,-101.49866 -9.72272,6.99709 -2.02031,86.11551 8.81269,8.38606 z"
       id="path3037"
       sodipodi:nodetypes="ccccc" />
    <path
       style="fill:none;stroke:#000000;stroke-width:1.5;stroke-linecap:butt;stroke-linejoin:miter;stroke-miterlimit:4;stroke-opacity:1;stroke-dasharray:none"
       d="m 275.81497,625.7106 2.22952,-87.01099 4.04061,-5.80838 11.04855,-0.85426 0.0631,1.48564"
       id="path3039"
       sodipodi:nodetypes="ccccc" />
    <path
       style="fill:none;stroke:#000000;stroke-width:1.5;stroke-linecap:butt;stroke-linejoin:miter;stroke-miterlimit:4;stroke-opacity:1;stroke-dasharray:none"
       d="m 333.17176,638.64475 3.11975,-108.54676 -20.1444,0.65565 0.53571,6.68328 -1.13642,93.18657"
       id="path2899"
       sodipodi:nodetypes="ccccc" />
    <path
       style="fill:none;stroke:#000000;stroke-width:1.5;stroke-linecap:butt;stroke-linejoin:miter;stroke-miterlimit:4;stroke-opacity:1;stroke-dasharray:none"
       d="m 321.73359,630.49722 2.0203,-92.05014 12.31572,-7.85932"
       id="path2901"
       sodipodi:nodetypes="ccc" />
    <path
       style="fill:none;stroke:#000000;stroke-width:1.5;stroke-linecap:butt;stroke-linejoin:miter;stroke-miterlimit:4;stroke-opacity:1;stroke-dasharray:none"
       d="m 316.69643,537.71933 7.76785,0.44641"
       id="path2903"
       sodipodi:nodetypes="cc" />
    <path
       style="fill:none;stroke:#000000;stroke-width:1.5;stroke-linecap:butt;stroke-linejoin:miter;stroke-miterlimit:4;stroke-opacity:1;stroke-dasharray:none"
       d="m 278.17076,538.82588 5.17703,0.75761"
       id="path2905"
       sodipodi:nodetypes="cc" />
    <path
       style="fill:none;stroke:#000000;stroke-width:1.5;stroke-linecap:butt;stroke-linejoin:miter;stroke-miterlimit:4;stroke-opacity:1;stroke-dasharray:none"
       d="m 387.01469,633.71705 -10.10152,3e-5 -3.78807,7.32361 24.11739,-0.18947 -10.2278,-7.13417 z"
       id="path2907"
       sodipodi:nodetypes="ccccc" />
    <path
       style="fill:none;stroke:#000000;stroke-width:1.5;stroke-linecap:butt;stroke-linejoin:miter;stroke-miterlimit:4;stroke-opacity:1;stroke-dasharray:none"
       d="m 387.89858,538.69961 10.73286,-8.01808 -23.73857,0.0631 4.00997,7.97027 8.99574,-0.0153 0,10e-6 z"
       id="path2909"
       sodipodi:nodetypes="cccccc" />
    <path
       style="fill:none;stroke:#000000;stroke-width:1.5;stroke-linecap:butt;stroke-linejoin:miter;stroke-miterlimit:4;stroke-opacity:1;stroke-dasharray:none"
       d="m 400.14668,529.98705 -1.19955,111.62186"
       id="path2911"
       sodipodi:nodetypes="cc" />
    <path
       style="fill:none;stroke:#000000;stroke-width:1.5;stroke-linecap:butt;stroke-linejoin:miter;stroke-miterlimit:4;stroke-opacity:1;stroke-dasharray:none"
       d="m 387.0147,633.46455 0.50507,-94.89121"
       id="path2913"
       sodipodi:nodetypes="cc" />
    <path
       style="fill:none;stroke:#000000;stroke-width:1.5;stroke-linecap:butt;stroke-linejoin:miter;stroke-miterlimit:4;stroke-opacity:1;stroke-dasharray:none"
       d="m 379.05974,538.7239 -2.0203,94.80378"
       id="path2915"
       sodipodi:nodetypes="cc" />
    <path
       style="fill:none;stroke:#000000;stroke-width:1.5;stroke-linecap:butt;stroke-linejoin:miter;stroke-miterlimit:4;stroke-opacity:1;stroke-dasharray:none"
       d="m 372.68316,641.79831 1.57836,-111.81126"
       id="path2917"
       sodipodi:nodetypes="cc" />
    <path
       style="fill:none;stroke:#000000;stroke-width:1.5;stroke-linecap:butt;stroke-linejoin:miter;stroke-miterlimit:4;stroke-opacity:1;stroke-dasharray:none"
       d="m 475.23985,642.03567 -8.45413,-6.72071 -0.25254,-5.96683 -12.06889,-0.0217 0,6.07143 -5.61865,6.58547 26.39421,0.0523 z"
       id="path2919"
       sodipodi:nodetypes="ccccccc" />
    <path
       style="fill:none;stroke:#000000;stroke-width:1.5;stroke-linecap:butt;stroke-linejoin:miter;stroke-miterlimit:4;stroke-opacity:1;stroke-dasharray:none"
       d="m 475.67857,529.4744 -8.95785,7.23849 -0.11358,5.35343 -11.01912,-0.16587 0.037,-5.16325 -5.85588,-7.28445 25.90943,0.0216 z"
       id="path2923"
       sodipodi:nodetypes="ccccccc" />
    <path
       style="fill:none;stroke:#000000;stroke-width:1.5;stroke-linecap:butt;stroke-linejoin:miter;stroke-miterlimit:4;stroke-opacity:1;stroke-dasharray:none"
       d="m 447.75012,642.74533 1.24737,-113.94701"
       id="path2977"
       sodipodi:nodetypes="cc" />
    <path
       style="fill:none;stroke:#000000;stroke-width:1.5;stroke-linecap:butt;stroke-linejoin:miter;stroke-miterlimit:4;stroke-opacity:1;stroke-dasharray:none"
       d="M 477.04454,528.72436 476.792,642.74533"
       id="path2979"
       sodipodi:nodetypes="cc" />
    <path
       style="fill:none;stroke:#000000;stroke-width:1.5;stroke-linecap:butt;stroke-linejoin:miter;stroke-miterlimit:4;stroke-opacity:1;stroke-dasharray:none"
       d="m 466.56421,629.10827 0,-87.12566"
       id="path2981"
       sodipodi:nodetypes="cc" />
    <path
       style="fill:none;stroke:#000000;stroke-width:1.5;stroke-linecap:butt;stroke-linejoin:miter;stroke-miterlimit:4;stroke-opacity:1;stroke-dasharray:none"
       d="m 455.5788,541.73007 -1.13642,87.757"
       id="path2983"
       sodipodi:nodetypes="cc" />
    <path
       style="fill:none;stroke:#000000;stroke-width:1.5;stroke-linecap:butt;stroke-linejoin:miter;stroke-miterlimit:4;stroke-opacity:1;stroke-dasharray:none"
       d="m 668.88711,531.66398 2.18432,97.12677 10.20921,-8.57142 -1.55485,-79.64286 -7.45666,-8.63642 -3.38202,-0.27607 z"
       id="path2985"
       sodipodi:nodetypes="cccccc" />
    <path
       style="fill:none;stroke:#000000;stroke-width:1.5;stroke-linecap:butt;stroke-linejoin:miter;stroke-miterlimit:4;stroke-opacity:1;stroke-dasharray:none"
       d="m 536.53317,633.47694 9.97834,0.10461 5.12627,7.45666 -23.50643,-0.48338 8.40182,-7.07789 z"
       id="path2987"
       sodipodi:nodetypes="ccccc" />
    <path
       style="fill:none;stroke:#000000;stroke-width:1.5;stroke-linecap:butt;stroke-linejoin:miter;stroke-miterlimit:4;stroke-opacity:1;stroke-dasharray:none"
       d="m 527.67844,529.98705 23.35977,0.37881 -5.3033,6.81853 -9.34391,-10e-6 -8.71256,-7.19733 z"
       id="path2989"
       sodipodi:nodetypes="ccccc" />
    <path
       style="fill:none;stroke:#000000;stroke-width:1.5;stroke-linecap:butt;stroke-linejoin:miter;stroke-miterlimit:4;stroke-opacity:1;stroke-dasharray:none"
       d="M 526.79455,641.2301 526.28948,529.22943"
       id="path2991"
       sodipodi:nodetypes="cc" />
    <path
       style="fill:none;stroke:#000000;stroke-width:1.5;stroke-linecap:butt;stroke-linejoin:miter;stroke-miterlimit:4;stroke-opacity:1;stroke-dasharray:none"
       d="m 536.64354,537.18439 0,96.34329"
       id="path2993"
       sodipodi:nodetypes="cc" />
    <path
       style="fill:none;stroke:#000000;stroke-width:1.5;stroke-linecap:butt;stroke-linejoin:miter;stroke-miterlimit:4;stroke-opacity:1;stroke-dasharray:none"
       d="m 546.23999,633.52768 -0.63135,-96.3433"
       id="path2995"
       sodipodi:nodetypes="cc" />
    <path
       style="fill:none;stroke:#000000;stroke-width:1.5;stroke-linecap:butt;stroke-linejoin:miter;stroke-miterlimit:4;stroke-opacity:1;stroke-dasharray:none"
       d="m 552.04837,529.60823 0.3788,112.12695"
       id="path2997"
       sodipodi:nodetypes="cc" />
    <path
       style="fill:none;stroke:#000000;stroke-width:1.5;stroke-linecap:butt;stroke-linejoin:miter;stroke-miterlimit:4;stroke-opacity:1;stroke-dasharray:none"
       d="m 606.09153,630.11842 5.83639,0.074 2.24483,8.19666 -17.48827,0.0631 9.40705,-8.33379 z"
       id="path2999"
       sodipodi:nodetypes="ccccc" />
    <path
       style="fill:none;stroke:#000000;stroke-width:1.5;stroke-linecap:butt;stroke-linejoin:miter;stroke-miterlimit:4;stroke-opacity:1;stroke-dasharray:none"
       d="m 613.49807,530.80779 -2.74619,6.55516 -6.13226,0.074 -9.8923,-6.7554 18.77075,0.12624 z"
       id="path3001"
       sodipodi:nodetypes="ccccc" />
    <path
       style="fill:none;stroke:#000000;stroke-width:1.5;stroke-linecap:butt;stroke-linejoin:miter;stroke-miterlimit:4;stroke-opacity:1;stroke-dasharray:none"
       d="m 593.08581,529.93474 2.39912,109.27505 0,0"
       id="path3003"
       sodipodi:nodetypes="ccc" />
    <path
       style="fill:none;stroke:#000000;stroke-width:1.5;stroke-linecap:butt;stroke-linejoin:miter;stroke-miterlimit:4;stroke-opacity:1;stroke-dasharray:none"
       d="m 606.35939,630.05977 -1.20405,-92.69682"
       id="path3005"
       sodipodi:nodetypes="cc" />
    <path
       style="fill:none;stroke:#000000;stroke-width:1.5;stroke-linecap:butt;stroke-linejoin:miter;stroke-miterlimit:4;stroke-opacity:1;stroke-dasharray:none"
       d="m 610.47133,537.36295 1.51527,93.02333"
       id="path3007"
       sodipodi:nodetypes="cc" />
    <path
       style="fill:none;stroke:#000000;stroke-width:1.5;stroke-linecap:butt;stroke-linejoin:miter;stroke-miterlimit:4;stroke-opacity:1;stroke-dasharray:none"
       d="m 654.57885,625.82527 3.4724,0 0.22424,0.33852 -3.1916,6.98508 -8.64944,-0.18939 8.1444,-7.13421 z"
       id="path3011"
       sodipodi:nodetypes="cccccc" />
    <path
       style="fill:none;stroke:#000000;stroke-width:1.5;stroke-linecap:butt;stroke-linejoin:miter;stroke-miterlimit:4;stroke-opacity:1;stroke-dasharray:none"
       d="m 654.07377,539.20469 3.2307,-0.56504 -2.78875,-6.12722 -10.2278,0.23087 9.78585,6.46139 z"
       id="path3013"
       sodipodi:nodetypes="ccccc" />
    <path
       style="fill:none;stroke:#000000;stroke-width:1.5;stroke-linecap:butt;stroke-linejoin:miter;stroke-miterlimit:4;stroke-opacity:1;stroke-dasharray:none"
       d="m 642.83583,532.13362 2.3991,101.50764"
       id="path3015"
       sodipodi:nodetypes="cc" />
    <path
       style="fill:none;stroke:#000000;stroke-width:1.5;stroke-linecap:butt;stroke-linejoin:miter;stroke-miterlimit:4;stroke-opacity:1;stroke-dasharray:none"
       d="m 658.36692,626.14094 -0.75766,-86.93625"
       id="path3017"
       sodipodi:nodetypes="cc" />
    <path
       style="fill:none;stroke:#000000;stroke-width:1.5;stroke-linecap:butt;stroke-linejoin:miter;stroke-miterlimit:4;stroke-opacity:1;stroke-dasharray:none"
       d="m 654.20004,539.20469 0.37881,86.62058"
       id="path3019"
       sodipodi:nodetypes="cc" />
    <path
       style="fill:none;stroke:#000000;stroke-width:1.5;stroke-linecap:butt;stroke-linejoin:miter;stroke-miterlimit:4;stroke-opacity:1;stroke-dasharray:none"
       d="m 281.20121,625.95154 -4.86382,0.28892 5.49517,8.54992 9.02823,0.44194"
       id="path4906"
       sodipodi:nodetypes="cccc" />
  </g>
  <path
     style="fill:none;stroke:#000000;stroke-width:1.5;stroke-linecap:butt;stroke-linejoin:miter;stroke-miterlimit:4;stroke-opacity:1;stroke-dasharray:none"
     d="M 455.37441,114.2818 454.91266,5.2665858"
     id="path3036"
     sodipodi:nodetypes="cc" />
</svg>
