<?xml version="1.0" encoding="UTF-8" standalone="no"?>
<!-- Created with Inkscape (http://www.inkscape.org/) -->

<svg
   xmlns:dc="http://purl.org/dc/elements/1.1/"
   xmlns:cc="http://creativecommons.org/ns#"
   xmlns:rdf="http://www.w3.org/1999/02/22-rdf-syntax-ns#"
   xmlns:svg="http://www.w3.org/2000/svg"
   xmlns="http://www.w3.org/2000/svg"
   xmlns:xlink="http://www.w3.org/1999/xlink"
   xmlns:sodipodi="http://sodipodi.sourceforge.net/DTD/sodipodi-0.dtd"
   xmlns:inkscape="http://www.inkscape.org/namespaces/inkscape"
   width="532.99707"
   height="128.39281"
   id="svg6480"
   version="1.1"
   inkscape:version="0.91 r13725"
   sodipodi:docname="45 back adapter.svg">
  <defs
     id="defs6482">
    <inkscape:perspective
       sodipodi:type="inkscape:persp3d"
       inkscape:vp_x="0 : 526.18109 : 1"
       inkscape:vp_y="0 : 1000 : 0"
       inkscape:vp_z="744.09448 : 526.18109 : 1"
       inkscape:persp3d-origin="372.04724 : 350.78739 : 1"
       id="perspective6488" />
    <inkscape:perspective
       id="perspective6769"
       inkscape:persp3d-origin="0.5 : 0.33333333 : 1"
       inkscape:vp_z="1 : 0.5 : 1"
       inkscape:vp_y="0 : 1000 : 0"
       inkscape:vp_x="0 : 0.5 : 1"
       sodipodi:type="inkscape:persp3d" />
    <inkscape:perspective
       sodipodi:type="inkscape:persp3d"
       inkscape:vp_x="0 : 42.98386 : 1"
       inkscape:vp_y="0 : 1000 : 0"
       inkscape:vp_z="538.5791 : 42.98386 : 1"
       inkscape:persp3d-origin="269.28955 : 28.655907 : 1"
       id="perspective13326" />
    <inkscape:perspective
       sodipodi:type="inkscape:persp3d"
       inkscape:vp_x="0 : 43.231892 : 1"
       inkscape:vp_y="0 : 1000 : 0"
       inkscape:vp_z="538.5827 : 43.231892 : 1"
       inkscape:persp3d-origin="269.29135 : 28.821261 : 1"
       id="perspective13250" />
    <inkscape:perspective
       id="perspective13174"
       inkscape:persp3d-origin="269.29135 : 28.821261 : 1"
       inkscape:vp_z="538.5827 : 43.231892 : 1"
       inkscape:vp_y="0 : 1000 : 0"
       inkscape:vp_x="0 : 43.231892 : 1"
       sodipodi:type="inkscape:persp3d" />
  </defs>
  <sodipodi:namedview
     id="base"
     pagecolor="#ffffff"
     bordercolor="#666666"
     borderopacity="1.0"
     inkscape:pageopacity="0.0"
     inkscape:pageshadow="2"
     inkscape:zoom="0.7"
     inkscape:cx="48.45276"
     inkscape:cy="45.601987"
     inkscape:document-units="px"
     inkscape:current-layer="layer9"
     showgrid="false"
     inkscape:window-width="1477"
     inkscape:window-height="885"
     inkscape:window-x="127"
     inkscape:window-y="0"
     inkscape:window-maximized="0"
     fit-margin-top="0"
     fit-margin-left="0"
     fit-margin-right="0"
     fit-margin-bottom="0" />
  <metadata
     id="metadata6485">
    <rdf:RDF>
      <cc:Work
         rdf:about="">
        <dc:format>image/svg+xml</dc:format>
        <dc:type
           rdf:resource="http://purl.org/dc/dcmitype/StillImage" />
        <dc:title></dc:title>
      </cc:Work>
    </rdf:RDF>
  </metadata>
  <g
     inkscape:label="img"
     inkscape:groupmode="layer"
     id="layer1"
     style="display:none"
     transform="translate(-101.35862,-498.94057)">
    <image
       y="252.35735"
       x="51.019936"
       id="image6771"
       height="544.69287"
       width="871.50854"
       xlink:href="file:///Users/kamikun/Desktop/45%20back%20top-top.png" />
  </g>
  <g
     inkscape:groupmode="layer"
     id="layer10"
     inkscape:label="top"
     transform="translate(-101.35862,-498.94057)" />
  <g
     inkscape:groupmode="layer"
     id="layer9"
     inkscape:label="add 1"
     transform="translate(-101.35862,-498.94057)">
    <g
       id="g4153"
       transform="matrix(-1,0,0,-1,735.71428,1126.2739)">
      <path
         sodipodi:nodetypes="ccccc"
         id="path7378"
         d="m 113.03992,543.21991 506.1836,2.55077 -85.86297,80.8122 -332.84527,-0.50507 -87.47536,-82.8579 z"
         style="fill:#ffffff;fill-opacity:1;stroke:#000000;stroke-width:1.5;stroke-linecap:butt;stroke-linejoin:miter;stroke-miterlimit:4;stroke-dasharray:none;stroke-opacity:1"
         inkscape:connector-curvature="0" />
      <g
         style="fill:#ffffff;fill-opacity:1"
         transform="matrix(3.5433072,0,0,3.5433072,368.85676,542.61139)"
         id="g6856">
        <path
           d="m 0.7159407,-5.2405743 0.008024,-0.00679 0.002772,-0.00235 0.066167,-0.097526 0.15322494,-0.2258439 0.0108676,-0.015933 0.0218759,-0.055116 0.0551242,-0.138884 0.03233,-0.1830001 0.019623,-0.1110731 9.296e-4,-0.011349 -0.00659,-0.065691 -0.045517,-0.4534464 -0.0757074,-0.1907434 -0.001864,-0.0062 -2.0051e-4,-4.936e-4 -0.001542,-0.00239 -0.11783517,-0.18261 -0.0489849,-0.075913 -0.00364,-0.00534 -0.57203811,-0.4263211 -0.007959,-0.00543 -0.006278,-0.00143 -0.48072201,-0.051339 -0.22915655,-0.024473 -0.003239,0 -0.006278,0.00143 -0.39186088,0.1201182 -0.004257,0.00231 -0.40466031,0.2934031 -0.0037,0.00312 -0.1163491,0.1698613 -0.1290216,0.1883621 -0.00464,0.00705 -0.1048893,0.4463454 -0.022554,0.095977 -0.00388,0.012562 1.25e-5,0.00392 4.26e-5,0.013321 0.06656,0.382072 0.022685,0.1302171 0.013103,0.032809 0.1249006,0.2472348 0.00496,0.00981 0.00724,0.014325 0.039915,0.039476 0.1203996,0.1469798 0.028503,0.028705 0.1300255,0.084846 0.22671325,0.1479378 0.0289686,0.016056 0.0816367,0.045247 0.0271155,0.014799 0.0289297,0.00735 0.20810193,0.04698 0.009084,0.00205 0.11469586,0.025893 0.13852293,2.685e-4 0.002389,1.218e-4 0.0252888,0.00129 0.008986,-0.00134 0.009348,-0.00139 0.22155132,-0.048244 0.23600784,-0.051393 0.014551,-0.00453 0.0206931,-0.011333 0.0366645,-0.025764 0.42463786,-0.2983809 1.079e-5,-7.6e-6 2.0486e-4,-1.745e-4 M -57.44364,6.850421 l -0.182365,-1.43e-5 -0.172246,-1.34e-5 -1.426155,-1.111e-4 -6.593601,0 -8.191994,0 -1.25151,0 -0.0067,0 -0.01228,-0.445332 -0.0015,-0.3310628 0,-6.91989855 0,-7.64544435 0.001,-0.042538 0.01185,-0.5040178 0.0073,-0.3102856 0.02685,-0.4017143 0.14,-0.6089998 0.235,-0.516 0.328003,-0.422 6.03e-4,-6e-4 0.407654,-0.316717 0.01374,-0.01068 0.100006,-0.04544 0.413849,-0.188043 0.0011,-5.2e-4 0.61,-0.141 0.0016,-1.04e-4 0.02135,-0.0014 0.681068,-0.04547 2.367027,0 4.096001,0 2.28336,0 5.908642,0 4.096,0 4.096001,0 8.192001,0 8.191998,0 8.192001,0 8.192,0 4.096,0 3.9370005,0 0.1589994,0 8.19200038,0 8.19200042,0 4.0959993,0 4.096001,0 8.191999,0 4.096001,0 2.047999,0 1.146892,0 0.90111,0 2.048,0 2.047997,0 4.096,0 8.192002,0 4.096,0 4.096001,0 6.701355,0 1.490646,0 4.096001,0 2.366997,0 0.701584,0.0469 0.0014,9.5e-5 0.240043,0.05581 0.243531,0.05638 0.125419,0.02881 0.0011,4.77e-4 0.415947,0.188627 0.09901,0.0449 0.421997,0.328 0.328003,0.422 0.233993,0.516 0.129319,0.5585485 0.01169,0.050451 0.01879,0.2811155 -0.0082,0.4308844 -0.01057,0.5540161 0.02473,2.7872343 0.01372,4.85074995 0.0095,3.36950255 0,0.046622 0,0.05536 0,3e-7 -0.0013,0.00814 0.0013,0.01937 0,0.5970001 0,3.390924 -3.96e-4,0.093296 -0.004,0.1129346 -1.14e-4,0.00339 0,4e-7 -9.08e-4,0 -0.100968,2.24e-5 -0.58657,0 -0.579064,-8.44e-5 -1.189957,-1.735e-4 -0.116806,-2.494e-4 -0.176101,1.993e-4 -0.25074,-1.926e-4 -0.369721,7.1e-6 -0.316101,5.63e-5 -0.245613,4.34e-5 -0.792244,-7.15e-5 -0.134346,3.271e-4 -0.504364,-3.96e-5 -1.276405,-9.92e-5 -2.819596,0 -1.490646,0 -6.701355,0 -5.025509,0 -0.0067,0 -0.01378,-0.2893577 0,-0.3087892 0,-0.4017072 0,-2.6004391 0,-2.2960002 -3.146,0 -16.383999,0 -16.384001,0 -4.096001,0 -0.937,0 -9.99e-4,0 0,1.684 9.99e-4,0.015 0,0.5970001 0,4.0960002 0,0.007 -0.047,0.7030001 -0.0014,0.00613 -0.138591,0.6028661 -0.0031,0.00679 -0.232894,0.5092106 -0.328,0.4219999 -0.3600009,0.2815161 -0.058955,0.046103 -0.00257,0.00201 -4.711e-4,3.662e-4 -0.5139618,0.233527 -0.00104,4.72e-4 -0.6099997,0.141001 -0.703,0.047 -0.158,0 -8.19200042,0 -8.19200038,0 -0.1582499,0 -0.5278244,-0.03524 -0.1759252,-0.01176 -0.6099997,-0.141001 -0.1288795,-0.05906 -0.398932,-0.1874818 -0.0029,-0.00136 -0.299931,-0.2340136 -0.105605,-0.082082 -7.5e-4,0 -0.328,-0.4219999 -0.234999,-0.5140009 -0.140001,-0.6109991 -0.047,-0.7030001 0,-0.007 0,-6.3920004 -5.033,0 -16.384001,0 -16.383999,0 -3.147,0 0,0.2014074 -0.009,2.0945928 -0.0038,0.87851 0.0043,0.4790011 0.0086,0.9649916 0,0.5013957 -0.0015,0.3310628 -0.01227,0.445332 -0.360985,1.91e-5 -0.574234,0 -1.511959,0 -0.116802,-2.494e-4 -0.176106,1.993e-4 -0.250736,-1.926e-4 -0.369724,7.1e-6 -0.561714,9.97e-5 -0.792454,-7.15e-5 -0.08503,2.074e-4 -0.04911,1.197e-4 m -11.557106,-11.7390528 0.193748,0.061353 0.06494,0.00559 0.258667,0.022267 0.03684,0 0.342262,-0.074445 0.11686,-0.025417 0.02216,-0.00563 0.02069,-0.011333 0.03667,-0.025764 0.04191,-0.029448 0.382736,-0.2689404 2.06e-4,-1.745e-4 0.0108,-0.00913 1.38e-4,-1.95e-4 0.0091,-0.013283 0.295952,-0.5145097 0.0021,-0.00531 0.05196,-0.2940732 9.31e-4,-0.011349 -0.0017,-0.00522 -0.127998,-0.7108631 -0.0018,-0.00332 -0.117562,-0.1821771 -0.0508,-0.078735 -0.0044,-0.00472 -0.214638,-0.2205448 -0.235,-0.1432715 -0.02985,-0.018199 -0.0056,-0.00322 -0.390869,-0.1201182 -0.0063,-0.00143 -0.0032,0 -0.0063,0.00143 -0.709877,0.075812 -0.0043,0.00231 -0.189286,0.1283107 -0.308906,0.2093987 -0.0047,0.00437 -0.116875,0.1686115 -0.124512,0.1796341 -0.0037,0.00601 -0.0024,0.00814 -0.134659,0.579876 -6.41e-4,0.0083 -3.8e-5,5.226e-4 0.0019,0.01501 0.03618,0.3075032 0.0076,0.022377 0.04962,0.163096 0.0032,0.010653 0.01083,0.017021 0.0022,0.00437 0.08273,0.1626501 0.05441,0.1069722 0.128426,0.1548119 0.03303,0.032631 0.391388,0.2684169 0.01008,0.00691 0.04288,0.025589 0.01812,0.00989 0.0074,0.00406 0.02727,0.00693 m 136.314194,-0.058803 0.0133,0.00542 0.19384,0.079083 0.02852,0.00725 0.291001,0.056194 0.03857,0 0.350693,-0.026752 0.01362,-0.00104 0.02227,-0.00723 0.181626,-0.058955 0.03453,-0.010671 0.06905,-0.037877 0.15902,-0.087216 0.03778,-0.02366 0.0031,-0.00196 4.73e-4,-3.986e-4 0.183044,-0.1551857 0.0379,-0.038718 0.07672,-0.09316 0.05247,-0.063705 0.128562,-0.2527661 0.0095,-0.018604 0.0065,-0.011504 0.05286,-0.173749 0.0076,-0.022377 6.25e-4,-0.00602 0.0078,-0.074982 0.02602,-0.2516227 0.0017,-0.01391 -1.53e-4,-0.0012 -0.0013,-0.010711 -0.113556,-0.481534 -0.01517,-0.064358 -0.0017,-0.00525 -0.0034,-0.00554 -0.130074,-0.1898723 -0.115509,-0.1686115 -0.0047,-0.00437 -0.498191,-0.3377094 -0.0043,-0.00231 -0.127998,-0.032528 -0.170326,-0.043284 -0.0063,-0.00143 -0.414795,0 -0.0063,0.00143 -0.391861,0.1201182 -0.0029,0.0014 -0.03153,0.023086 -0.339653,0.2486563 -0.0027,0.00182 -0.0044,0.00472 -0.140373,0.1890073 -0.135307,0.1821771 -0.0018,0.00332 -0.09846,0.2914343 -0.0017,0.0058 -2.98e-4,0.00379 -0.02409,0.3419285 -0.0054,0.076541 0.0012,0.00794 0.01962,0.1110731 0.03233,0.1830001 0.005,0.011157 0.0019,0.0041 0.116181,0.2566838 0.0086,0.017766 0.0072,0.00903 0.174095,0.2412696 0.0107,0.00908 0.04073,0.030467 0.04144,0.031002 0.130814,0.097854 0.154457,0.1155415 0.0099,0.00538 0.01145,0.00625 z"
           id="path13166"
           style="fill:#ffffff;fill-opacity:1;stroke:#000000;stroke-width:0.42333332;stroke-miterlimit:4;stroke-dasharray:none;stroke-opacity:1"
           inkscape:connector-curvature="0" />
        <g
           style="fill:#ffffff;fill-opacity:1"
           id="layer12"
           inkscape:label="add 1">
          <path
             id="path13242"
             d="m 61.766566,-12.113199 0,11.20100074 0,2.30199996 3.20081,0 0,-2.30199996 0,-11.20100074 0.286598,0 4.096001,0 2.366997,0 0.700637,0.04684 0.0024,1.58e-4 0.399994,0.093 0,-0.002 0.2034,0.04746 0.0066,0.0015 0.416001,0.188651 0.09451,0.04286 0.0055,0.0025 0.417511,0.324511 0.0045,0.0035 0.16478,0.212 0.159729,0.20551 0.0035,0.0045 0.231483,0.510452 0.0025,0.0055 0.141007,0.6090007 4.96e-4,0.0075 0.0465,0.696526 0,0.009 -4.9e-5,8.19201204 0,8.19200096 0,0.007 -0.047,0.703 -10e-4,0.0044 0,5e-6 -1.07e-4,4.81e-4 -0.13987,0.606079 -0.002,0.0045 -0.231972,0.509545 -0.0024,0.0031 -0.163139,0.209894 -0.160919,0.207037 -0.0015,0.002 -0.42057,0.3268877 -0.0014,0.0011 -0.100006,0.04574 -0.414971,0.1897916 -3e-5,1.4e-5 -0.001,4.57e-4 -9.99e-4,0 -0.0024,5.54e-4 -0.606117,0.139516 -4.58e-4,9.3e-4 -0.703002,0.047 -0.319001,0 -2.047996,0 -4.096001,0 -8.192001,0 -2.046002,0 -0.002,-1.33e-4 -0.701,-0.04687 -0.61,-0.141 -0.515,-0.2359996 -0.222,-0.17255 -0.200139,-0.1554697 -0.162445,-0.209 -0.165554,-0.213 -0.235,-0.514 -0.14,-0.610999 -0.03841,-0.574435 -0.0046,-0.135565 -0.004,-0.115318 0,-3.980683 0,-4.09599996 0,-4.09600004 0,-4.096 0,-0.009 0.047,-0.703 0.14,-0.6090007 0.235,-0.516 0.163998,-0.211 0.164001,-0.211 0.001,-0.001 0.199001,-0.154673 0.22131,-0.172014 0.0017,-0.0013 0.514999,-0.234 0.0025,-5.76e-4 0.207531,-0.04842 0,10e-4 0.399002,-0.092 0.702999,-0.047 2.046002,0 4.704593,0 m -52.5955944,0.138 0.203398,0.04746 0.0066,0.0015 0.5105106,0.23151 0.0055,0.0025 0.061,0.04741 0.3609998,0.280588 0.0035,0.0045 0.161289,0.207511 0.163222,0.21 0.0025,0.0055 0.228995,0.504962 0.0025,0.0055 0.141,0.6090007 4.99e-4,0.0075 0.0465,0.696525 0,0.009 0,8.19200104 0,8.19199996 0,0.007 -0.001,0.01496 -0.046,0.688043 -0.0014,0.0061 -0.139646,0.604896 -0.234,0.514 -0.165554,0.213 -0.162446,0.209 -0.0025,0.002 -0.3584738,0.2786247 -0.061,0.04741 -0.0024,0.0011 -0.5125436,0.2344196 -2.7e-5,1.2e-5 -9.99e-4,4.57e-4 -9.99e-4,0 -1.8e-5,4e-6 -0.0024,5.5e-4 -0.605691,0.138673 -8.86e-4,0.0018 -0.703,0.047 -0.158,0 -8.19200106,0 -8.19199994,0 -0.158917,0 -0.05865,-0.0039 -0.644435,-0.04308 -0.6099997,-0.141 -0.4720999,-0.2163396 -0.04433,-0.02083 -3.22e-4,-1.5e-4 -0.03333,-0.026 -0.02593,-0.02015 -0.360917,-0.2805227 -8.3e-5,0 -0.162446,-0.209 -0.165554,-0.213 -0.235,-0.514 -0.14,-0.610999 -0.047,-0.703 0,-0.007 0,-8.19200096 0,-8.19200004 0,-0.009 10e-4,-0.01496 0.046,-0.688043 0.14,-0.6089997 0.235,-0.516001 0.164,-0.211 0.164,-0.211 10e-4,-10e-4 0.36,-0.279811 0.06031,-0.04688 0.0017,-0.0013 0.5150009,-0.234 0.0025,-5.76e-4 0.2075307,-0.04842 0,10e-4 0.237001,-0.05465 0.161999,-0.03735 0.703001,-0.047 0.158999,0 8.19199994,0 8.19200106,0 0.158,0 0.703,0.047 0.162999,0.0379 0.237,0.0551 0,-0.002 m -61.9390526,1.548909 0.0015,0.0065 0.139485,0.6024534 5e-4,0.0075 0.0465,0.696525 0,0.009 0,4.096 0,4.09600104 0,8.19199996 0,0.007 -0.047,0.703 -0.0011,0.0049 -0.139866,0.606079 -0.002,0.0045 -0.230557,0.506439 -0.0014,0.0031 -0.165554,0.213 -0.162445,0.209 -0.0025,0.002 -0.197475,0.153487 -0.222,0.17255 -0.514969,0.2355286 -0.001,4.71e-4 -10e-4,0 -0.0024,5.54e-4 -0.606113,0.139516 -4.66e-4,9.3e-4 -0.7,0.0468 -0.003,2.01e-4 -2.045002,0 -8.192001,0 -4.095996,0 -2.048,0 -0.319,0 -0.703,-0.047 -0.60999,-0.141 -0.416,-0.1902626 -0.10001,-0.04574 -0.422,-0.328 -0.16244,-0.209 -0.16556,-0.213 -0.235,-0.514001 -0.14,-0.610999 -0.0384,-0.574434 -0.005,-0.135566 -0.003,-0.08613 -0.001,-0.02922 0,-8.07668296 0,-8.13927204 0.001,-0.04254 2.4e-4,-0.01019 0.001,-0.04248 0.0448,-0.669524 0.14,-0.6089994 0.235,-0.516001 0.164,-0.211 0.164,-0.211 0.001,-10e-4 1.4e-4,-1.06e-4 0.42017,-0.326582 0.002,-0.0013 0.099,-0.04498 0.41357,-0.187916 0.002,-0.0011 0.21,-0.049 0,10e-4 0,0 0.4,-0.092 0.703,-0.047 2.367,0 4.095994,0 0.286598,0 0,11.20100144 0,2.30199996 3.20081,0 0,-2.30199996 0,-11.20100144 4.704593,0 2.045002,0 0.003,2.01e-4 0.697635,0.04664 0.0024,1.58e-4 0.400002,0.093 0,-0.002 0.203396,0.04746 0.0066,0.0015 0.0073,0.0033 0.503208,0.228199 0.0055,0.0025 0.222,0.17255 0.195511,0.151961 0.0045,0.0035 0.164776,0.212 0.163223,0.21 0.0025,0.0055 0.23151,0.510511 m 53.40957654,2.0546374 -0.05152,-0.0345 -0.811164,-0.16312 -0.06094,-0.01214 -0.06094,0.01214 -0.81116494,0.163119 -0.05152,0.0345 -0.679897,0.454742 -6.3e-5,4.2e-5 -6.25e-4,9.38e-4 -0.0053,0.0079 -0.02817,0.04201 -0.454519,0.682221 -0.01283,0.06673 -0.162494,0.805408 0.0038,0.01971 0.0085,0.0439 0.159605,0.798909 0.02264,0.03382 0.270653,0.407028 0.181612,0.273122 0.01544,0.02307 0.06686,0.04245 0.681825,0.453379 0.04563,0.0091 0.0013,2.69e-4 0.79356894,0.158539 0.01595,0.0018 0.0024,2.67e-4 0.802173,-0.161842 0.06069,-0.01145 0.05795,-0.03731 0.68092106,-0.453652 0.02647,-0.03955 0.171694,-0.258207 0.284445,-0.42777 0.01048,-0.02173 0.160319,-0.802481 0.0068,-0.03441 0.0037,-0.01861 -2.2e-5,-1.1e-4 -0.159551,-0.801302 -0.01214,-0.06094 -0.45833,-0.689712 -0.03387,-0.05058 -6.31e-4,-9.41e-4 -0.67995906,-0.454784 m -68.31540254,4.163532 0.06069,-0.01144 0.05796,-0.03731 0.678269,-0.453653 0.198372,-0.297754 0.255279,-0.383166 0.03677,-0.06102 0.132217,-0.655365 0.03075,-0.15243 0.0068,-0.03441 0.0037,-0.01861 -0.159576,-0.801413 -0.01214,-0.06094 -0.458336,-0.689711 -0.03387,-0.05058 -6.25e-4,-9.42e-4 -0.679962,-0.454784 -0.05152,-0.0345 -0.811165,-0.163119 -0.06094,-0.01214 -0.06094,0.01214 -0.811081,0.163102 -8.4e-5,1.7e-5 -0.05152,0.0345 -0.509376,0.340691 -0.17058,0.114093 -0.006,0.0088 -0.0276,0.04116 -0.26231,0.393733 -0.19047,0.285888 -0.002,0.0024 -0.0133,0.07122 -0.16327,0.804907 0.008,0.03914 0.16001,0.79658 0.005,0.02386 3e-5,3.3e-5 0.0226,0.03378 0.27065,0.407029 0.18161,0.273121 0.0154,0.02307 0.06,0.04087 0.674459,0.451104 0.0273,0.0054 0.801476,0.161171 0.01566,0.0026 0.02869,0.0047 0.804817,-0.161842 m 133.326393,-2.086553 0.0068,0.03441 0.162971,0.807795 0.01743,0.03213 0.274529,0.41206 0.17849,0.267903 0.0206,0.03073 0.04854,0.03238 0.683792,0.454688 0.02808,0.009 0.796204,0.159066 0.03892,0.0077 0.01064,-0.0014 0.03928,-0.0053 0.798851,-0.161171 0.02864,-0.0057 0.03032,-0.02031 0.533257,-0.355271 0.141449,-0.09424 0.03072,-0.02189 0.01538,-0.02297 0.181678,-0.273224 0.270645,-0.407021 0.02264,-0.03382 6.8e-5,-3.23e-4 0.0047,-0.02353 0.160018,-0.79658 0.0081,-0.04208 -8.4e-5,-3.88e-4 -0.163292,-0.805021 -0.01283,-0.06673 -0.202065,-0.303291 -0.252456,-0.378929 -0.02817,-0.04201 -0.0059,-0.0088 -0.170578,-0.114093 -0.509377,-0.340691 -0.05152,-0.0345 -8.4e-5,-1.7e-5 -0.811081,-0.163102 -0.06094,-0.01214 -0.06094,0.01214 -0.811165,0.163119 -0.05152,0.0345 -0.679962,0.454784 -6.25e-4,9.42e-4 -0.03387,0.05058 -0.458336,0.689711 -0.01214,0.06094 -0.159553,0.801302 -2.3e-5,1.1e-4 0.0037,0.01861 z"
             style="fill:#ffffff;fill-opacity:1;stroke:#000000;stroke-width:0.42333332;stroke-miterlimit:4;stroke-dasharray:none;stroke-opacity:1"
             inkscape:connector-curvature="0" />
        </g>
        <g
           style="fill:#ffffff;fill-opacity:1"
           id="layer13"
           inkscape:label="add 2">
          <path
             id="path13318"
             d="m 9.1704937,-11.902109 0.02797,0.0065 0.182027,0.04247 0.5159998,0.234 0.4220005,0.328 0.328,0.422 0.234,0.516 0.141,0.6090003 0.047,0.704 0,8.20099898 0,8.19899982 -0.047,0.7029999 -0.141,0.610999 -0.234,0.514001 -0.328,0.422001 -0.4220005,0.3280003 -0.5156668,0.2358467 -3.33e-4,1.52e-4 -3.34e-4,0 -0.214607,0.04906 -0.394059,0.08994 -0.703,0.047 -0.159,0 -1.339,0 -0.002,0 -6.85099907,0 -6.84999893,0 -0.003,0 -1.339,0 -0.158,0 -0.703,-0.047 -0.6099998,-0.139001 -0.5150009,-0.2359987 -0.422,-0.3280003 -0.328,-0.422001 -0.234999,-0.514001 -0.140001,-0.610999 -0.047,-0.7029999 0,-8.19899982 0,-8.20099898 0.047,-0.704 0.140001,-0.6090003 0.234999,-0.516 0.115412,-0.148588 0.212235,-0.273059 3.53e-4,-3.53e-4 0.422,-0.328 0.5150009,-0.234 0.2099998,-0.049 0,0.02 0.46,0.205 0.547,0.735 0.254,0.577466 0.342,0.7775343 0.997,2.748 0,0.501999 0.003,0 0,5.49799998 0,3.29600002 -0.003,0 0,6.0069997 0.003,0 6.84999893,0 6.85099907,0 0.002,0 0,-6.0069997 -0.002,0 0,-3.29600002 0,-5.49799998 0.002,0 0,-0.507999 0.995,-2.742 0.344,-0.7820813 0.252,-0.572919 0.547,-0.735 0.462,-0.206 0,-0.019 m 44.5329963,0.049 0.180546,-0.04213 0.02945,-0.0069 0,0.02 0.459999,0.205 0.547001,0.735 0.596001,1.3550003 0.201721,0.555999 0.79528,2.192001 0,0.501999 0.003,0 0,5.49799998 0,3.29600002 -0.003,0 0,6.0069997 0.003,0 0.545002,0 8.192001,0 4.963996,0 0.002,0 0,-6.0069997 -0.002,0 0,-3.29600002 0,-5.49799998 0.002,0 0,-0.507999 0.995003,-2.742 0.596001,-1.3550003 0.546997,-0.735 0.461998,-0.206 0,-0.019 0.02798,0.0065 0.182022,0.04247 0.516006,0.234 0.421997,0.328 0.328003,0.422 0.233994,0.516 0.141006,0.6090003 0.047,0.704 0,8.20099898 0,8.19899982 -0.047,0.7029999 -0.141006,0.610999 -0.233994,0.514001 -0.328003,0.422001 -0.421997,0.3280003 -0.515671,0.2358467 -3.35e-4,1.52e-4 -3.28e-4,0 -0.214608,0.04906 -0.394058,0.08994 -0.703003,0.047 -1.498001,0 -4.965995,0 -8.192001,0 -2.045001,0 -0.702999,-0.047 L 53.70349,10.173798 53.188491,9.9377993 52.76649,9.609799 52.438491,9.187798 52.20349,8.673797 52.15537,8.463798 l -0.09188,-0.401 -0.047,-0.7029999 0,-4.9029998 0,-3.29600002 0,-8.19199998 0,-0.009 0.047,-0.703999 0.139999,-0.6090003 0.235001,-0.516 0.11541,-0.148588 0.212238,-0.273059 3.51e-4,-3.53e-4 0.422001,-0.328 0.514999,-0.234 M -75.2815,7.3597979 l 0,-8.19899962 0,-8.19199998 0,-0.009 0.047,-0.703999 0.14001,-0.6090003 0.23499,-0.516 0.11542,-0.148588 0.21224,-0.273059 3.5e-4,-3.53e-4 0.42199,-0.328 0.51501,-0.234 0.21,-0.049 0,0.02 0.46,0.205 0.547,0.735 0.596,1.3549993 0.20172,0.556 0.79528,2.192 0,0.502 0.003,0 0,5.49799998 0,3.29599902 -0.003,0 0,6.0070007 0.003,0 4.96299,0 8.192001,0 0.546002,0 0.002,0 0,-6.0070007 -0.002,0 0,-3.29599902 0,-5.49799998 0.002,0 0,-0.508 0.793244,-2.186 0.201759,-0.556 0.595997,-1.3549993 0.547001,-0.735 0.462001,-0.206 0,-0.019 0.02797,0.0065 0.182026,0.04247 0.515998,0.234 0.422001,0.328 0.327999,0.422 0.234001,0.516 0.140999,0.6090003 0.047,0.703999 0,0.009 0,8.19199998 0,8.19899962 -0.047,0.7030001 -0.140999,0.610999 -0.234001,0.514001 -0.327999,0.422001 -0.422001,0.3280003 -0.515998,0.2359987 -3.32e-4,0 -0.214611,0.04906 -0.394059,0.08994 -0.702999,0.047 -2.046001,0 -8.191999,0 -6.46299,0 -0.70301,-0.047 -0.60999,-0.139001 -0.51501,-0.2359987 -0.42199,-0.3280003 -0.32801,-0.422001 -0.23499,-0.514001 -0.0481,-0.209999 -0.0919,-0.401 -0.047,-0.7030001 z"
             style="fill:#ffffff;fill-opacity:1;stroke:#000000;stroke-width:0.42333332;stroke-miterlimit:4;stroke-dasharray:none;stroke-opacity:1"
             inkscape:connector-curvature="0" />
        </g>
        <g
           style="fill:#ffffff;fill-opacity:1"
           id="layer14"
           inkscape:label="white out">
          <ellipse
             style="fill:#ffffff;fill-opacity:1;stroke:#ffffff;stroke-width:1.5;stroke-miterlimit:4;stroke-dasharray:none;stroke-dashoffset:0;stroke-opacity:1"
             id="path13841"
             transform="matrix(0.26246353,0,0,0.24227403,-70.567773,-11.724638)"
             cx="267.79251"
             cy="22.513332"
             rx="5.9953547"
             ry="6.4949675" />
          <ellipse
             transform="matrix(0.26246353,0,0,0.24227403,-138.81268,-11.724637)"
             id="path13843"
             style="fill:#ffffff;fill-opacity:1;stroke:#ffffff;stroke-width:1.5;stroke-miterlimit:4;stroke-dasharray:none;stroke-dashoffset:0;stroke-opacity:1"
             cx="267.79251"
             cy="22.513332"
             rx="5.9953547"
             ry="6.4949675" />
          <ellipse
             transform="matrix(0.26246353,0,0,0.24227403,-2.3228734,-11.724639)"
             id="path13845"
             style="fill:#ffffff;fill-opacity:1;stroke:#ffffff;stroke-width:1.5;stroke-miterlimit:4;stroke-dasharray:none;stroke-dashoffset:0;stroke-opacity:1"
             cx="267.79251"
             cy="22.513332"
             rx="5.9953547"
             ry="6.4949675" />
        </g>
      </g>
    </g>
  </g>
</svg>
