<?xml version="1.0" encoding="UTF-8" standalone="no"?>
<svg
   xmlns:dc="http://purl.org/dc/elements/1.1/"
   xmlns:cc="http://creativecommons.org/ns#"
   xmlns:rdf="http://www.w3.org/1999/02/22-rdf-syntax-ns#"
   xmlns:svg="http://www.w3.org/2000/svg"
   xmlns="http://www.w3.org/2000/svg"
   xmlns:sodipodi="http://sodipodi.sourceforge.net/DTD/sodipodi-0.dtd"
   xmlns:inkscape="http://www.inkscape.org/namespaces/inkscape"
   width="423.24045"
   height="80.971123"
   viewBox="-55.921429 -8.5 119.44787 22.85185"
   version="1.1"
   id="svg5655"
   inkscape:version="0.47 r22583"
   sodipodi:docname="MUP Integrated-Panel-top.svg">
  <metadata
     id="metadata5667">
    <rdf:RDF>
      <cc:Work
         rdf:about="">
        <dc:format>image/svg+xml</dc:format>
        <dc:type
           rdf:resource="http://purl.org/dc/dcmitype/StillImage" />
        <dc:title>svgOutput</dc:title>
      </cc:Work>
    </rdf:RDF>
  </metadata>
  <defs
     id="defs5665">
    <inkscape:perspective
       sodipodi:type="inkscape:persp3d"
       inkscape:vp_x="0 : 30.118111 : 1"
       inkscape:vp_y="0 : 1000 : 0"
       inkscape:vp_z="396.29358 : 30.118111 : 1"
       inkscape:persp3d-origin="198.14679 : 20.07874 : 1"
       id="perspective5669" />
    <inkscape:perspective
       id="perspective5719"
       inkscape:persp3d-origin="0.5 : 0.33333333 : 1"
       inkscape:vp_z="1 : 0.5 : 1"
       inkscape:vp_y="0 : 1000 : 0"
       inkscape:vp_x="0 : 0.5 : 1"
       sodipodi:type="inkscape:persp3d" />
    <clipPath
       clipPathUnits="userSpaceOnUse"
       id="clipPath8827">
      <rect
         style="fill:#ffffff;fill-opacity:1;stroke:#000000;stroke-width:1.5;stroke-miterlimit:4;stroke-opacity:1;stroke-dasharray:none;stroke-dashoffset:0"
         id="rect8829"
         width="47.142857"
         height="31.428572"
         x="464.28571"
         y="550.2193" />
    </clipPath>
    <inkscape:perspective
       id="perspective7125"
       inkscape:persp3d-origin="0.5 : 0.33333333 : 1"
       inkscape:vp_z="1 : 0.5 : 1"
       inkscape:vp_y="0 : 1000 : 0"
       inkscape:vp_x="0 : 0.5 : 1"
       sodipodi:type="inkscape:persp3d" />
    <inkscape:perspective
       id="perspective8347"
       inkscape:persp3d-origin="0.5 : 0.33333333 : 1"
       inkscape:vp_z="1 : 0.5 : 1"
       inkscape:vp_y="0 : 1000 : 0"
       inkscape:vp_x="0 : 0.5 : 1"
       sodipodi:type="inkscape:persp3d" />
    <inkscape:perspective
       id="perspective8372"
       inkscape:persp3d-origin="0.5 : 0.33333333 : 1"
       inkscape:vp_z="1 : 0.5 : 1"
       inkscape:vp_y="0 : 1000 : 0"
       inkscape:vp_x="0 : 0.5 : 1"
       sodipodi:type="inkscape:persp3d" />
  </defs>
  <sodipodi:namedview
     pagecolor="#ffffff"
     bordercolor="#666666"
     borderopacity="1"
     objecttolerance="10"
     gridtolerance="10"
     guidetolerance="10"
     inkscape:pageopacity="0"
     inkscape:pageshadow="2"
     inkscape:window-width="886"
     inkscape:window-height="683"
     id="namedview5663"
     showgrid="false"
     inkscape:zoom="0.68005139"
     inkscape:cx="179.27459"
     inkscape:cy="65.473426"
     inkscape:window-x="0"
     inkscape:window-y="0"
     inkscape:window-maximized="0"
     inkscape:current-layer="layer9" />
  <title
     id="title5657">svgOutput</title>
  <desc
     id="desc5659">made with tinkercad</desc>
  <g
     inkscape:groupmode="layer"
     id="layer7"
     inkscape:label="sliders"
     transform="translate(0.80779291,-2.363291)">
    <rect
       style="fill:#ffffff;fill-opacity:1;stroke:#000000;stroke-width:0.42333335;stroke-miterlimit:4;stroke-opacity:1;stroke-dasharray:none;stroke-dashoffset:0"
       id="rect7140"
       width="119.02453"
       height="10.594662"
       x="-56.517555"
       y="-10.579981"
       transform="scale(1,-1)" />
  </g>
  <path
     sodipodi:type="arc"
     style="fill:#ffffff;fill-opacity:1;stroke:#ffffff;stroke-width:1.5;stroke-miterlimit:4;stroke-opacity:1;stroke-dasharray:none;stroke-dashoffset:0"
     id="path7467"
     sodipodi:cx="133.86082"
     sodipodi:cy="13.894431"
     sodipodi:rx="1.5716176"
     sodipodi:ry="1.5716176"
     d="m 135.43244,13.894431 a 1.5716176,1.5716176 0 1 1 -3.14323,0 1.5716176,1.5716176 0 1 1 3.14323,0 z"
     transform="matrix(0.28222223,0,0,-0.28222223,-59.125741,11.556096)" />
  <path
     transform="matrix(0.28222223,0,0,-0.28222223,-38.202724,11.556096)"
     d="m 135.43244,13.894431 a 1.5716176,1.5716176 0 1 1 -3.14323,0 1.5716176,1.5716176 0 1 1 3.14323,0 z"
     sodipodi:ry="1.5716176"
     sodipodi:rx="1.5716176"
     sodipodi:cy="13.894431"
     sodipodi:cx="133.86082"
     id="path7469"
     style="fill:#ffffff;fill-opacity:1;stroke:#ffffff;stroke-width:1.5;stroke-miterlimit:4;stroke-opacity:1;stroke-dasharray:none;stroke-dashoffset:0"
     sodipodi:type="arc" />
  <path
     sodipodi:type="arc"
     style="fill:#ffffff;fill-opacity:1;stroke:#ffffff;stroke-width:1.5;stroke-miterlimit:4;stroke-opacity:1;stroke-dasharray:none;stroke-dashoffset:0"
     id="path7471"
     sodipodi:cx="133.86082"
     sodipodi:cy="13.894431"
     sodipodi:rx="1.5716176"
     sodipodi:ry="1.5716176"
     d="m 135.43244,13.894431 a 1.5716176,1.5716176 0 1 1 -3.14323,0 1.5716176,1.5716176 0 1 1 3.14323,0 z"
     transform="matrix(0.28222223,0,0,-0.28222223,-16.715261,11.556096)" />
  <g
     inkscape:groupmode="layer"
     id="layer8"
     inkscape:label="main"
     transform="translate(0.80779291,-2.363291)">
    <path
       d="m 28.708108,5.1158312 -0.346986,0.1811598 -0.215254,0.029281 -0.11349,0 -0.215257,-0.029281 -0.05278,-0.021906 -0.545262,-0.4882794 -0.04527,-0.03484 -0.01391,-0.018155 -0.02094,-0.027325 -0.04195,-0.5318054 -0.02565,-0.1383172 0.01281,-0.024548 0.136753,-0.2619319 0.02565,-0.081154 0.08011,-0.08032 0.337126,-0.2603633 0.315758,-0.069641 0.109528,-0.029416 0.01191,0.00262 0.303058,0.067008 0.109528,0.029416 0.337919,0.260363 0.06627,0.066444 0.01383,0.013877 0.02565,0.081154 0.163813,0.3941056 -0.0038,0.085536 -0.05619,0.4241778 -0.258781,0.3387096 -0.07928,0.1155769 -0.01501,0.00784 m -80.567367,-10.9848342 0,15.0000007 22.153427,0 1.387076,0 4.488508,0 0.239347,0 26.653069,0 25.405983,0 7.362018,0 22.153427,0 0,-15.0000007 -22.153427,0 -19.253112,0 -13.514889,0 -17.99065,0 -5.565752,0 -4.593555,0 -4.618043,0 -22.153427,0 m 29.523375,9.1907461 0.09805,-0.056745 0.166398,-0.022022 0.105602,-0.013976 0.314968,0.069641 0.05674,0.00751 0.07531,0.039221 0.337919,0.260363 0.05758,0.063004 0.163819,0.3941056 0.02565,0.081154 -0.01425,0.3244645 -0.01482,0.1118221 -0.215254,0.3727385 -0.04569,0.071975 -0.470002,0.2719998 -0.05674,0.00772 -0.394739,0 -0.03577,0 -0.05675,-0.00772 -0.286478,-0.1495702 -0.05278,-0.021906 -0.08011,-0.08032 -0.259571,-0.3387092 -0.02942,-0.1097359 -0.06964,-0.3157593 0.01834,-0.083449 0.111585,-0.4162642 0.217628,-0.238996 0.0459,-0.071766 0.03691,-0.019166 0.249572,-0.1296123 z"
       id="path5661"
       style="fill:#ffffff;fill-opacity:1;stroke:#000000;stroke-width:0.42333335;stroke-miterlimit:4;stroke-opacity:1;stroke-dasharray:none" />
  </g>
  <g
     inkscape:groupmode="layer"
     id="layer9"
     inkscape:label="white"
     transform="translate(0.80779291,-2.363291)">
    <rect
       style="fill:#ffffff;fill-opacity:1;stroke:#000000;stroke-width:0.42333335;stroke-miterlimit:4;stroke-opacity:1;stroke-dasharray:none;stroke-dashoffset:0"
       id="rect8390"
       width="109.90011"
       height="10.273745"
       x="-51.887985"
       y="5.9479866" />
    <rect
       style="fill:#ffffff;fill-opacity:1;stroke:#ffffff;stroke-width:0.42358696;stroke-miterlimit:4;stroke-opacity:1;stroke-dasharray:none;stroke-dashoffset:0"
       id="rect8392"
       width="108.97875"
       height="1.7226822"
       x="-51.427307"
       y="5.6750393" />
  </g>
  <g
     inkscape:groupmode="layer"
     id="layer6"
     inkscape:label="cold shoes"
     transform="translate(0.80779291,-2.363291)">
    <path
       style="fill:#ffffff;fill-opacity:1;stroke:#000000;stroke-width:0.42333335;stroke-miterlimit:4;stroke-opacity:1;stroke-dasharray:none"
       d="m 14.040174,-3.3594299 0.02692,0.478815 0.004,0.07156 0,8.12044 0,4.096001 0,4.0959989 -0.047,0.703001 -0.140002,0.608999 -0.234998,0.516 -0.328001,0.422 -0.421999,0.328 -0.515002,0.234 -0.173389,0.04046 -0.03661,0.0085 -0.06973,0.01612 -0.330264,0.07596 -0.098,0.0066 -0.605,0.04045 -3.4909992,0 -3.531153,0 0,-11.1919989 0,-2.31 -2.654978,0 0,2.31 0,11.1919989 -2.00586895,0 -4.09600105,0 -0.9210013,0 -0.702999,-0.047 -0.329444,-0.07596 -0.06956,-0.0161 -0.03661,-0.0085 -0.173372,-0.04053 -0.516001,-0.234 -0.421995,-0.328 -0.328005,-0.422 -0.233999,-0.516001 -0.141001,-0.608999 -0.047,-0.703 0,-4.0959999 0,-4.096 0,-8.12044 0.0048,-0.07156 0.01126,-0.168623 0.03094,-0.550377 0.0082,-0.03563 0.132763,-0.574369 0.234002,-0.515 0.327998,-0.422 0.422002,-0.328 0.515998,-0.235 0.184999,-0.04253 0.424003,-0.09747 0.702998,-0.047 0.9210013,0 4.09599905,0 4.09600095,0 4.095999,0 3.4910012,0 0.605,0.04045 0.098,0.0066 0.610001,0.140001 0.514999,0.234999 0.422001,0.328001 0.327999,0.421999 0.075,0.164362 0.16,0.350638 0.139999,0.61 0.01606,0.240184 m 19.176939,-2.490234 0.702999,-0.047 0.284003,0 2.047993,0 4.096002,0 3.249848,0 4.942154,0 2.048003,0 0.031,0 0.702999,0.047 0.61,0.14 0.514999,0.235 0.189002,0.146902 0.233,0.181098 0.327998,0.422 0.235001,0.515 0.131736,0.574009 0.0083,0.03599 0.03094,0.550377 0.01126,0.168623 0.0048,0.07156 0,8.12044 0,4.096001 0,4.0959989 -0.047,0.703002 -0.140053,0.608997 -0.235,0.516001 -0.327996,0.422 -0.232997,0.181099 -0.189007,0.146901 -0.514999,0.234 -0.173386,0.04046 -0.03661,0.0085 -0.06973,0.01612 -0.330268,0.07596 -0.702998,0.047 -2.078999,0 -4.942154,0 0,-11.1919989 0,-2.31 -2.654978,0 0,2.31 0,11.1919989 -0.594871,0 -6.427998,0 -0.703001,-0.047 -0.329444,-0.07596 -0.106163,-0.02458 -0.173395,-0.0405 -0.451998,-0.204976 -0.064,-0.02902 -0.421996,-0.327997 -0.328001,-0.421999 -0.233999,-0.516001 -0.141001,-0.608999 -0.047,-0.703 0,-16.2669999 0,-0.04544 0.01606,-0.240183 0.03094,-0.550377 0.141001,-0.609998 0.233999,-0.515 0.328002,-0.422 0.421998,-0.328 0.064,-0.02915 0.451998,-0.205853 0.212,-0.04874 0.396999,-0.09126 m -68.617141,22.3529849 0,-11.1919989 0,-2.31 -2.65498,0 0,2.31 0,11.1919989 -3.516869,0 -3.506,0 -0.59,-0.03945 -0.113,-0.0076 -0.32944,-0.07596 -0.0696,-0.0161 -0.0366,-0.0085 -0.17339,-0.04039 -0.515,-0.234 -0.422,-0.328 -0.328,-0.422 -0.234,-0.516 -0.141,-0.609 -0.047,-0.703 0,-4.0959989 0,-4.096 0,-8.12044 0.005,-0.07156 0.0113,-0.168623 0.0309,-0.550377 0.141,-0.609999 0.234,-0.515 0.328,-0.422001 0.422,-0.328 0.515,-0.235 0.609,-0.14 0.113,-0.0076 0.59,-0.03945 3.506,0 3.51687,0 4.67513,0 4.096001,0 0.906,0 0.702999,0.047 0.439,0.100754 0.171003,0.03925 0.514998,0.235 0.421999,0.328 0.328001,0.422001 0.235001,0.515 0.14,0.609999 0.01606,0.240184 0.02692,0.478816 0.004,0.07156 0,8.12044 0,4.096 0,4.0959989 -0.047,0.703001 -0.139998,0.608999 -0.234992,0.516046 -0.328001,0.422 -0.421999,0.328 -0.514999,0.234 -0.173391,0.04046 -0.106343,0.02458 -0.330267,0.07596 -0.703001,0.047 -0.906,0 -4.096001,0 -2.02015,0 m 40.0894788,-19.1153639 0.01468,-0.03963 0.01518,-0.229001 0.02182,-0.328999 -0.192137,-0.735905 -0.0073,-0.03694 -0.003,-0.0061 -0.002,-0.004 -0.01177,-0.02375 -0.04979,-0.08639 -0.313546,-0.411829 -0.146502,-0.167147 -0.234704,-0.148511 -0.276832,-0.18515 -0.0036,-0.0024 -0.0057,-0.0016 -0.01016,-0.0028 -0.429799,-0.118063 -0.214876,-0.05746 -0.222969,0 -0.373871,0.01369 -0.0049,0 -8.47e-4,2.06e-4 -0.212965,0.05695 -0.0011,3.05e-4 -0.0077,0.004 -0.59296,0.292311 -0.09995,0.04937 -0.03439,0.0263 -0.142449,0.109366 -0.31294495,0.411834 -0.160398,0.2267 -0.0033,0.0066 -5.65e-4,0.0013 -0.0034,0.01009 -0.0082,0.02429 -0.158558,0.476613 -0.036,0.557999 0.0097,0.049 0.09194,0.463058 0.01453,0.05437 0.389873,0.676212 0.02094,0.03137 0.39266995,0.34417 0.0362,0.03008 0.65849,0.277013 0.03486,0.0144 0.03476,0.0046 0.0028,3.67e-4 0.01885,-0.0013 1.095931,-0.04664 0.03647,-0.0098 0.184054,-0.122966 0.675905,-0.451582 0.01696,-0.0083 0.0228,-0.01676 0.03169,-0.04071 0.255211,-0.381175 0.0358,-0.05347 0.166957,-0.494334 z"
       id="path6499" />
    <path
       style="fill:#ffffff;fill-opacity:1;stroke:#000000;stroke-width:0.42333335;stroke-miterlimit:4;stroke-opacity:1;stroke-dasharray:none"
       d="m -29.882906,10.773008 0,-5.4899999 0,-3.304999 0.003,0 0,-6.005002 -0.003,0 -3.502003,0 -10.197999,0 -0.003,0 0,6.005002 0.003,0 0,3.304999 0,5.4899999 -0.002,0 0,0.505 -0.79745,2.197 -0.19855,0.547 -0.596,1.355 -0.547,0.735 -0.461,0.204999 0,0.019 -0.028,-0.0065 -0.18197,-0.0425 -0.515,-0.233999 -0.422,-0.328 -0.328,-0.422 -0.234,-0.516001 -0.141,-0.608999 -0.047,-0.703 0,-2.702 0,-5.4899999 0,-3.305 0,-4.770001 0,-0.118819 0.042,-0.628045 0.005,-0.08913 0.141,-0.61 0.234,-0.515 0.328,-0.422 0.422,-0.328 0.515,-0.235 0.609,-0.14 0.703,-0.047 1.497,0 0.003,0 10.197999,0 3.501998,0 0.003,0 1.497,0 0.703,0.047 0.610001,0.14 0.515,0.235 0.421999,0.328 0.328001,0.422 0.235,0.515 0.14,0.61 0.04199,0.628046 0.005,0.08913 0,4.88882 0,3.304999 0,5.4899999 0,2.702 -0.047,0.703 -0.139998,0.609 -0.234978,0.516 -0.328003,0.422 -0.421999,0.328 -0.514998,0.233999 -0.210001,0.049 0,-0.019 -0.459998,-0.204999 -0.546004,-0.735 -0.596999,-1.355 -0.198384,-0.547 -0.798615,-2.202 0,-0.5 -0.003,0 m 60.798001,-13.6838199 0.04199,-0.628046 0.005,-0.08913 0.140998,-0.61 0.23401,-0.515001 0.328002,-0.422 0.421998,-0.328 0.064,-0.02915 0.451999,-0.205853 0.608999,-0.14 0.703001,-0.047 1.5,0 13.119998,0 0.579001,0 0.003,0 1.497,0 0.702998,0.047 0.610001,0.14 0.514999,0.235 0.422002,0.328 0.327998,0.422 0.235001,0.515 0.138659,0.604172 0.0011,0.0058 0.005,0.08913 0.042,0.628047 0,4.888819 0,3.305 0,5.4899999 0,2.702 -0.047,0.703 -0.139991,0.608999 -0.235009,0.516001 -0.328002,0.422 -0.421998,0.328 -0.515002,0.234 -0.182008,0.04247 -0.028,0.0065 0,-0.019 -0.46,-0.205 -0.54601,-0.734999 -0.59701,-1.355 -0.19838,-0.546999 -0.798609,-2.202 0,-0.5 -0.003,0 0,-5.4899999 0,-3.305 0.003,0 0,-6.005001 -0.003,0 -0.578999,0 -13.120001,0 -0.003,0 0,6.005001 0.003,0 0,3.305 0,5.4899999 -0.002,0 0,0.505 -0.995957,2.744032 -0.595999,1.354999 -0.547001,0.735 -0.460999,0.205 0,0.019 -0.02802,-0.0065 -0.18198,-0.0425 -0.451999,-0.204975 -0.064,-0.02902 -0.422001,-0.328 -0.327999,-0.422 -0.233999,-0.516 -0.141001,-0.609 -0.047,-0.703 0,-16.2670009 0,-0.118819 M 9.5689748,11.272984 l 0,-0.5 -0.003,0 0,-5.4899999 0,-3.305 0.003,0 0,-6.005002 -0.003,0 -1.991001,0 -3.041882,0 -0.0031,0 -0.0097,-0.01685 -0.486565,-0.639083 -0.02374,-0.02707 -0.03801,-0.02405 -0.434524,-0.290618 -5.64e-4,-3.95e-4 -8.47e-4,-2.62e-4 -0.04293,-0.01179 -0.647644,-0.177904 -0.0348,-0.0093 -0.03611,0 -0.586841,0.02149 -8.47e-4,0 -1.27e-4,3.3e-5 -0.03449,0.0092 -1.83e-4,4.9e-5 -0.0011,6.55e-4 -0.930727,0.458822 -0.01617,0.008 -0.0056,0.0043 -0.02306,0.01771 -0.48563095,0.639083 -0.02596,0.03671 -5.64e-4,0.0013 -2.68e-4,0 -0.36939,0 -0.0036,0 -0.501153,0 -0.0028,0 -0.40281,0 -3.51700305,0 -0.003,0 0,6.005001 0.003,0 0,3.305 0,5.4899999 -0.002,0 0,0.505 -0.79745,2.196969 -0.1985493,0.547 -0.596,1.355 -0.547,0.735 -0.460996,0.204999 0,0.019 -0.02803,-0.0065 -0.181977,-0.0425 -0.515998,-0.233999 -0.422001,-0.328 -0.327999,-0.422001 -0.234002,-0.516001 -0.140998,-0.608999 -0.047,-0.703 0,-2.701999 0,-5.4899999 0,-3.305001 0,-4.888819 0.04199,-0.628046 0.005,-0.08913 0.0014,-0.0058 0.139666,-0.60423 0.233999,-0.514999 0.327999,-0.422 0.422001,-0.328 0.516001,-0.235 0.608999,-0.14 0.702999,-0.047 1.4970023,0 0.003,0 3.51700005,0 2.70683495,0 0.101473,0 0.89677,0 4.486922,0 1.990998,0 0.003,0 1.4970002,0 0.703002,0.047 0.609998,0.14 0.515002,0.235 0.422001,0.328 0.327999,0.422 0.234998,0.514999 0.140002,0.61 0.04199,0.628048 0.005,0.08913 0,4.888817 0,3.305001 0,5.4899999 0,2.701999 -0.047,0.703001 -0.139969,0.608997 -0.234998,0.516 -0.327998,0.422001 -0.422002,0.328001 -0.515001,0.233998 -0.18202,0.04247 -0.02797,0.0065 0,-0.019 -0.459999,-0.204998 -0.545988,-0.734971 -0.597001,-1.355 -0.198383,-0.547 -0.7986152,-2.202 z"
       id="path6425" />
    <rect
       style="fill:#ffffff;fill-opacity:1;stroke:#ffffff;stroke-width:0.42333335;stroke-miterlimit:4;stroke-opacity:1;stroke-dasharray:none;stroke-dashoffset:0"
       id="rect8394"
       width="5.1353793"
       height="4.5484791"
       x="0.12757021"
       y="-5.4217181" />
    <path
       style="fill:none;stroke:#000000;stroke-width:0.42333335;stroke-linecap:butt;stroke-linejoin:miter;stroke-miterlimit:4;stroke-opacity:1;stroke-dasharray:none"
       d="m -0.38596718,-4.0278292 6.08909138,0"
       id="path8396" />
  </g>
</svg>
