<?xml version="1.0" encoding="UTF-8" standalone="no"?>
<!-- Created with Inkscape (http://www.inkscape.org/) -->

<svg
   xmlns:dc="http://purl.org/dc/elements/1.1/"
   xmlns:cc="http://creativecommons.org/ns#"
   xmlns:rdf="http://www.w3.org/1999/02/22-rdf-syntax-ns#"
   xmlns:svg="http://www.w3.org/2000/svg"
   xmlns="http://www.w3.org/2000/svg"
   xmlns:xlink="http://www.w3.org/1999/xlink"
   xmlns:sodipodi="http://sodipodi.sourceforge.net/DTD/sodipodi-0.dtd"
   xmlns:inkscape="http://www.inkscape.org/namespaces/inkscape"
   width="507.3078"
   height="50.762394"
   id="svg2"
   version="1.1"
   inkscape:version="0.91 r13725"
   sodipodi:docname="Lens Mounting Plate-top.svg"
   style="display:inline">
  <defs
     id="defs4">
    <inkscape:perspective
       sodipodi:type="inkscape:persp3d"
       inkscape:vp_x="0 : 526.18109 : 1"
       inkscape:vp_y="0 : 1000 : 0"
       inkscape:vp_z="744.09448 : 526.18109 : 1"
       inkscape:persp3d-origin="372.04724 : 350.78739 : 1"
       id="perspective10" />
    <inkscape:perspective
       id="perspective2884"
       inkscape:persp3d-origin="0.5 : 0.33333333 : 1"
       inkscape:vp_z="1 : 0.5 : 1"
       inkscape:vp_y="0 : 1000 : 0"
       inkscape:vp_x="0 : 0.5 : 1"
       sodipodi:type="inkscape:persp3d" />
  </defs>
  <sodipodi:namedview
     id="base"
     pagecolor="#ffffff"
     bordercolor="#666666"
     borderopacity="1.0"
     inkscape:pageopacity="0.0"
     inkscape:pageshadow="2"
     inkscape:zoom="0.49497475"
     inkscape:cx="-167.03091"
     inkscape:cy="-60.391604"
     inkscape:document-units="px"
     inkscape:current-layer="layer3"
     showgrid="false"
     inkscape:window-width="1526"
     inkscape:window-height="952"
     inkscape:window-x="120"
     inkscape:window-y="0"
     inkscape:window-maximized="0"
     fit-margin-top="0"
     fit-margin-left="0"
     fit-margin-right="0"
     fit-margin-bottom="0" />
  <metadata
     id="metadata7">
    <rdf:RDF>
      <cc:Work
         rdf:about="">
        <dc:format>image/svg+xml</dc:format>
        <dc:type
           rdf:resource="http://purl.org/dc/dcmitype/StillImage" />
        <dc:title></dc:title>
      </cc:Work>
    </rdf:RDF>
  </metadata>
  <g
     inkscape:label="img"
     inkscape:groupmode="layer"
     id="layer1"
     style="display:none"
     transform="translate(-104.08071,-548.05121)">
    <image
       y="12.362191"
       x="-265.71439"
       id="image2886"
       height="1057.1428"
       width="1691.4286"
       xlink:href="file:///Users/kamikun/Desktop/Screen%20Shot%202017-05-17%20at%209.59.35%20PM.png" />
    <image
       xlink:href="file:///Users/kamikun/Desktop/Screen%20Shot%202017-05-17%20at%209.59.35%20PM.png"
       width="1691.4286"
       height="1057.1428"
       id="image3619"
       x="-265.71439"
       y="12.362191" />
  </g>
  <g
     inkscape:groupmode="layer"
     id="layer2"
     inkscape:label="trace"
     transform="translate(-104.08071,-548.05121)" />
  <g
     inkscape:groupmode="layer"
     id="layer3"
     inkscape:label="ridge"
     transform="translate(-104.08071,-548.05121)">
    <g
       id="g4172"
       transform="matrix(-1,0,0,-1,715.46921,1146.8648)">
      <rect
         ry="1.0714285"
         y="576.60114"
         x="104.8307"
         height="21.348749"
         width="505.8078"
         id="rect2891"
         style="display:inline;fill:#ffffff;fill-opacity:0;stroke:#000000;stroke-width:1.5;stroke-miterlimit:4;stroke-dasharray:none;stroke-dashoffset:0;stroke-opacity:1" />
      <path
         sodipodi:nodetypes="ccccc"
         id="path2893"
         d="m 146.29355,565.72119 c -0.97263,-5.08183 2.32069,-3.88474 2.4641,-6.10423 1.57898,-2.36665 8.65779,-2.51944 12.36168,-3.23967 36.10765,-3.7251 72.83259,-4.98107 109.60155,-6.06092 l 84.34774,-1.51523"
         style="display:inline;fill:none;stroke:#000000;stroke-width:1.5;stroke-linecap:butt;stroke-linejoin:miter;stroke-miterlimit:4;stroke-dasharray:none;stroke-opacity:1"
         inkscape:connector-curvature="0" />
      <path
         style="display:inline;fill:none;stroke:#000000;stroke-width:1.5;stroke-linecap:butt;stroke-linejoin:miter;stroke-miterlimit:4;stroke-dasharray:none;stroke-opacity:1"
         d="m 569.54327,564.20595 c 1.75948,-1.69568 1.22933,-3.01248 0.56636,-3.83138 -2.7154,-2.49292 -3.7333,-3.65587 -8.69987,-4.50236 -22.21806,-3.34629 -85.77518,-6.1175 -122.79667,-5.93466 l -84.28461,-1.13642"
         id="path3669"
         sodipodi:nodetypes="ccccc"
         inkscape:connector-curvature="0" />
      <path
         sodipodi:nodetypes="ccccc"
         id="path3671"
         d="m 145.80357,566.0229 c 4.22859,-2.39782 17.23413,-4.71503 38.125,-6.16072 29.371,-0.99955 41.36916,-1.20942 61.42857,-1.78571 l 61.78572,-1.42857 45,-0.71429"
         style="display:inline;fill:none;stroke:#000000;stroke-width:1.5;stroke-linecap:butt;stroke-linejoin:miter;stroke-miterlimit:4;stroke-dasharray:none;stroke-opacity:1"
         inkscape:connector-curvature="0" />
      <path
         style="display:inline;fill:none;stroke:#000000;stroke-width:1.5;stroke-linecap:butt;stroke-linejoin:miter;stroke-miterlimit:4;stroke-dasharray:none;stroke-opacity:1"
         d="m 569.957,564.06124 c -5.23875,-4.29186 -26.00534,-3.88979 -46.89621,-5.33548 -29.371,-0.99955 -44.39962,-1.33569 -64.45903,-1.91198 l -61.78572,-0.16588 -45,-0.71429"
         id="path3673"
         sodipodi:nodetypes="ccccc"
         inkscape:connector-curvature="0" />
      <path
         sodipodi:nodetypes="ccccccccccc"
         id="path3675"
         d="m 147.68755,565.34559 -1.15885,2.15369 c -0.64199,0.35018 -0.79053,3.35201 1.28063,4.01786 1.22063,-1.93464 3.22707,-2.08368 5.04781,-2.33675 5.17274,-1.02908 10.12546,-1.17428 14.96302,-1.57202 12.77427,-0.92937 26.56602,-1.23718 39.14413,-1.94711 10.92262,-0.2366 21.84523,-0.47319 32.76785,-0.70979 l 23.21429,-0.71429 36.07143,-0.80357 c 24.23943,-0.81995 48.47885,-0.6815 72.71828,-0.86914 l 31.18846,0"
         style="display:inline;fill:none;stroke:#000000;stroke-width:1.5;stroke-linecap:butt;stroke-linejoin:miter;stroke-miterlimit:4;stroke-dasharray:none;stroke-opacity:1"
         inkscape:connector-curvature="0" />
      <path
         style="display:inline;fill:none;stroke:#000000;stroke-width:1.5;stroke-linecap:butt;stroke-linejoin:miter;stroke-miterlimit:4;stroke-dasharray:none;stroke-opacity:1"
         d="m 568.73384,563.3686 c 2.04452,1.70214 3.00126,4.19854 0.7621,6.04529 -1.47317,-1.05076 -3.22707,-1.57861 -5.04781,-1.83168 -5.29901,-0.65027 -10.12546,-0.92174 -14.96302,-1.31948 -12.77427,-0.92937 -26.56602,-1.23718 -39.14413,-1.94711 -10.92262,-0.2366 -21.84523,-0.47319 -32.76785,-0.70979 l -23.21429,-0.71429 -51.98133,-0.29849"
         id="path3677"
         sodipodi:nodetypes="cccccccc"
         inkscape:connector-curvature="0" />
      <path
         style="display:inline;fill:none;stroke:#000000;stroke-width:1.5;stroke-linecap:butt;stroke-linejoin:miter;stroke-miterlimit:4;stroke-dasharray:none;stroke-opacity:1"
         d="m 148.84827,570.25631 c -0.7082,2.03202 -1.20691,2.15295 -2.17798,2.57845 -0.49883,0.20702 -1.17177,2.57888 0.51404,3.50381 2.38135,-0.77392 4.11993,-1.19082 5.94067,-1.44389 5.17274,-1.02908 10.12546,-1.17428 14.96302,-1.57202 12.77427,-0.57223 26.65531,-1.14789 39.23342,-1.4114 10.92262,-0.2366 21.75594,-0.20533 32.67856,-0.44193 l 23.125,-0.44643 36.16072,-0.44643 c 24.23943,-0.37352 48.74671,-0.23507 72.71828,-0.77985 l 31.27775,-0.0893"
         id="path2832"
         sodipodi:nodetypes="ccccccccccc"
         inkscape:connector-curvature="0" />
      <path
         sodipodi:nodetypes="ccccccc"
         id="path2834"
         d="m 569.92505,569.76546 c 1.4125,1.45442 0.94005,3.57637 -2.01468,3.26056 -1.14583,0.12054 -7.12319,-0.33927 -9.51902,-0.44194 l -23.25127,-1.18237 -36.03445,-0.82524 c -24.23943,-0.37352 -48.74671,-0.23507 -72.71828,-0.77985 l -31.27775,-0.0893"
         style="display:inline;fill:none;stroke:#000000;stroke-width:1.5;stroke-linecap:butt;stroke-linejoin:miter;stroke-miterlimit:4;stroke-dasharray:none;stroke-opacity:1"
         inkscape:connector-curvature="0" />
      <path
         sodipodi:nodetypes="cc"
         id="path2836"
         d="m 569.72604,573.0448 c 1.38211,1.63062 1.10828,2.38116 -0.0631,3.53554"
         style="display:inline;fill:none;stroke:#000000;stroke-width:1.5;stroke-linecap:butt;stroke-linejoin:miter;stroke-miterlimit:4;stroke-dasharray:none;stroke-opacity:1"
         inkscape:connector-curvature="0" />
      <rect
         ry="0"
         y="576.73328"
         x="115.72569"
         height="21.301155"
         width="3.5486162"
         id="rect3613"
         style="fill:#ffffff;fill-opacity:0;stroke:#000000;stroke-width:1.5228126;stroke-miterlimit:4;stroke-dasharray:none;stroke-dashoffset:0;stroke-opacity:1" />
      <rect
         style="fill:#ffffff;fill-opacity:0;stroke:#000000;stroke-width:1.52355683;stroke-miterlimit:4;stroke-dasharray:none;stroke-dashoffset:0;stroke-opacity:1"
         id="rect3615"
         width="6.1140332"
         height="21.335934"
         x="133.1037"
         y="576.71588"
         ry="0" />
      <rect
         ry="0"
         y="576.98004"
         x="160.86786"
         height="20.733654"
         width="11.478578"
         id="rect3617"
         style="fill:#ffffff;fill-opacity:0;stroke:#000000;stroke-width:1.51686442;stroke-miterlimit:4;stroke-dasharray:none;stroke-dashoffset:0;stroke-opacity:1" />
      <rect
         style="fill:#ffffff;fill-opacity:0;stroke:#000000;stroke-width:1.53881609;stroke-miterlimit:4;stroke-dasharray:none;stroke-dashoffset:0;stroke-opacity:1"
         id="rect3621"
         width="16.186485"
         height="21.072905"
         x="199.40674"
         y="576.62103"
         ry="0" />
      <rect
         ry="0"
         y="576.74731"
         x="291.07181"
         height="21.072905"
         width="16.186485"
         id="rect3623"
         style="fill:#ffffff;fill-opacity:0;stroke:#000000;stroke-width:1.53881609;stroke-miterlimit:4;stroke-dasharray:none;stroke-dashoffset:0;stroke-opacity:1" />
      <rect
         style="fill:#ffffff;fill-opacity:0;stroke:#000000;stroke-width:1.53881609;stroke-miterlimit:4;stroke-dasharray:none;stroke-dashoffset:0;stroke-opacity:1"
         id="rect3625"
         width="16.186485"
         height="21.072905"
         x="246.07181"
         y="576.74731"
         ry="0" />
      <rect
         style="fill:#ffffff;fill-opacity:0;stroke:#000000;stroke-width:1.53881609;stroke-miterlimit:4;stroke-dasharray:none;stroke-dashoffset:0;stroke-opacity:1"
         id="rect3627"
         width="16.186485"
         height="21.072905"
         x="345.13348"
         y="576.74731"
         ry="0" />
      <rect
         ry="0"
         y="576.74731"
         x="401.51126"
         height="21.072905"
         width="16.186485"
         id="rect3629"
         style="fill:#ffffff;fill-opacity:0;stroke:#000000;stroke-width:1.53881609;stroke-miterlimit:4;stroke-dasharray:none;stroke-dashoffset:0;stroke-opacity:1" />
      <rect
         style="fill:#ffffff;fill-opacity:0;stroke:#000000;stroke-width:1.53881609;stroke-miterlimit:4;stroke-dasharray:none;stroke-dashoffset:0;stroke-opacity:1"
         id="rect3631"
         width="16.186485"
         height="21.072905"
         x="455.20526"
         y="576.74731"
         ry="0" />
      <rect
         ry="0"
         y="576.74731"
         x="508.0361"
         height="21.072905"
         width="16.186485"
         id="rect3633"
         style="fill:#ffffff;fill-opacity:0;stroke:#000000;stroke-width:1.53881609;stroke-miterlimit:4;stroke-dasharray:none;stroke-dashoffset:0;stroke-opacity:1" />
      <rect
         transform="scale(-1,1)"
         style="fill:#ffffff;fill-opacity:0;stroke:#000000;stroke-width:1.5228126;stroke-miterlimit:4;stroke-dasharray:none;stroke-dashoffset:0;stroke-opacity:1"
         id="rect3639"
         width="3.5486162"
         height="21.301155"
         x="-606.2652"
         y="576.73328"
         ry="0" />
      <rect
         transform="scale(-1,1)"
         ry="0"
         y="576.71198"
         x="-588.89117"
         height="21.091192"
         width="6.1218309"
         id="rect3641"
         style="fill:#ffffff;fill-opacity:0;stroke:#000000;stroke-width:1.51575911;stroke-miterlimit:4;stroke-dasharray:none;stroke-dashoffset:0;stroke-opacity:1" />
      <rect
         transform="scale(-1,1)"
         ry="0"
         y="576.73584"
         x="-561.11475"
         height="21.22208"
         width="11.461929"
         id="rect3643"
         style="fill:#ffffff;fill-opacity:0;stroke:#000000;stroke-width:1.53351355;stroke-miterlimit:4;stroke-dasharray:none;stroke-dashoffset:0;stroke-opacity:1" />
    </g>
  </g>
</svg>
