<?xml version="1.0" encoding="UTF-8" standalone="no"?>
<svg
   xmlns:dc="http://purl.org/dc/elements/1.1/"
   xmlns:cc="http://creativecommons.org/ns#"
   xmlns:rdf="http://www.w3.org/1999/02/22-rdf-syntax-ns#"
   xmlns:svg="http://www.w3.org/2000/svg"
   xmlns="http://www.w3.org/2000/svg"
   xmlns:sodipodi="http://sodipodi.sourceforge.net/DTD/sodipodi-0.dtd"
   xmlns:inkscape="http://www.inkscape.org/namespaces/inkscape"
   width="429.78281"
   height="81.092735"
   viewBox="-55.432549 -12.208 121.29425 22.886172"
   version="1.1"
   id="svg6715"
   inkscape:version="0.47 r22583"
   sodipodi:docname="135 M645 Integrated Panel-top.svg">
  <metadata
     id="metadata6727">
    <rdf:RDF>
      <cc:Work
         rdf:about="">
        <dc:format>image/svg+xml</dc:format>
        <dc:type
           rdf:resource="http://purl.org/dc/dcmitype/StillImage" />
        <dc:title>svgOutput</dc:title>
      </cc:Work>
    </rdf:RDF>
  </metadata>
  <defs
     id="defs6725">
    <inkscape:perspective
       sodipodi:type="inkscape:persp3d"
       inkscape:vp_x="0 : 25.15748 : 1"
       inkscape:vp_y="0 : 1000 : 0"
       inkscape:vp_z="416.68973 : 25.15748 : 1"
       inkscape:persp3d-origin="208.34486 : 16.771653 : 1"
       id="perspective6729" />
    <inkscape:perspective
       id="perspective6825"
       inkscape:persp3d-origin="0.5 : 0.33333333 : 1"
       inkscape:vp_z="1 : 0.5 : 1"
       inkscape:vp_y="0 : 1000 : 0"
       inkscape:vp_x="0 : 0.5 : 1"
       sodipodi:type="inkscape:persp3d" />
    <inkscape:perspective
       id="perspective6847"
       inkscape:persp3d-origin="0.5 : 0.33333333 : 1"
       inkscape:vp_z="1 : 0.5 : 1"
       inkscape:vp_y="0 : 1000 : 0"
       inkscape:vp_x="0 : 0.5 : 1"
       sodipodi:type="inkscape:persp3d" />
    <inkscape:perspective
       id="perspective6869"
       inkscape:persp3d-origin="0.5 : 0.33333333 : 1"
       inkscape:vp_z="1 : 0.5 : 1"
       inkscape:vp_y="0 : 1000 : 0"
       inkscape:vp_x="0 : 0.5 : 1"
       sodipodi:type="inkscape:persp3d" />
    <inkscape:perspective
       id="perspective6892"
       inkscape:persp3d-origin="0.5 : 0.33333333 : 1"
       inkscape:vp_z="1 : 0.5 : 1"
       inkscape:vp_y="0 : 1000 : 0"
       inkscape:vp_x="0 : 0.5 : 1"
       sodipodi:type="inkscape:persp3d" />
    <inkscape:perspective
       id="perspective6914"
       inkscape:persp3d-origin="0.5 : 0.33333333 : 1"
       inkscape:vp_z="1 : 0.5 : 1"
       inkscape:vp_y="0 : 1000 : 0"
       inkscape:vp_x="0 : 0.5 : 1"
       sodipodi:type="inkscape:persp3d" />
    <inkscape:perspective
       id="perspective6936"
       inkscape:persp3d-origin="0.5 : 0.33333333 : 1"
       inkscape:vp_z="1 : 0.5 : 1"
       inkscape:vp_y="0 : 1000 : 0"
       inkscape:vp_x="0 : 0.5 : 1"
       sodipodi:type="inkscape:persp3d" />
    <inkscape:perspective
       id="perspective8622"
       inkscape:persp3d-origin="0.5 : 0.33333333 : 1"
       inkscape:vp_z="1 : 0.5 : 1"
       inkscape:vp_y="0 : 1000 : 0"
       inkscape:vp_x="0 : 0.5 : 1"
       sodipodi:type="inkscape:persp3d" />
    <inkscape:perspective
       id="perspective8711"
       inkscape:persp3d-origin="183.71338 : 24.566928 : 1"
       inkscape:vp_z="367.42676 : 36.850391 : 1"
       inkscape:vp_y="0 : 1000 : 0"
       inkscape:vp_x="0 : 36.850391 : 1"
       sodipodi:type="inkscape:persp3d" />
    <inkscape:perspective
       id="perspective8787"
       inkscape:persp3d-origin="183.71338 : 24.566928 : 1"
       inkscape:vp_z="367.42676 : 36.850391 : 1"
       inkscape:vp_y="0 : 1000 : 0"
       inkscape:vp_x="0 : 36.850391 : 1"
       sodipodi:type="inkscape:persp3d" />
    <inkscape:perspective
       id="perspective8839"
       inkscape:persp3d-origin="0.5 : 0.33333333 : 1"
       inkscape:vp_z="1 : 0.5 : 1"
       inkscape:vp_y="0 : 1000 : 0"
       inkscape:vp_x="0 : 0.5 : 1"
       sodipodi:type="inkscape:persp3d" />
    <clipPath
       clipPathUnits="userSpaceOnUse"
       id="clipPath8827">
      <rect
         style="fill:#ffffff;fill-opacity:1;stroke:#000000;stroke-width:1.5;stroke-miterlimit:4;stroke-opacity:1;stroke-dasharray:none;stroke-dashoffset:0"
         id="rect8829"
         width="47.142857"
         height="31.428572"
         x="464.28571"
         y="550.2193" />
    </clipPath>
  </defs>
  <sodipodi:namedview
     pagecolor="#ffffff"
     bordercolor="#666666"
     borderopacity="1"
     objecttolerance="10"
     gridtolerance="10"
     guidetolerance="10"
     inkscape:pageopacity="0"
     inkscape:pageshadow="2"
     inkscape:window-width="1067"
     inkscape:window-height="683"
     id="namedview6723"
     showgrid="false"
     inkscape:zoom="1.2935284"
     inkscape:cx="184.38242"
     inkscape:cy="50.302038"
     inkscape:window-x="310"
     inkscape:window-y="2"
     inkscape:window-maximized="0"
     inkscape:current-layer="layer21" />
  <title
     id="title6717">svgOutput</title>
  <desc
     id="desc6719">made with tinkercad</desc>
  <g
     inkscape:groupmode="layer"
     id="layer20"
     inkscape:label="cold shoe-side"
     transform="translate(-0.89737072,-0.78855617)">
    <rect
       style="fill:#ffffff;fill-opacity:1;stroke:#000000;stroke-width:0.42125461;stroke-miterlimit:4;stroke-opacity:1;stroke-dasharray:none;stroke-dashoffset:0"
       id="rect8102"
       width="6.6639423"
       height="22.464918"
       x="59.88451"
       y="-11.256102"
       transform="scale(1,-1)" />
  </g>
  <g
     inkscape:groupmode="layer"
     id="layer15"
     inkscape:label="1"
     transform="translate(-0.89737072,-0.78855617)">
    <path
       style="fill:#ffffff;fill-opacity:1;stroke:#000000;stroke-width:0.42318633;stroke-miterlimit:4;stroke-opacity:1;stroke-dasharray:none"
       d="m 24.798091,-8.3809022 0.002,0.005 0.0117,0.027504 0.0059,0.016654 -0.0048,0.035272 -0.0058,0.00681 -0.02318,0.027075 -0.01658,0.00692 -0.01797,0.00209 -0.04346,0.027141 -0.04147,-0.014523 -0.02626,-0.063627 -0.009,-0.015481 -0.008,-0.013818 0.0023,-0.00595 0.0056,-0.013842 0.011,-0.02721 0.04097,-0.032001 0.05252,0 0.01757,-0.00123 0.0017,0.00123 0.02676,0.020898 0.0185,0.011103 m -21.900584,1.0240078 0.036474,0.021082 0.1101941,0.014594 0.1620505,-0.035678 0.4747373,0 0.2043935,-0.1308103 0.1733964,-0.133383 0.1622053,-0.2800536 0.063865,-0.1537619 0.019996,-0.048137 0,-0.2422411 0,-0.082407 -0.062386,-0.1504325 -0.078814,-0.294131 -0.0051,-0.018851 -0.099819,-0.1296216 -0.075876,-0.058191 -0.097521,-0.074791 -0.2798511,-0.161729 -0.1622083,-0.022 -0.1620504,-0.036491 -0.053392,0.0073 -0.0568,0.0077 -0.205177,0.055431 -0.1073551,0.029 -0.1289304,0.099303 -0.074138,0.096271 -0.025692,0.03335 -0.258874,0.1986542 -0.017428,0.055343 -0.032387,0.1027711 -0.083781,0.3127565 0.02836,0.2173039 0.01368,0.1038353 0.00769,0.058489 0.1122986,0.215243 0.089537,0.1394638 0.2543032,0.1956217 0.1543339,0.089192 m -20.6040581,-1.0461432 0.05252,0 0.03606,-0.00987 0.04097,0.032001 0.0059,0.014495 0.01244,0.037346 -0.0031,0.017271 -0.0104,0.038775 -0.002,0.00756 -0.02713,0.014495 -0.02834,0.02144 -0.05252,0 -0.02834,-0.02144 -0.02835,-0.016038 -0.002,-0.00689 -0.01117,-0.039442 -0.0023,-0.015729 0.01314,-0.037346 0.0062,-0.014495 0.02834,-0.022131 m -36.616887,9.5322379 0,-0.99201178 0,-11.20813442 5.27682,0 4.863562,0 0.003,0 11.505865,0 8.186214,0 4.093107,0 1.71065,0 0.335903,0 2.046552,0 16.37242366,0 2.04655514,0 2.0465521,0 4.0931082,0 8.1862119,0 8.186212,0 2.046552,0 2.046552,0 0.375029,0 3.718079,0 16.372424,0 8.186215,0 3.819847,0 0,4.100049 -3.819847,0 -3.626439,0 0,1.2500151 -4.559776,0 -16.372424,0 -3.718079,0 -4.468133,0 -8.186212,0 -8.1862119,0 -4.534733,0 -3.65148244,0 -16.37242366,0 -2.315515,0 -1.77759,0 -4.093107,0 -8.186214,0 -11.505865,0 0,-1.2500151 -0.003,0 0,7.10808542 0,0.99201178 -4.863562,0 -5.27682,0 m 35.671575,-9.1931393 0.0029,0.00903 0.08282,0.2600035 0.05146,0.067234 0.266075,0.266266 0.145156,0.083888 0.363522,0.097515 0.08413,0.011103 0.27575,-0.060861 0.08414,-0.011103 0.02496,-0.012976 0.08659,-0.045003 0.238431,-0.152152 0.08506,-0.09314 0.115415,-0.1507691 0.08215,-0.2600033 0.01196,-0.037833 0.02881,-0.091167 -0.04907,-0.3706979 -0.0056,-0.1264492 -0.151353,-0.2386018 -0.08383,-0.1452617 -0.01283,-0.0071 -0.01241,-0.0069 -0.260197,-0.1443767 -0.145157,-0.083891 -0.008,-0.0011 -0.07616,-0.01033 -0.08414,0.01141 -0.417425,-0.02974 -0.07797,0.03238 -0.325511,0.1881152 -0.01622,0.01243 -0.05096,0.03907 -0.152043,0.2386014 -0.08383,0.1452616 -0.04906,0.3706977 0,0.1683933 0.03236,0.078029 m 21.836698,-0.2439735 0.021375,-0.052919 0.015399,-0.037298 0.029979,-0.0077 0.04278,-0.013081 0.0032,0.00127 0.044768,0.017734 0.019006,0.024378 0.013371,0.01946 5.646e-4,0.041621 -2.828e-4,0.027973 -0.012971,0.016623 -0.024703,0.00851 -0.077835,0.033892 -0.012751,-0.00268 -0.0025,-5.644e-4 -0.024703,-0.032028 -0.034466,-0.045189 m 22.5857092,-0.013009 -0.0075,-0.033946 -0.05333,-0.2420016 -0.01108,-0.084197 -0.01207,-0.020918 -0.07176,-0.1243434 -0.134319,-0.2107865 -0.01774,-0.02781 -0.01828,-0.014 -0.132397,-0.1014982 -0.145156,-0.083891 -0.363522,-0.098211 -0.08414,-0.01141 -0.08994,0.0203 -0.185814,0.041941 -0.162106,0.0438 -0.353846,0.3022287 -0.09818,0.098251 -0.02048,0.020486 -0.0379,0.1202807 -0.07257,0.1749746 -0.01244,0.2835567 0.0056,0.1261403 0.03615,0.087057 0.106899,0.2573598 0.08383,0.1452622 0.06718,0.051505 0.208023,0.1908819 0.06303,0.016908 0.30049,0.080607 0.07217,0.00949 0.17407,0.022891 0.363525,-0.097515 0.07798,-0.032383 0.266074,-0.2662661 0.09307,-0.085122 0.0029,-0.010956 0.07572,-0.2826648 0.01879,-0.070162 0.05794,-0.1116442 0.01108,-0.084197 z"
       id="path6721" />
    <path
       style="fill:none;stroke:#000000;stroke-width:0.43061534;stroke-linecap:butt;stroke-linejoin:miter;stroke-miterlimit:4;stroke-opacity:1;stroke-dasharray:none"
       d="m -54.345848,7.1968808 115.562062,-4e-7 0,-18.1718934"
       id="path7473"
       sodipodi:nodetypes="ccc" />
    <path
       style="fill:none;stroke:#000000;stroke-width:0.42333332;stroke-linecap:butt;stroke-linejoin:miter;stroke-miterlimit:4;stroke-opacity:1;stroke-dasharray:none"
       d="m -54.317003,1.1259159 0,6.2863154"
       id="path8872"
       sodipodi:nodetypes="cc" />
  </g>
  <g
     inkscape:groupmode="layer"
     id="layer19"
     inkscape:label="white"
     transform="translate(-0.89737072,-0.78855617)">
    <path
       sodipodi:type="arc"
       style="fill:#ffffff;fill-opacity:1;stroke:#ffffff;stroke-width:1.5;stroke-miterlimit:4;stroke-opacity:1;stroke-dasharray:none;stroke-dashoffset:0"
       id="path7467"
       sodipodi:cx="133.86082"
       sodipodi:cy="13.894431"
       sodipodi:rx="1.5716176"
       sodipodi:ry="1.5716176"
       d="m 135.43244,13.894431 c 0,0.867981 -0.70363,1.571618 -1.57162,1.571618 -0.86798,0 -1.57161,-0.703637 -1.57161,-1.571618 0,-0.86798 0.70363,-1.571617 1.57161,-1.571617 0.86799,0 1.57162,0.703637 1.57162,1.571617 z"
       transform="matrix(0.28222223,0,0,0.28222223,-55.432551,-12.266234)" />
    <path
       transform="matrix(0.28222223,0,0,0.28222223,-34.509534,-12.266234)"
       d="m 135.43244,13.894431 c 0,0.867981 -0.70363,1.571618 -1.57162,1.571618 -0.86798,0 -1.57161,-0.703637 -1.57161,-1.571618 0,-0.86798 0.70363,-1.571617 1.57161,-1.571617 0.86799,0 1.57162,0.703637 1.57162,1.571617 z"
       sodipodi:ry="1.5716176"
       sodipodi:rx="1.5716176"
       sodipodi:cy="13.894431"
       sodipodi:cx="133.86082"
       id="path7469"
       style="fill:#ffffff;fill-opacity:1;stroke:#ffffff;stroke-width:1.5;stroke-miterlimit:4;stroke-opacity:1;stroke-dasharray:none;stroke-dashoffset:0"
       sodipodi:type="arc" />
    <path
       sodipodi:type="arc"
       style="fill:#ffffff;fill-opacity:1;stroke:#ffffff;stroke-width:1.5;stroke-miterlimit:4;stroke-opacity:1;stroke-dasharray:none;stroke-dashoffset:0"
       id="path7471"
       sodipodi:cx="133.86082"
       sodipodi:cy="13.894431"
       sodipodi:rx="1.5716176"
       sodipodi:ry="1.5716176"
       d="m 135.43244,13.894431 c 0,0.867981 -0.70363,1.571618 -1.57162,1.571618 -0.86798,0 -1.57161,-0.703637 -1.57161,-1.571618 0,-0.86798 0.70363,-1.571617 1.57161,-1.571617 0.86799,0 1.57162,0.703637 1.57162,1.571617 z"
       transform="matrix(0.28222223,0,0,0.28222223,-13.022073,-12.266234)" />
    <rect
       style="fill:#ffffff;fill-opacity:1;stroke:#ffffff;stroke-width:0.45228902;stroke-miterlimit:4;stroke-opacity:1;stroke-dasharray:none;stroke-dashoffset:0"
       id="rect7477"
       width="58.04113"
       height="3.5668652"
       x="-25.526968"
       y="-6.6615686" />
    <rect
       y="-8.1642685"
       x="45.078869"
       height="5.1540923"
       width="15.751553"
       id="rect7480"
       style="fill:#ffffff;fill-opacity:1;stroke:#ffffff;stroke-width:0.28323215;stroke-miterlimit:4;stroke-opacity:1;stroke-dasharray:none;stroke-dashoffset:0" />
    <rect
       style="fill:#ffffff;fill-opacity:1;stroke:#ffffff;stroke-width:0.6022265;stroke-miterlimit:4;stroke-opacity:1;stroke-dasharray:none;stroke-dashoffset:0"
       id="rect8636"
       width="0.74676681"
       height="9.6752357"
       x="59.333305"
       y="-6.6783156"
       transform="scale(1,-1)" />
    <rect
       y="-0.93974817"
       x="-54.015999"
       height="3.8482506"
       width="7.6812005"
       id="rect8874"
       style="fill:#ffffff;fill-opacity:1;stroke:#ffffff;stroke-width:0.17090352;stroke-miterlimit:4;stroke-opacity:1;stroke-dasharray:none;stroke-dashoffset:0" />
  </g>
  <g
     inkscape:groupmode="layer"
     id="layer16"
     inkscape:label="2"
     transform="translate(-0.89737072,-0.78855617)">
    <path
       style="fill:#ffffff;fill-opacity:1;stroke:#000000;stroke-width:0.42333335;stroke-miterlimit:4;stroke-opacity:1;stroke-dasharray:none"
       d="m 13.604133,-10.73072 0.422002,0.328 0.327998,0.4220001 0.235001,0.5150001 0.139999,0.609998 0.0031,0.04625 0.03782,0.6727463 0.0061,0.10825 0,8.08375075 0,4.09600015 0,4.0960001 -0.047,0.703 -0.139999,0.6089992 -0.235001,0.5160013 -0.327998,0.421999 -0.422002,0.328 -0.514999,0.234 -0.03339,0.0078 -0.176609,0.04082 -0.3364,0.07776 -0.0636,0.01463 -0.098,0.0066 -0.605,0.04045 -3.4909987,0 -4.1904465,0 -4.00155559,0 -4.09599831,0 -0.921001,0 -0.702999,-0.047 -0.06344,-0.01463 -0.335579,-0.07775 -0.176612,-0.04089 -0.03339,-0.0078 -0.515998,-0.234 -0.422002,-0.328001 -0.327998,-0.421999 -0.234002,-0.5160004 -0.140998,-0.6089991 -0.047,-0.7030001 0,-4.0960001 0,-4.09600005 0,-8.08375085 0.0031,-0.04625 0.0035,-0.062 0.04042,-0.7190002 0.01168,-0.05056 0.129314,-0.559436 0.233999,-0.5150001 0.328002,-0.4220001 0.421998,-0.328 0.516001,-0.235 0.608999,-0.14 0.703001,-0.047 0.920999,0 4.09600091,0 4.06758429,0 0.02842,0 4.0959982,0 3.4910017,0 0.604999,0.04045 0.098,0.0066 0.610004,0.14 0.514996,0.235 m 21.021007,21.977948 -0.703002,-0.047 -0.06344,-0.01463 -0.512169,-0.118581 -0.03339,-0.0078 -0.451999,-0.204976 -0.064,-0.02902 -0.422021,-0.32798 -0.327998,-0.421999 -0.233999,-0.5160003 -0.141001,-0.6089991 -0.047,-0.7030003 0,-16.2670002 0,-0.0088 0.0031,-0.04625 0.0439,-0.7809979 0.141001,-0.609999 0.233999,-0.5150001 0.328002,-0.4219991 0.421998,-0.328 0.064,-0.02915 0.451998,-0.205853 0.608999,-0.14 0.703002,-0.047 2.331996,0 4.096002,0 1.253086,0 6.938916,0 2.078999,0 0.702998,0.047 0.610001,0.14 0.514999,0.235 0.189004,0.146901 0.232997,0.181099 0.327999,0.4219991 0.235001,0.5150001 0.128281,0.558928 0.01171,0.05107 0.04042,0.719 0.0035,0.062 0.0031,0.04625 0,8.08375015 0,4.09600015 0,4.0960004 -0.047,0.703 -0.140019,0.6090028 -0.235001,0.5160003 -0.327998,0.421999 -0.232997,0.1811 -0.189005,0.1469 -0.514999,0.234 -0.03339,0.0078 -0.176609,0.04082 -0.336397,0.07776 -0.0636,0.01463 -0.702999,0.047 -2.078998,0 -6.938916,0 -1.253089,0 -6.427998,0 M 4.3870588,-10.14845 4.189111,-10.280842 l -3.67e-5,-2.5e-5 -0.00519,-0.0034 -0.00799,-0.0023 -0.3146467,-0.08643 -0.3049129,-0.08154 -0.3163994,0 -0.2673858,0.0098 -0.00691,0 -0.00113,2.91e-4 -0.3022064,0.08082 -0.00169,4.32e-4 -0.010922,0.0057 -0.42407,0.209055 -0.1418336,0.07006 -0.04881,0.03732 -0.2021388,0.1551911 -0.2266019,0.298209 -0.2276094,0.321692 -0.00226,0.0048 -0.00226,0.0065 -0.016623,0.0487 -0.039601,0.11719 -0.1148165,0.345091 -0.036,0.5579995 0.00971,0.049 0.06389,0.3217797 0.070121,0.2622993 0.2823069,0.4896451 0.1009594,0.1512765 0.2843304,0.2492126 0.1746504,0.145108 0.4768116,0.2005858 0.1681593,0.06947 0.1677049,0.022282 0.013123,0.00175 0.09089,-0.00617 0.7935638,-0.033769 0.1759486,-0.047071 0.1498261,-0.1000994 0.472869,-0.3159303 0.081811,-0.040254 0.1100497,-0.080832 0.1528996,-0.1963993 0.1847963,-0.2760097 0.025908,-0.038714 0.1208899,-0.3579478 0.07077,-0.1912047 0.015184,-0.2290011 0.021816,-0.3290002 -0.1391271,-0.532867 -0.035379,-0.178221 -0.01428,-0.02922 -0.00951,-0.01919 -0.056721,-0.114551 -0.036051,-0.06255 -0.2270364,-0.298209 -0.2078934,-0.237184 -0.3330476,-0.2107401 m -48.7599763,21.395722 -0.59,-0.03945 -0.112999,-0.0076 -0.06344,-0.01463 -0.33556,-0.07769 -0.176609,-0.04089 -0.03339,-0.0077 -0.514999,-0.234001 -0.422001,-0.328 -0.327999,-0.422 -0.234001,-0.5159997 -0.140999,-0.6089991 -0.047,-0.7030004 0,-4.0959998 0,-4.09600015 0,-8.07499985 0,-0.0088 0.0031,-0.04625 0.0035,-0.062 0.04042,-0.7189999 0.140999,-0.609998 0.234001,-0.514999 0.327999,-0.4220001 0.422001,-0.328 0.514999,-0.235 0.609001,-0.14 0.112999,-0.0076 0.59,-0.03945 3.506001,0 5.512554,0 2.679443,0 4.096,0 0.906,0 0.703002,0.047 0.610001,0.14 0.514998,0.235 0.421999,0.328 0.328001,0.4220001 0.235002,0.514999 0.139999,0.609998 0.0031,0.04625 0.03782,0.6727471 0.0061,0.1082489 0,8.08375075 0,4.09600015 0,4.0960001 -0.047,0.7030003 -0.14,0.6089992 -0.23504,0.5160494 -0.328002,0.421999 -0.421999,0.328 -0.514999,0.234001 -0.03339,0.0078 -0.51301,0.118581 -0.0636,0.01463 -0.703002,0.047 -0.906,0 -4.096001,0 -2.679442,0 -5.512554,0 -3.506001,0 z"
       id="path6647" />
  </g>
  <g
     inkscape:groupmode="layer"
     id="layer17"
     inkscape:label="3"
     transform="translate(-0.89737072,-0.78855617)">
    <path
       style="fill:#ffffff;fill-opacity:1;stroke:#000000;stroke-width:0.42333335;stroke-miterlimit:4;stroke-opacity:1;stroke-dasharray:none"
       d="m 14.745146,-8.6155528 0.02692,0.478816 0.004,0.07156 0,8.12043999 0,4.09600001 0,4.096 -0.047,0.703001 -0.140002,0.608999 -0.234998,0.5159998 -0.328001,0.422 -0.421998,0.328 -0.515002,0.234 -0.173389,0.04046 -0.03661,0.0085 -0.06973,0.01612 -0.330265,0.07596 -0.098,0.0066 -0.605,0.04045 -3.4909989,0 -3.531153,0 0,-11.19199881 0,-2.30999999 -2.654977,0 0,2.30999999 0,11.19199881 -2.00586899,0 -4.09600201,0 -0.921001,0 -0.702999,-0.047 -0.329441,-0.07596 -0.06956,-0.0161 -0.03661,-0.0085 -0.173372,-0.04053 -0.515998,-0.234 -0.421998,-0.328 -0.328002,-0.422 -0.234001,-0.5160008 -0.140999,-0.608999 -0.047,-0.703 0,-4.096 0,-4.09600001 0,-8.12043999 0.0048,-0.07156 0.01126,-0.168623 0.03094,-0.550377 0.0082,-0.03563 0.132763,-0.574369 0.234002,-0.5150001 0.327998,-0.4220001 0.422002,-0.328 0.515998,-0.235 0.184999,-0.04253 0.424003,-0.09747 0.702998,-0.047 0.921001,0 4.09599901,0 4.09600199,0 4.095998,0 3.4910009,0 0.605,0.04045 0.098,0.0066 0.610001,0.14 0.514999,0.235 0.422001,0.328 0.327999,0.4220001 0.075,0.1643621 0.16,0.350638 0.139999,0.61 0.01606,0.240184 m 19.176938,-2.4902342 0.702999,-0.047 0.284003,0 2.047996,0 4.095998,0 3.249849,0 4.942154,0 2.048002,0 0.031,0 0.702999,0.047 0.610001,0.14 0.514999,0.235 0.189001,0.146901 0.233,0.181099 0.327999,0.4220001 0.235,0.5150001 0.131736,0.574009 0.0083,0.03599 0.03094,0.550377 0.01126,0.168623 0.0048,0.07156 0,8.12043999 0,4.09600001 0,4.096 -0.047,0.703001 -0.140053,0.608998 -0.235001,0.5160008 -0.327996,0.422 -0.232997,0.181099 -0.189007,0.146901 -0.514999,0.234 -0.173386,0.04046 -0.03661,0.0085 -0.06973,0.01612 -0.330268,0.07596 -0.702999,0.047 -2.078998,0 -4.942155,0 0,-11.19199981 0,-2.30999999 -2.654977,0 0,2.30999999 0,11.19199981 -0.594871,0 -6.427998,0 -0.703001,-0.047 -0.329444,-0.07596 -0.106163,-0.02458 -0.173395,-0.0405 -0.451998,-0.204976 -0.064,-0.02902 -0.421996,-0.327997 -0.328002,-0.421999 -0.233999,-0.5160008 -0.141001,-0.608999 -0.047,-0.703 0,-16.267 0,-0.04544 0.01606,-0.240183 0.03094,-0.550377 0.141001,-0.609998 0.233999,-0.5150001 0.328002,-0.4220001 0.421998,-0.328 0.064,-0.02915 0.451998,-0.205853 0.212,-0.04874 0.396999,-0.09126 m -68.617118,22.352992 0,-11.19199981 0,-2.30999999 -2.654975,0 0,2.30999999 0,11.19199981 -3.516869,0 -3.506001,0 -0.59,-0.03945 -0.112999,-0.0076 -0.329441,-0.07596 -0.06956,-0.0161 -0.03661,-0.0085 -0.173387,-0.04039 -0.514999,-0.234 -0.422001,-0.328 -0.327999,-0.422 -0.234001,-0.5159998 -0.140999,-0.609 -0.047,-0.703 0,-4.096 0,-4.09600001 0,-8.12043999 0.0048,-0.07156 0.01127,-0.168623 0.03094,-0.550377 0.140999,-0.609999 0.234001,-0.5150001 0.327999,-0.4220001 0.422001,-0.328 0.514999,-0.235 0.609001,-0.14 0.112999,-0.0076 0.59,-0.03945 3.506001,0 3.516869,0 4.675128,0 4.096001,0 0.906,0 0.703,0.047 0.439,0.100754 0.171002,0.03925 0.514999,0.235 0.421999,0.328 0.328001,0.4220001 0.235001,0.5150001 0.139999,0.609999 0.01606,0.240184 0.02692,0.478816 0.004,0.07156 0,8.12043999 0,4.09600001 0,4.096 -0.047,0.703001 -0.139999,0.608999 -0.234991,0.5160458 -0.328001,0.422 -0.421999,0.328 -0.514999,0.234 -0.173391,0.04046 -0.106343,0.02458 -0.330267,0.07596 -0.703001,0.047 -0.906,0 -4.096001,0 -2.020153,0 m 40.0894811,-19.1153658 0.01468,-0.03963 0.01518,-0.229001 0.02182,-0.328999 -0.192136,-0.735905 -0.0073,-0.03694 -0.003,-0.0061 -0.002,-0.004 -0.01177,-0.02375 -0.04979,-0.08639 -0.313547,-0.411829 -0.146501,-0.167147 -0.234705,-0.1485112 -0.276831,-0.18515 -0.0036,-0.0024 -0.0057,-0.0016 -0.01016,-0.0028 -0.429799,-0.118063 -0.214876,-0.05746 -0.22297,0 -0.373871,0.01369 -0.0049,0 -8.46e-4,2.06e-4 -0.212965,0.05695 -0.0011,3.05e-4 -0.0077,0.004 -0.592958,0.292311 -0.09995,0.04937 -0.03439,0.0263 -0.142448,0.1093662 -0.312945,0.411834 -0.160399,0.2267 -0.0033,0.0066 -5.64e-4,0.0013 -0.0034,0.01009 -0.0082,0.02429 -0.158558,0.476613 -0.036,0.557999 0.0097,0.049 0.09194,0.463058 0.01453,0.05437 0.389873,0.676212 0.02094,0.03137 0.39267,0.34417 0.0362,0.03008 0.658489,0.277013 0.03486,0.0144 0.03476,0.0046 0.0028,3.67e-4 0.01885,-0.0013 1.095931,-0.04664 0.03647,-0.0098 0.184049,-0.122966 0.675905,-0.451582 0.01696,-0.0083 0.0228,-0.01676 0.03169,-0.04071 0.255208,-0.381175 0.0358,-0.05347 0.166957,-0.494334 z"
       id="path6499" />
  </g>
  <g
     inkscape:groupmode="layer"
     id="layer18"
     inkscape:label="4"
     transform="translate(-0.89737072,-0.78855617)">
    <path
       style="fill:#ffffff;fill-opacity:1;stroke:#000000;stroke-width:0.42333335;stroke-miterlimit:4;stroke-opacity:1;stroke-dasharray:none"
       d="m -29.177936,5.516886 0,-5.49000002 0,-3.30499998 0.003,0 0,-6.005001 -0.003,0 -3.502001,0 -10.197998,0 -0.003,0 0,6.005001 0.003,0 0,3.30499998 0,5.49000002 -0.002,0 0,0.505 -0.797454,2.197 -0.198548,0.547 -0.596,1.355 -0.546997,0.735 -0.461003,0.204999 0,0.019 -0.02802,-0.0065 -0.181974,-0.0425 -0.514999,-0.233999 -0.422001,-0.328 -0.327999,-0.422 -0.234001,-0.516001 -0.140999,-0.608999 -0.047,-0.703 0,-2.702 0,-5.49000002 0,-3.30499998 0,-4.77 0,-0.118819 0.04199,-0.628046 0.005,-0.08913 0.140999,-0.61 0.234001,-0.515 0.327999,-0.422 0.422001,-0.328 0.514999,-0.235 0.609001,-0.14 0.702999,-0.047 1.496998,0 0.003,0 10.197998,0 3.502001,0 0.003,0 1.496999,0 0.703001,0.047 0.610001,0.14 0.514999,0.235 0.421999,0.328 0.328001,0.422 0.235001,0.515 0.139999,0.61 0.04199,0.628046 0.005,0.08913 0,4.888819 0,3.30499998 0,5.49000002 0,2.702 -0.047,0.703 -0.139998,0.609 -0.234978,0.516 -0.328002,0.422 -0.421999,0.328 -0.514998,0.233999 -0.210001,0.049 0,-0.019 -0.459999,-0.204999 -0.546003,-0.735 -0.596999,-1.355 -0.198384,-0.547 -0.798615,-2.202 0,-0.5 -0.003,0 m 60.797999,-13.683819 0.04199,-0.628046 0.005,-0.08913 0.140998,-0.61 0.23401,-0.515001 0.328002,-0.422 0.421998,-0.328 0.064,-0.02915 0.451998,-0.205853 0.608999,-0.14 0.703002,-0.047 1.5,0 13.119998,0 0.579,0 0.003,0 1.497,0 0.703,0.047 0.61,0.14 0.515,0.235 0.422,0.328 0.328,0.422 0.235,0.515 0.13866,0.604172 10e-4,0.0058 0.005,0.08913 0.042,0.628046 0,4.888819 0,3.30499998 0,5.49000002 0,2.702 -0.047,0.703 -0.13999,0.608999 -0.23501,0.516001 -0.328,0.422 -0.422,0.328 -0.515,0.234 -0.18201,0.04247 -0.028,0.0065 0,-0.019 -0.46,-0.205 -0.54601,-0.734999 -0.59701,-1.355 -0.19838,-0.546999 -0.79861,-2.202001 0,-0.5 -0.003,0 0,-5.49000002 0,-3.30499998 0.003,0 0,-6.005001 -0.003,0 -0.579,0 -13.12,0 -0.003,0 0,6.005001 0.003,0 0,3.30499998 0,5.49000002 -0.002,0 0,0.505 -0.995956,2.744033 -0.596,1.354999 -0.547,0.735 -0.460999,0.205 0,0.019 -0.02802,-0.0065 -0.181979,-0.0425 -0.451999,-0.204975 -0.064,-0.02902 -0.421999,-0.328 -0.328001,-0.422 -0.233999,-0.516 -0.141001,-0.609 -0.047,-0.703 0,-16.267 0,-0.118819 m -21.345973,14.183818 0,-0.5 -0.003,0 0,-5.49000002 0,-3.30499998 0.003,0 0,-6.005001 -0.003,0 -1.9910024,0 -3.041881,0 -0.0031,0 -0.0097,-0.01685 -0.486563,-0.639083 -0.02373,-0.02707 -0.03801,-0.02405 -0.434526,-0.290618 -5.64e-4,-3.95e-4 -8.47e-4,-2.62e-4 -0.04293,-0.01179 -0.647644,-0.177904 -0.0348,-0.0093 -0.03611,0 -0.586844,0.02149 -8.47e-4,0 -1.27e-4,3.3e-5 -0.03449,0.0092 -1.83e-4,4.9e-5 -0.0011,6.55e-4 -0.930727,0.458822 -0.01617,0.008 -0.0056,0.0043 -0.02306,0.01771 -0.485631,0.6390833 -0.02596,0.03671 -5.64e-4,0.0013 -2.66e-4,0 -0.36938904,0 -0.0036,0 -0.501153,0 -0.0028,0 -0.40281,0 -3.51700096,0 -0.003,0 0,6.005 0.003,0 0,3.30499998 0,5.49000002 -0.002,0 0,0.505 -0.79745,2.19697 -0.198547,0.547 -0.595999,1.3550007 -0.547001,0.735 -0.460998,0.204999 0,0.019 -0.02802,-0.0065 -0.181977,-0.0425 -0.515998,-0.233999 -0.422001,-0.328 -0.327999,-0.422001 -0.234002,-0.5160007 -0.140998,-0.608999 -0.047,-0.703 0,-2.702001 0,-5.48999902 0,-3.30499998 0,-4.888819 0.04199,-0.628046 0.005,-0.08913 0.0014,-0.0058 0.139667,-0.60423 0.233999,-0.5149993 0.327997,-0.422 0.422002,-0.328 0.516001,-0.235 0.608998,-0.14 0.702999,-0.047 1.497003,0 0.003,0 3.51700096,0 2.70683504,0 0.101473,0 0.89677,0 4.486921,0 1.9909994,0 0.003,0 1.497,0 0.703001,0.047 0.609998,0.14 0.515002,0.235 0.421999,0.328 0.328001,0.422 0.234998,0.5149993 0.140002,0.61 0.04199,0.628047 0.005,0.08913 0,4.888818 0,3.30499998 0,5.49000002 0,2.702001 -0.047,0.703 -0.139965,0.608997 -0.235001,0.5160007 -0.327998,0.422001 -0.422002,0.328 -0.514999,0.233999 -0.182019,0.04247 -0.02797,0.0065 0,-0.019 -0.46,-0.204999 -0.545987,-0.734971 -0.597002,-1.3549997 -0.198382,-0.547 -0.798616,-2.202001 z"
       id="path6425" />
  </g>
  <g
     inkscape:groupmode="layer"
     id="layer21"
     inkscape:label="5"
     transform="translate(-6.2776654e-7,0.00770934)">
    <path
       transform="matrix(0.28222222,0,0,-0.28222222,-154.97465,156.10244)"
       id="path8779"
       d="m 387.7333,536.19796 5.03858,0 13.33999,0 15.68678,0 25.10787,0 2.49095,0.17363 1.42795,0.34469 0.72992,0.17617 1.82835,0.86811 1.49527,1.21182 0.0448,0.0602 1.11741,1.50236 0.82913,1.90985 0.49961,2.25354 0.16653,2.60079 0,6.24686 0,14.51339 0,14.51339 0,9.00669 0,0.13149 -0.16653,2.60079 -0.023,0.10445 -0.47649,2.15265 -0.225,0.51732 -0.60413,1.38897 -1.1622,1.5626 -1.49528,1.21181 -1.82835,0.87166 -0.72992,0.17497 -1.42795,0.34231 -2.49095,0.17363 -25.10787,0 -2.26005,0 -0.27971,0 -3.37881,0 -23.1082,0 -5.03858,0 -2.49095,-0.17363 -2.16142,-0.51732 -1.8248,-0.87166 -1.49528,-1.21181 -1.1622,-1.56259 -0.34016,-0.77875 -0.26656,-0.61022 -0.22596,-0.51733 -0.49606,-2.25709 -0.16654,-2.60078 0,-23.65157 0,-20.76025 0.16654,-2.60079 0.49606,-2.25355 0.83268,-1.90984 1.1174,-1.50236 0.0448,-0.0602 1.49527,-1.21181 1.8248,-0.86811 2.16142,-0.52087 2.49095,-0.17362 m 135.12755,0.69449 0.5315,-0.12809 1.62992,-0.39279 2.49094,-0.17362 10.39252,0 29.02677,0 14.51339,0 5.24055,0 2.49094,0.17362 2.15787,0.52087 1.82481,0.86811 1.49528,1.21181 0.0448,0.0602 1.1174,1.50236 0.14174,0.32648 0.6874,1.58338 0.4996,2.25354 0.16654,2.60079 0,20.76025 0,23.65157 -0.16654,2.60079 -0.4996,2.25709 -0.225,0.51732 -0.46239,1.06311 -0.14173,0.32588 -1.16221,1.56259 -1.49527,1.21182 -1.82481,0.87165 -2.15787,0.51733 -2.49095,0.17362 -5.24054,0 -14.51339,0 -29.02677,0 -10.39252,0 -2.49095,-0.17362 -1.62992,-0.39011 -0.5315,-0.12721 -1.8248,-0.87166 -1.49527,-1.21181 -1.16221,-1.56259 -0.60671,-1.38897 -0.22595,-0.51732 -0.49606,-2.2571 -0.16654,-2.60078 0,-23.65157 0,-20.76025 0.16654,-2.60079 0.49606,-2.25355 0.83268,-1.90984 1.1174,-1.50236 0.0448,-0.0602 1.49527,-1.21181 1.8248,-0.86811 m -40.30894,21.68754 0.65359,-0.3241 0.84195,-0.41751 1.95818,-0.48821 0.65176,-0.15679 1.16789,-0.0775 2.08112,0.32251 1.47616,0.28712 1.47088,0.78916 0.50732,0.43862 0.72867,0.45787 0.27616,0.17351 0.91772,0.57666 0.50468,0.64134 0.32148,0.40854 1.00136,1.35949 0.3065,0.59716 0.34745,0.86416 0.12041,0.399 0.24424,0.80941 0.16572,0.6646 0.0347,0 0.1879,0 3.10444,0 3.92244,0 0,2.15434 0,1.38897 -3.92244,0 -3.30945,0 -0.023,0.14967 -0.37344,1.26478 -0.28254,0.82492 -0.18248,0.53279 -0.38309,0.65926 -0.85081,1.33876 -0.90158,1.00849 -0.0904,0.089 -0.50501,0.49754 -0.35472,0.24686 -0.47737,0.33222 -0.97413,0.64825 -1.24546,0.52205 -1.01288,0.3893 -1.98426,0.37205 -1.51653,0.004 -1.24368,-0.23698 -1.78091,-0.43333 -2.27533,-1.41117 -0.66762,-0.34526 -0.54607,-0.3893 -0.0423,-0.0444 -0.14418,-0.15133 -0.60262,-0.63253 -0.13391,-0.14053 -1.10113,-1.69447 -0.65001,-1.16789 -0.62362,-2.23229 -7.22835,0 0,-1.38897 0,-2.15433 7.24961,0 0.87165,-2.73898 1.4563,-2.26063 0.15945,-0.12026 1.71854,-1.29625 0.98117,-0.90895 m -165.81584,37.98885 -0.225,0.51733 -0.60413,1.38897 -1.1622,1.56259 -1.49528,1.21181 -1.82834,0.87166 -2.15788,0.51732 -2.49094,0.17362 -1.08071,0 -58.05355,0 -0.0354,0 -2.49104,-0.17357 -2.16142,-0.51733 -1.8248,-0.87165 -1.49527,-1.21182 -1.16221,-1.56259 -0.60671,-1.38897 -0.22595,-0.51732 -0.0735,-0.33452 -0.47081,-2.65296 -0.0248,-0.38546 -0.0936,-1.48493 0,-23.65157 0,-20.76025 0.0483,-0.75454 0.0982,-0.71947 0.51609,-3.38033 0.83268,-1.90984 1.11739,-1.50236 0.0448,-0.0602 1.49527,-1.21181 1.8248,-0.86811 2.16142,-0.52087 2.49096,-0.17362 0.0354,0 3.2102,0 54.84335,0 1.0807,0 2.49095,0.17362 2.15788,0.52087 1.82834,0.86811 1.49528,1.21181 0.0448,0.0602 1.11739,1.50236 0.82914,1.90984 0.4996,2.25355 0.16653,2.60079 0,20.76025 0,23.65157 -0.16653,2.60078 -0.4996,2.25709 m 176.14567,-24.01193 0.64322,-0.63075 0.57551,-1.12074 0.26504,-0.58707 0.25108,-0.55617 0.0855,-0.2138 -0.33662,0 -7.25669,0 -6.09738,0 -0.0284,0 0.104,0.3206 0.90239,1.72497 0.0927,0.19379 0.0993,0.20785 0.76979,0.95122 1.51451,0.94969 1.26125,0.70109 1.38189,0.13943 1.39252,0.14049 0.81559,-0.18146 0.95504,-0.23874 0.91247,-0.47385 0.79181,-0.43862 0.067,-0.0371 0.83849,-0.85082 m -82.08904,17.40839 -0.49923,1.34882 -0.1311,1.97716 0.25817,0.98885 0.24962,1.25722 0.10077,0.20611 0.067,0.13539 0.40013,0.80811 0.0669,0.11608 0.21558,0.28315 0.20576,0.27025 1.00851,1.15062 1.61569,1.02234 0.35231,0.23563 0.0252,0.0166 0.039,0.011 5e-5,10e-6 0.55983,0.15378 1.4792,0.39557 1.5349,0 0.4758,-0.0174 0.0333,-0.003 1.4792,-0.39557 0.0529,-0.0252 0.7546,-0.37199 0.66178,-0.32956 0.0262,-0.0131 0.2368,-0.18106 0.98061,-0.75008 0.42051,-0.55339 0.43586,-0.61603 0.6683,-0.94456 0.004,-0.009 0.13282,-0.3893 0.27938,-0.8267 0.21306,-0.64043 0.12756,-1.97716 -0.13661,-0.68806 -0.49464,-1.85034 -0.52387,-0.90863 -0.7122,-1.06715 -0.52764,-0.46247 -1.13063,-0.93939 -0.10141,-0.0843 -0.88482,-0.37222 -1.18623,-0.49007 -1.18304,-0.15718 -0.0925,-0.0124 -0.6412,0.0435 -1.47261,0.0627 -0.3352,0.0897 -0.906,0.2424 -1.15554,0.77202 -0.57708,0.28397 -0.77632,0.57021 -1.0786,1.38546 -0.34292,0.51219 -0.0481,0.0718 -0.22436,0.66425 m 83.08819,-25.5106 -0.17614,-0.5038 -0.458,-0.76451 -0.13319,-0.13535 -0.41464,-0.42131 -1.08332,-0.78932 -1.38985,-0.69052 -1.10751,-0.34721 -0.12012,-0.0377 -0.88781,-0.0987 -1.01723,0.13631 -0.59172,0.0793 -1.1996,0.23251 -0.87724,0.48618 -0.17263,0.14269 -1.3007,0.87485 -0.52846,0.57426 -0.0792,0.1282 -0.62638,1.01391 -0.56545,1.17847 -0.16214,0.39199 6.11929,0 7.25669,0 0.30827,0 -0.30827,-0.56389 -0.48462,-0.88648 z"
       style="fill:none;stroke:#000000;stroke-width:1.5;stroke-miterlimit:4;stroke-opacity:1;stroke-dasharray:none"
       clip-path="url(#clipPath8827)" />
  </g>
</svg>
