<?xml version="1.0" encoding="UTF-8" standalone="no"?>
<svg
   xmlns:dc="http://purl.org/dc/elements/1.1/"
   xmlns:cc="http://creativecommons.org/ns#"
   xmlns:rdf="http://www.w3.org/1999/02/22-rdf-syntax-ns#"
   xmlns:svg="http://www.w3.org/2000/svg"
   xmlns="http://www.w3.org/2000/svg"
   xmlns:sodipodi="http://sodipodi.sourceforge.net/DTD/sodipodi-0.dtd"
   xmlns:inkscape="http://www.inkscape.org/namespaces/inkscape"
   width="445.8284"
   height="189.54688"
   viewBox="-61.928009 -26.125 125.82269 53.494341"
   version="1.1"
   id="svg4025"
   inkscape:version="0.47 r22583"
   sodipodi:docname="120 Retro Back-top.svg">
  <metadata
     id="metadata4037">
    <rdf:RDF>
      <cc:Work
         rdf:about="">
        <dc:format>image/svg+xml</dc:format>
        <dc:type
           rdf:resource="http://purl.org/dc/dcmitype/StillImage" />
        <dc:title>svgOutput</dc:title>
      </cc:Work>
    </rdf:RDF>
  </metadata>
  <defs
     id="defs4035">
    <inkscape:perspective
       sodipodi:type="inkscape:persp3d"
       inkscape:vp_x="0 : 92.568733 : 1"
       inkscape:vp_y="0 : 1000 : 0"
       inkscape:vp_z="438.85989 : 92.568733 : 1"
       inkscape:persp3d-origin="219.42995 : 61.712489 : 1"
       id="perspective4039" />
    <inkscape:perspective
       id="perspective10687"
       inkscape:persp3d-origin="0.5 : 0.33333333 : 1"
       inkscape:vp_z="1 : 0.5 : 1"
       inkscape:vp_y="0 : 1000 : 0"
       inkscape:vp_x="0 : 0.5 : 1"
       sodipodi:type="inkscape:persp3d" />
    <clipPath
       clipPathUnits="userSpaceOnUse"
       id="clipPath10675">
      <rect
         style="fill:#ffffff;fill-opacity:1;stroke:#000000;stroke-width:0.41380334;stroke-miterlimit:4;stroke-opacity:1;stroke-dasharray:none;stroke-dashoffset:0"
         id="rect10677"
         width="19.541557"
         height="19.541557"
         x="-25.855974"
         y="-1.2246919"
         ry="0.13845882" />
    </clipPath>
    <inkscape:perspective
       id="perspective10715"
       inkscape:persp3d-origin="0.5 : 0.33333333 : 1"
       inkscape:vp_z="1 : 0.5 : 1"
       inkscape:vp_y="0 : 1000 : 0"
       inkscape:vp_x="0 : 0.5 : 1"
       sodipodi:type="inkscape:persp3d" />
    <clipPath
       clipPathUnits="userSpaceOnUse"
       id="clipPath10675-7">
      <rect
         style="fill:#ffffff;fill-opacity:1;stroke:#000000;stroke-width:0.41380334;stroke-miterlimit:4;stroke-opacity:1;stroke-dasharray:none;stroke-dashoffset:0"
         id="rect10677-0"
         width="19.541557"
         height="19.541557"
         x="-25.855974"
         y="-1.2246919"
         ry="0.13845882" />
    </clipPath>
    <clipPath
       clipPathUnits="userSpaceOnUse"
       id="clipPath10764">
      <path
         style="fill:#ffffff;fill-opacity:1;stroke:#000000;stroke-width:0.28222224px;stroke-linecap:butt;stroke-linejoin:miter;stroke-opacity:1"
         d="m -61.468432,-25.577511 0.229789,50.783265 16.783751,3.667667 18.144105,-3.208091 0.689367,-27.8044106 49.634322,1.14894255 3.906404,25.73631605 30.791665,2.297884 5.285136,-17.004349 -6.663868,-22.978855 0.229788,-13.557523 -119.030459,0.919154 z"
         id="path10766"
         sodipodi:nodetypes="cccccccccccc" />
    </clipPath>
    <inkscape:perspective
       id="perspective10776"
       inkscape:persp3d-origin="0.5 : 0.33333333 : 1"
       inkscape:vp_z="1 : 0.5 : 1"
       inkscape:vp_y="0 : 1000 : 0"
       inkscape:vp_x="0 : 0.5 : 1"
       sodipodi:type="inkscape:persp3d" />
    <clipPath
       clipPathUnits="userSpaceOnUse"
       id="clipPath10675-7-3">
      <rect
         style="fill:#ffffff;fill-opacity:1;stroke:#000000;stroke-width:0.41380334;stroke-miterlimit:4;stroke-opacity:1;stroke-dasharray:none;stroke-dashoffset:0"
         id="rect10677-0-9"
         width="19.541557"
         height="19.541557"
         x="-25.855974"
         y="-1.2246919"
         ry="0.13845882" />
    </clipPath>
    <inkscape:perspective
       id="perspective10806"
       inkscape:persp3d-origin="0.5 : 0.33333333 : 1"
       inkscape:vp_z="1 : 0.5 : 1"
       inkscape:vp_y="0 : 1000 : 0"
       inkscape:vp_x="0 : 0.5 : 1"
       sodipodi:type="inkscape:persp3d" />
    <clipPath
       clipPathUnits="userSpaceOnUse"
       id="clipPath10764-8">
      <path
         style="fill:#ffffff;fill-opacity:1;stroke:#000000;stroke-width:0.28222224px;stroke-linecap:butt;stroke-linejoin:miter;stroke-opacity:1"
         d="m -61.468432,-25.577511 0.229789,50.783265 16.783751,3.667667 18.144105,-3.208091 0.689367,-27.8044106 49.634322,1.14894255 3.906404,25.73631605 30.791665,2.297884 5.285136,-17.004349 -6.663868,-22.978855 0.229788,-13.557523 -119.030459,0.919154 z"
         id="path10766-6"
         sodipodi:nodetypes="cccccccccccc" />
    </clipPath>
    <inkscape:perspective
       id="perspective10838"
       inkscape:persp3d-origin="0.5 : 0.33333333 : 1"
       inkscape:vp_z="1 : 0.5 : 1"
       inkscape:vp_y="0 : 1000 : 0"
       inkscape:vp_x="0 : 0.5 : 1"
       sodipodi:type="inkscape:persp3d" />
    <clipPath
       clipPathUnits="userSpaceOnUse"
       id="clipPath10675-7-3-5">
      <rect
         style="fill:#ffffff;fill-opacity:1;stroke:#000000;stroke-width:0.41380334;stroke-miterlimit:4;stroke-opacity:1;stroke-dasharray:none;stroke-dashoffset:0"
         id="rect10677-0-9-7"
         width="19.541557"
         height="19.541557"
         x="-25.855974"
         y="-1.2246919"
         ry="0.13845882" />
    </clipPath>
    <inkscape:perspective
       id="perspective10868"
       inkscape:persp3d-origin="0.5 : 0.33333333 : 1"
       inkscape:vp_z="1 : 0.5 : 1"
       inkscape:vp_y="0 : 1000 : 0"
       inkscape:vp_x="0 : 0.5 : 1"
       sodipodi:type="inkscape:persp3d" />
    <inkscape:perspective
       id="perspective10892"
       inkscape:persp3d-origin="0.5 : 0.33333333 : 1"
       inkscape:vp_z="1 : 0.5 : 1"
       inkscape:vp_y="0 : 1000 : 0"
       inkscape:vp_x="0 : 0.5 : 1"
       sodipodi:type="inkscape:persp3d" />
  </defs>
  <sodipodi:namedview
     pagecolor="#ffffff"
     bordercolor="#666666"
     borderopacity="1"
     objecttolerance="10"
     gridtolerance="10"
     guidetolerance="10"
     inkscape:pageopacity="0"
     inkscape:pageshadow="2"
     inkscape:window-width="969"
     inkscape:window-height="597"
     id="namedview4033"
     showgrid="false"
     inkscape:zoom="1.2275"
     inkscape:cx="58.467888"
     inkscape:cy="105.62742"
     inkscape:window-x="0"
     inkscape:window-y="0"
     inkscape:window-maximized="0"
     inkscape:current-layer="layer23" />
  <title
     id="title4027">svgOutput</title>
  <desc
     id="desc4029">made with tinkercad</desc>
  <g
     inkscape:groupmode="layer"
     id="layer22"
     inkscape:label="bg"
     transform="translate(0.75265273,0.31296254)">
    <g
       transform="translate(0.11488162,0.15883562)"
       style="display:inline"
       id="g10754"
       clip-path="url(#clipPath10764-8)">
      <path
         style="fill:#ffffff;fill-opacity:1;stroke:#000000;stroke-width:0.42333335;stroke-miterlimit:4;stroke-opacity:1;stroke-dasharray:none"
         id="path4031"
         d="M -12.578588,-0.00521719 -12.568054,0 -12.288,0.13869976 l 0.07518,0.037235 0.301266,0.11725516 0.357103,0.19762025 0.04652,0.0342282 1.157404,0.85159593 0.235443,0.1729514 0.0014,0.00131 0.2967696,0.2786533 0.7124729,0.8225511 0.1929388,0.2395734 0.23489,0.3345678 0.4160433,0.7020719 0.068573,0.1372476 0.022432,0.044898 L -7.835,4.855 -7.5139999,5.823 -7.322,6.7449999 l 0.012258,0.1248503 0.086676,1.2203912 -0.00315,0.101759 -0.011584,0.3740902 -0.041605,0.4065084 -0.014257,0.239707 -0.0256,0.1497231 -0.077545,0.4535389 -0.038507,0.1625576 -0.251359,0.9178944 -0.2201562,0.572059 -0.061159,0.155629 -0.082079,0.14577 -0.1419335,0.251063 -0.1512012,0.267459 -0.4756775,0.841417 -0.075816,0.09993 -0.4169092,0.537389 -0.1363087,0.136975 -0.5616577,0.592861 -0.183049,0.155486 -0.49042,0.416573 -0.197468,0.135909 -0.334567,0.234891 -0.03261,0.01782 -1.04032,0.568546 -0.09067,0.04956 -0.02906,0.01588 -0.378773,0.153416 -0.250366,0.103929 -0.123824,0.03542 -0.988223,0.282678 -0.210527,0.03811 -0.874556,0.126545 -0.815618,0.03467 -0.213989,-1.34e-4 -0.120394,-0.01418 -1.329689,-0.156574 -0.120798,-0.02096 -0.06961,-0.01208 -0.12898,-0.04277 -0.851908,-0.235304 -0.09892,-0.02733 -0.877157,-0.371838 -0.182144,-0.09114 -0.436791,-0.254526 -0.36977,-0.215473 -0.01599,-0.0093 -0.442045,-0.318099 -0.140173,-0.100201 -0.416908,-0.349302 -0.136976,-0.136176 -0.437712,-0.429044 -0.0242,-0.03017 -0.783617,-0.977001 -0.103397,-0.138041 -0.06116,-0.109527 -0.288367,-0.538824 -0.417173,-0.779511 -0.07781,-0.205063 -0.319969,-0.958193 -0.0033,-0.01 -0.02758,-0.138307 -0.02982,-0.143027 -0.136601,-0.6552548 -0.08928,-1.0167046 -0.01412,-0.1509657 3.83e-4,-0.00552 0.0023,-0.033477 0.100298,-1.4470005 0.136999,-0.6578851 0.02942,-0.1412635 0.09194,-0.31006 0.361412,-1.0452752 0.0165,-0.047703 0.06742,-0.1239176 0.157882,-0.322895 0.110812,-0.2266278 0.61713,-0.9777003 0.117788,-0.1594937 0.617996,-0.7237408 0.392641,-0.378772 0.203465,-0.183078 0.858953,-0.66740171 0.45265,-0.2682364 0.249423,-0.14780625 0.287941,-0.15189873 L -19.457321,0 -18.990404,-0.20323691 -18.945,-0.223 l 0.151499,-0.0402398 0.585926,-0.17855164 1.001103,-0.19588674 0.217588,-0.025583 0.604883,-0.0323441 0.481162,-0.0257285 0.125516,0.003731 0.814751,0.0580726 0.16509,0.0267821 1.001102,0.19588676 0.968166,0.32416656 0.249626,0.10747768 M 0.36003476,-22.730339 l -0.037361,0.06274 -0.013796,0.02317 -9.389e-4,0.0019 -0.001878,0.001 -0.12547946,-0.03378 -0.003164,-0.0012 -7.3025e-4,-0.0026 -0.0106175,-0.06177 0.001391,-0.0024 0.001182,-5.2e-4 8.6933e-4,-1.05e-4 8.6934e-4,1.73e-4 0.001043,5.23e-4 0.16215807,-0.05019 0.026452,0.06308 M -48.525181,24.553627 -49.152,24.347382 l -1.154828,-0.379979 -0.0025,-9.86e-4 -1.705746,-0.781965 -0.0027,-0.0015 -1.083568,-0.625174 -1.528977,-1.085565 -0.0026,-0.002 -0.715053,-0.608196 -0.406941,-0.38199 -0.277156,-0.260161 -0.0019,-0.0019 -0.642151,-0.684095 -0.608196,-0.715055 -0.05967,-0.07985 -0.501583,-0.671161 -0.0014,-0.0018 -9.04e-4,-0.0014 -0.524307,-0.777971 -0.107476,-0.186279 -0.413315,-0.716366 -0.104385,-0.180922 -0.0021,-0.0045 -0.281627,-0.558262 -0.260655,-0.569247 -0.17086,-0.426907 -0.177681,-0.443942 -0.573029,-1.91222 -0.05514,-0.184009 -0.127831,-0.612192 -7.93e-4,-0.0032 -0.104862,-0.617184 -3.09e-4,-0.0041 -0.111855,-0.9307695 -0.02641,-0.9036961 -0.02457,-0.840826 -0.01294,-0.4425874 1.68e-4,-0.00226 0.06392,-0.9357633 0.01009,-0.072113 0.206623,-1.4768391 6.26e-4,-0.00314 0.279739,-1.1632929 0.02728,-0.1134543 0.05849,-0.2432435 0.389393,-1.1841145 0.0011,-0.00332 5.88e-4,-0.00187 0.279998,-0.705 0.1376,-0.3686081 L -58.920212,0 l 0.680306,-1.8189383 2.383606,-6.3730621 1.531952,-4.0959996 1.060325,-2.835 -9.61e-4,0 -0.01099,0 -1.713024,0 0,-1.261001 0,-1.24 0.501743,0 0,-2.855999 0,-4.096 0,-0.548001 1.239254,0 4.096001,0 8.192001,0 8.191997,0 16.384001,0 8.1920006,0 8.1920004,0 8.1920004,0 8.1920006,0 16.384001,0 8.191997,0 8.192001,0 1.376286,0 0.189266,0 0,-9.99e-4 2.530449,0 0.465061,0 0,9.99e-4 0.16124,0 0.340698,0 0.698063,0 0,0.548001 0,4.096 0,2.855999 0.16124,0 0.02898,0 0.311722,0 0,1.24 0,1.261001 -2.167008,0 -0.317001,0 0.317001,0.80474 0.799751,2.03026 1.61348,4.0959996 1.61348,4.0960002 0.06929,0.1758978 1.355297,3.44057576 L 58.888191,0 l 0.32843,0.83375657 0.322644,0.81907013 0.04536,0.1142434 -3.13e-4,1.25e-4 -0.0046,0.00185 -6.1e-5,3e-5 3.36e-4,9.374e-4 0.007,0.019478 0.09217,0.2585051 0.602425,1.6896133 3.32e-4,0.00112 3.81e-4,0.00128 4.43e-4,0.00246 0.07781,0.3535242 0.392567,1.7836223 0.110851,0.931756 0.04036,1.3806219 0.02355,0.80546 1.68e-4,0.00229 -3e-5,0.00167 -0.119843,1.4021277 -0.38036,1.884455 -0.144939,0.718071 -6.37e-4,0.0041 -0.739014,2.059251 -9.53e-4,0.003 -4.51e-4,9.39e-4 -7.21e-4,0.0015 -0.660186,1.309137 -0.04387,0.087 -0.98904,1.595006 -0.503998,0.674391 -0.05725,0.07661 -0.0021,0.0026 -0.0012,0.0012 -1.572415,1.659276 -0.362003,0.382 -1.467998,1.171001 -0.633,0.407041 -0.550423,0.353941 -0.0029,0.0017 -1.520969,0.799932 -0.0017,7.69e-4 -1.750664,0.675098 -0.0022,7.56e-4 -0.0016,4.02e-4 -0.265587,0.06166 -1.040866,0.241672 -1.530465,0.355349 -0.204021,0.04737 -1.245338,0.115844 -0.0041,4.68e-4 -1.250332,0.02397 -0.0017,-3.2e-5 -1.713711,-0.125832 -0.0017,-1.54e-4 -1.199795,-0.215548 -0.645744,-0.116008 -0.0033,-6.83e-4 -0.294345,-0.08474 -1.20765,-0.347681 -0.0022,-7.55e-4 -1.739678,-0.701063 -0.0017,-7.69e-4 -0.0022,-0.0013 -0.199276,-0.112117 -1.841999,-1.036351 -0.002,-0.0015 -1.2743,-0.903793 -0.199925,-0.170048 -0.515121,-0.438141 -0.0012,-0.0011 -0.261386,-0.264555 -1.056855,-1.069662 -0.0012,-0.0012 -0.0012,-0.0015 -1.177112,-1.457662 -3.17e-4,-3.91e-4 -0.0021,-0.0034 -0.760985,-1.182421 -0.261398,-0.496721 -0.539532,-1.025248 -10e-4,-0.0023 L 28.672001,14.646927 28.487,14.201 l -0.55123,-1.913 -0.141769,-0.492 -3.02e-4,-0.0019 -0.279627,-1.854525 -1.66e-4,-0.00312 -0.06506,-1.7444973 -0.0048,-0.1300001 0.08988,-1.4031267 9.4e-5,-0.00167 2.4e-5,-1.773e-4 2.35e-4,-0.00168 0.19574,-1.3941388 0.279434,-1.1652079 0.08508,-0.3547628 5.13e-4,-0.00224 5.23e-4,-0.00159 0.576479,-1.6020165 0.164532,-0.4572341 7.36e-4,-0.00173 L 29.705221,0 l 0.137705,-0.26597199 0.0011,-0.002028 0.0014,-0.002059 0.966709,-1.42110261 0.09028,-0.1069787 1.119107,-1.326108 0.0016,-0.00191 5.03e-4,-4.883e-4 5.69e-4,-5.529e-4 0.0385,-0.038613 0.705292,-0.7070642 0.05,-0.050126 -0.05,0 -4.096001,0 -4.096001,0 -8.191999,0 -16.384001,0 -8.1920004,0 -8.1920006,0 -8.191999,0 -4.096001,0 -3.92223,0 -0.173771,0 -0.049,0 3e-5,2.65e-5 0.0014,0.00148 0.04752,0.048507 1.067002,1.0889902 1.350216,1.7217243 0.0025,0.00332 L -29.725187,0 l 0.486389,0.82655329 0.0012,0.002295 0.530809,1.21711781 0.219198,0.502609 0.304598,0.886828 0.0011,0.00299 3.97e-4,0.00161 0.167784,0.6559978 0.219703,0.8589997 0.168778,0.9227805 4.61e-4,0.0041 0.173075,2.3101187 0.01368,0.1825867 -0.06691,1.4051427 -1.09e-4,0.00247 -1.7e-5,1.536e-4 -0.119823,1.0874092 -3.55e-4,0.0025 -0.168778,0.923779 -0.141769,0.492 -0.55123,1.913 -0.348539,0.870849 -0.0018,0.0037 -0.677076,1.308432 -0.328594,0.634998 -1.247351,1.796627 -0.815922,0.948746 -0.003,0.0039 -0.0023,0.0022 -0.856455,0.836573 -0.259807,0.253778 -0.0018,0.0017 -0.715053,0.608197 -0.002,0.0015 -1.716373,1.190021 -0.08125,0.05633 -1.094555,0.6052 -0.0027,0.0015 -0.222438,0.100004 -1.203679,0.541147 -0.0025,9.86e-4 -1.781643,0.586224 -0.0024,6.56e-4 -0.09504,0.02172 -1.010754,0.230959 -0.113598,0.02596 -0.003,3.78e-4 -0.617183,0.104862 -0.767018,0.07178 -1.100513,0.10299 -0.625176,0.01198 -0.625171,-0.01198 -0.0028,5.1e-5 -0.0021,-1.45e-4 -0.934624,-0.06377 -0.0025,-2.92e-4 -0.931771,-0.110853 -0.922779,-0.168778 -0.821964,-0.193138 -0.09183,-0.02158 -0.0032,-7.95e-4 m 4.245053,-16.2117456 -0.0012,7.419e-4 -7.4e-4,7.429e-4 -2.98e-4,3.462e-4 -2.1e-4,3.376e-4 -3.8e-5,5.82e-5 -1.98e-4,3.967e-4 -1.99e-4,4.95e-4 -1.98e-4,9.899e-4 0,8.411e-4 0.05139,0.1011687 0.0094,0.018595 5e-5,1.974e-4 0,9.92e-5 0,9.92e-5 4.9e-5,2.966e-4 5e-5,2.479e-4 1.49e-4,3.462e-4 9.9e-5,3.967e-4 4.9e-5,9.83e-5 1.49e-4,2.975e-4 2.98e-4,4.454e-4 3.93e-4,4.949e-4 3.47e-4,3.462e-4 4.46e-4,3.472e-4 4.46e-4,2.965e-4 3.09e-4,1.555e-4 8.8e-5,4.29e-5 5.3e-4,2.031e-4 1.11e-4,4.39e-5 3.47e-4,4.96e-5 3.97e-4,4.96e-5 2.97e-4,4.96e-5 8.4e-4,0 0.0036,-0.00277 0.05447,-0.020426 0.04438,-0.016644 8.43e-4,-0.00183 0.02091,-0.082694 -1.95e-4,-0.00168 -9.42e-4,-0.00173 -0.02138,-0.03253 -4.84e-4,-7.382e-4 -0.0056,-0.00153 -0.0846,-0.031366 -0.07414,0.064634 M 0.04068162,-21.699589 0.38066491,-21.685183 0.396,-21.684 0.73500001,-21.788 1.021,-21.999001 l 0.198,-0.293998 0.00285,-0.0088 0.039069,-0.226168 0.047801,-0.276716 2.8e-4,-0.0093 L 1.219,-23.157 1.021,-23.451 0.88409954,-23.552 0.73500001,-23.662001 0.396,-23.764999 0.042,-23.75 0,-23.731373 l -0.32100001,0.142372 -0.289,0.274 -0.004068,0.0084 -0.16987985,0.483578 -0.002052,0.009 0.03,0.307998 0.14599997,0.371001 0.289,0.274 L 0,-21.717743 l 0.0087035,0.0039 0.02067374,0.0092 0.0095975,0.005 0.0017069,7.2e-5 M -15.989872,8.1662035 l 0.048,-0.1168928 0.0057,-0.013988 -3.24e-4,-0.01578 -0.0074,-0.00472 -0.05013,-0.032052 -0.0032,-0.00183 -0.0034,3.429e-4 -0.03655,0.00295 -0.02191,0.00177 -0.04,0.034 -0.0016,0.011858 0.02529,0.037809 0.06225,0.093071 0.01599,0.00813 0.0072,-0.00466 z" />
    </g>
  </g>
  <g
     inkscape:groupmode="layer"
     id="layer21"
     inkscape:label="lay"
     style="display:inline"
     transform="translate(0.75265273,0.31296254)">
    <path
       style="fill:#ffffff;fill-opacity:1;stroke:#000000;stroke-width:0.42333335;stroke-linecap:butt;stroke-linejoin:miter;stroke-miterlimit:4;stroke-opacity:1;stroke-dasharray:none;display:inline"
       d="m -56.723211,-26.186863 0.04759,12.725384 1.076549,0.03399 -6.562605,18.0938171 12.204278,14.3084199 8.157493,6.434078 11.489426,-7.123446 c 0.0045,-6.893656 6.819697,-13.4820539 1.493627,-20.3757097 l 58.156212,-5e-7 c -5.193719,7.5336363 -3.669613,16.6668932 0.812423,22.1327792 4.196778,4.874199 10.627383,6.908228 14.476678,6.705684 3.849295,-0.202544 7.963169,-1.423833 12.682869,-5.38201 6.693044,-7.108752 6.293208,-15.7527932 2.999499,-22.5175862 l -4.87931,-12.2916068 0.999788,-0.01194 -0.05575,-12.771286 -113.098767,0.03943 z"
       id="path10858"
       sodipodi:nodetypes="cccccccccczcccccc" />
    <path
       sodipodi:type="arc"
       style="fill:#ffffff;fill-opacity:1;stroke:#000000;stroke-width:1.5;stroke-miterlimit:4;stroke-opacity:1;stroke-dasharray:none;stroke-dashoffset:0;display:inline"
       id="path10882"
       sodipodi:cx="379.01535"
       sodipodi:cy="124.47872"
       sodipodi:rx="64.729797"
       sodipodi:ry="64.729797"
       d="m 443.74515,124.47872 c 0,35.74928 -28.98052,64.7298 -64.7298,64.7298 -35.74928,0 -64.7298,-28.98052 -64.7298,-64.7298 0,-35.749278 28.98052,-64.729796 64.7298,-64.729796 35.74928,0 64.7298,28.980518 64.7298,64.729796 z"
       transform="matrix(0.28594441,0,0,0.28594441,-63.958879,-27.261197)" />
    <path
       transform="matrix(0.28594441,0,0,0.28594441,-152.3344,-27.261197)"
       d="m 443.74515,124.47872 c 0,35.74928 -28.98052,64.7298 -64.7298,64.7298 -35.74928,0 -64.7298,-28.98052 -64.7298,-64.7298 0,-35.749278 28.98052,-64.729796 64.7298,-64.729796 35.74928,0 64.7298,28.980518 64.7298,64.729796 z"
       sodipodi:ry="64.729797"
       sodipodi:rx="64.729797"
       sodipodi:cy="124.47872"
       sodipodi:cx="379.01535"
       id="path10906"
       style="fill:#ffffff;fill-opacity:1;stroke:#000000;stroke-width:1.5;stroke-miterlimit:4;stroke-opacity:1;stroke-dasharray:none;stroke-dashoffset:0;display:inline"
       sodipodi:type="arc" />
    <path
       style="fill:none;stroke:#000000;stroke-width:1.5;stroke-linecap:butt;stroke-linejoin:miter;stroke-miterlimit:4;stroke-opacity:1;stroke-dasharray:none"
       d="m 419.98487,44.904035 -394.438857,0.08646 -3.903075,8.5e-4"
       id="path10908"
       transform="matrix(0.28222223,0,0,0.28222223,-61.928009,-26.125)"
       sodipodi:nodetypes="ccc" />
    <path
       sodipodi:type="arc"
       style="fill:#ffffff;fill-opacity:1;stroke:#000000;stroke-width:1.5;stroke-miterlimit:4;stroke-opacity:1;stroke-dasharray:none;stroke-dashoffset:0;display:inline"
       id="path12541"
       sodipodi:cx="379.01535"
       sodipodi:cy="124.47872"
       sodipodi:rx="64.729797"
       sodipodi:ry="64.729797"
       d="m 443.74515,124.47872 c 0,35.74928 -28.98052,64.7298 -64.7298,64.7298 -35.74928,0 -64.7298,-28.98052 -64.7298,-64.7298 0,-35.749278 28.98052,-64.729796 64.7298,-64.729796 35.74928,0 64.7298,28.980518 64.7298,64.729796 z"
       transform="matrix(-0.28594441,0,0,0.28594441,64.420241,-27.261197)" />
  </g>
  <g
     inkscape:groupmode="layer"
     id="layer19"
     inkscape:label="knob"
     style="display:inline"
     transform="translate(0.75265273,0.31296254)">
    <path
       clip-path="url(#clipPath10675-7-3-5)"
       style="fill:#ffffff;fill-opacity:1;stroke:#000000;stroke-width:0.42333335;stroke-miterlimit:4;stroke-opacity:1;stroke-dasharray:none;display:inline"
       id="path4031-9"
       d="M -12.578588,-0.00521719 -12.568054,0 -12.288,0.13869976 l 0.07518,0.037235 0.301266,0.11725516 0.357103,0.19762025 0.04652,0.0342282 1.157404,0.85159593 0.235443,0.1729514 0.0014,0.00131 0.2967696,0.2786533 0.7124729,0.8225511 0.1929388,0.2395734 0.23489,0.3345678 0.4160433,0.7020719 0.068573,0.1372476 0.022432,0.044898 L -7.835,4.855 -7.5139999,5.823 -7.322,6.7449999 l 0.012258,0.1248503 0.086676,1.2203912 -0.00315,0.101759 -0.011584,0.3740902 -0.041605,0.4065084 -0.014257,0.239707 -0.0256,0.1497231 -0.077545,0.4535389 -0.038507,0.1625576 -0.251359,0.9178944 -0.2201562,0.572059 -0.061159,0.155629 -0.082079,0.14577 -0.1419335,0.251063 -0.1512012,0.267459 -0.4756775,0.841417 -0.075816,0.09993 -0.4169092,0.537389 -0.1363087,0.136975 -0.5616577,0.592861 -0.183049,0.155486 -0.49042,0.416573 -0.197468,0.135909 -0.334567,0.234891 -0.03261,0.01782 -1.04032,0.568546 -0.09067,0.04956 -0.02906,0.01588 -0.378773,0.153416 -0.250366,0.103929 -0.123824,0.03542 -0.988223,0.282678 -0.210527,0.03811 -0.874556,0.126545 -0.815618,0.03467 -0.213989,-1.34e-4 -0.120394,-0.01418 -1.329689,-0.156574 -0.120798,-0.02096 -0.06961,-0.01208 -0.12898,-0.04277 -0.851908,-0.235304 -0.09892,-0.02733 -0.877157,-0.371838 -0.182144,-0.09114 -0.436791,-0.254526 -0.36977,-0.215473 -0.01599,-0.0093 -0.442045,-0.318099 -0.140173,-0.100201 -0.416908,-0.349302 -0.136976,-0.136176 -0.437712,-0.429044 -0.0242,-0.03017 -0.783617,-0.977001 -0.103397,-0.138041 -0.06116,-0.109527 -0.288367,-0.538824 -0.417173,-0.779511 -0.07781,-0.205063 -0.319969,-0.958193 -0.0033,-0.01 -0.02758,-0.138307 -0.02982,-0.143027 -0.136601,-0.6552548 -0.08928,-1.0167046 -0.01412,-0.1509657 3.83e-4,-0.00552 0.0023,-0.033477 0.100298,-1.4470005 0.136999,-0.6578851 0.02942,-0.1412635 0.09194,-0.31006 0.361412,-1.0452752 0.0165,-0.047703 0.06742,-0.1239176 0.157882,-0.322895 0.110812,-0.2266278 0.61713,-0.9777003 0.117788,-0.1594937 0.617996,-0.7237408 0.392641,-0.378772 0.203465,-0.183078 0.858953,-0.66740171 0.45265,-0.2682364 0.249423,-0.14780625 0.287941,-0.15189873 L -19.457321,0 -18.990404,-0.20323691 -18.945,-0.223 l 0.151499,-0.0402398 0.585926,-0.17855164 1.001103,-0.19588674 0.217588,-0.025583 0.604883,-0.0323441 0.481162,-0.0257285 0.125516,0.003731 0.814751,0.0580726 0.16509,0.0267821 1.001102,0.19588676 0.968166,0.32416656 0.249626,0.10747768 M 0.36003476,-22.730339 l -0.037361,0.06274 -0.013796,0.02317 -9.389e-4,0.0019 -0.001878,0.001 -0.12547946,-0.03378 -0.003164,-0.0012 -7.3025e-4,-0.0026 -0.0106175,-0.06177 0.001391,-0.0024 0.001182,-5.2e-4 8.6933e-4,-1.05e-4 8.6934e-4,1.73e-4 0.001043,5.23e-4 0.16215807,-0.05019 0.026452,0.06308 M -48.525181,24.553627 -49.152,24.347382 l -1.154828,-0.379979 -0.0025,-9.86e-4 -1.705746,-0.781965 -0.0027,-0.0015 -1.083568,-0.625174 -1.528977,-1.085565 -0.0026,-0.002 -0.715053,-0.608196 -0.406941,-0.38199 -0.277156,-0.260161 -0.0019,-0.0019 -0.642151,-0.684095 -0.608196,-0.715055 -0.05967,-0.07985 -0.501583,-0.671161 -0.0014,-0.0018 -9.04e-4,-0.0014 -0.524307,-0.777971 -0.107476,-0.186279 -0.413315,-0.716366 -0.104385,-0.180922 -0.0021,-0.0045 -0.281627,-0.558262 -0.260655,-0.569247 -0.17086,-0.426907 -0.177681,-0.443942 -0.573029,-1.91222 -0.05514,-0.184009 -0.127831,-0.612192 -7.93e-4,-0.0032 -0.104862,-0.617184 -3.09e-4,-0.0041 -0.111855,-0.9307695 -0.02641,-0.9036961 -0.02457,-0.840826 -0.01294,-0.4425874 1.68e-4,-0.00226 0.06392,-0.9357633 0.01009,-0.072113 0.206623,-1.4768391 6.26e-4,-0.00314 0.279739,-1.1632929 0.02728,-0.1134543 0.05849,-0.2432435 0.389393,-1.1841145 0.0011,-0.00332 5.88e-4,-0.00187 0.279998,-0.705 0.1376,-0.3686081 L -58.920212,0 l 0.680306,-1.8189383 2.383606,-6.3730621 1.531952,-4.0959996 1.060325,-2.835 -9.61e-4,0 -0.01099,0 -1.713024,0 0,-1.261001 0,-1.24 0.501743,0 0,-2.855999 0,-4.096 0,-0.548001 1.239254,0 4.096001,0 8.192001,0 8.191997,0 16.384001,0 8.1920006,0 8.1920004,0 8.1920004,0 8.1920006,0 16.384001,0 8.191997,0 8.192001,0 1.376286,0 0.189266,0 0,-9.99e-4 2.530449,0 0.465061,0 0,9.99e-4 0.16124,0 0.340698,0 0.698063,0 0,0.548001 0,4.096 0,2.855999 0.16124,0 0.02898,0 0.311722,0 0,1.24 0,1.261001 -2.167008,0 -0.317001,0 0.317001,0.80474 0.799751,2.03026 1.61348,4.0959996 1.61348,4.0960002 0.06929,0.1758978 1.355297,3.44057576 L 58.888191,0 l 0.32843,0.83375657 0.322644,0.81907013 0.04536,0.1142434 -3.13e-4,1.25e-4 -0.0046,0.00185 -6.1e-5,3e-5 3.36e-4,9.374e-4 0.007,0.019478 0.09217,0.2585051 0.602425,1.6896133 3.32e-4,0.00112 3.81e-4,0.00128 4.43e-4,0.00246 0.07781,0.3535242 0.392567,1.7836223 0.110851,0.931756 0.04036,1.3806219 0.02355,0.80546 1.68e-4,0.00229 -3e-5,0.00167 -0.119843,1.4021277 -0.38036,1.884455 -0.144939,0.718071 -6.37e-4,0.0041 -0.739014,2.059251 -9.53e-4,0.003 -4.51e-4,9.39e-4 -7.21e-4,0.0015 -0.660186,1.309137 -0.04387,0.087 -0.98904,1.595006 -0.503998,0.674391 -0.05725,0.07661 -0.0021,0.0026 -0.0012,0.0012 -1.572415,1.659276 -0.362003,0.382 -1.467998,1.171001 -0.633,0.407041 -0.550423,0.353941 -0.0029,0.0017 -1.520969,0.799932 -0.0017,7.69e-4 -1.750664,0.675098 -0.0022,7.56e-4 -0.0016,4.02e-4 -0.265587,0.06166 -1.040866,0.241672 -1.530465,0.355349 -0.204021,0.04737 -1.245338,0.115844 -0.0041,4.68e-4 -1.250332,0.02397 -0.0017,-3.2e-5 -1.713711,-0.125832 -0.0017,-1.54e-4 -1.199795,-0.215548 -0.645744,-0.116008 -0.0033,-6.83e-4 -0.294345,-0.08474 -1.20765,-0.347681 -0.0022,-7.55e-4 -1.739678,-0.701063 -0.0017,-7.69e-4 -0.0022,-0.0013 -0.199276,-0.112117 -1.841999,-1.036351 -0.002,-0.0015 -1.2743,-0.903793 -0.199925,-0.170048 -0.515121,-0.438141 -0.0012,-0.0011 -0.261386,-0.264555 -1.056855,-1.069662 -0.0012,-0.0012 -0.0012,-0.0015 -1.177112,-1.457662 -3.17e-4,-3.91e-4 -0.0021,-0.0034 -0.760985,-1.182421 -0.261398,-0.496721 -0.539532,-1.025248 -10e-4,-0.0023 L 28.672001,14.646927 28.487,14.201 l -0.55123,-1.913 -0.141769,-0.492 -3.02e-4,-0.0019 -0.279627,-1.854525 -1.66e-4,-0.00312 -0.06506,-1.7444973 -0.0048,-0.1300001 0.08988,-1.4031267 9.4e-5,-0.00167 2.4e-5,-1.773e-4 2.35e-4,-0.00168 0.19574,-1.3941388 0.279434,-1.1652079 0.08508,-0.3547628 5.13e-4,-0.00224 5.23e-4,-0.00159 0.576479,-1.6020165 0.164532,-0.4572341 7.36e-4,-0.00173 L 29.705221,0 l 0.137705,-0.26597199 0.0011,-0.002028 0.0014,-0.002059 0.966709,-1.42110261 0.09028,-0.1069787 1.119107,-1.326108 0.0016,-0.00191 5.03e-4,-4.883e-4 5.69e-4,-5.529e-4 0.0385,-0.038613 0.705292,-0.7070642 0.05,-0.050126 -0.05,0 -4.096001,0 -4.096001,0 -8.191999,0 -16.384001,0 -8.1920004,0 -8.1920006,0 -8.191999,0 -4.096001,0 -3.92223,0 -0.173771,0 -0.049,0 3e-5,2.65e-5 0.0014,0.00148 0.04752,0.048507 1.067002,1.0889902 1.350216,1.7217243 0.0025,0.00332 L -29.725187,0 l 0.486389,0.82655329 0.0012,0.002295 0.530809,1.21711781 0.219198,0.502609 0.304598,0.886828 0.0011,0.00299 3.97e-4,0.00161 0.167784,0.6559978 0.219703,0.8589997 0.168778,0.9227805 4.61e-4,0.0041 0.173075,2.3101187 0.01368,0.1825867 -0.06691,1.4051427 -1.09e-4,0.00247 -1.7e-5,1.536e-4 -0.119823,1.0874092 -3.55e-4,0.0025 -0.168778,0.923779 -0.141769,0.492 -0.55123,1.913 -0.348539,0.870849 -0.0018,0.0037 -0.677076,1.308432 -0.328594,0.634998 -1.247351,1.796627 -0.815922,0.948746 -0.003,0.0039 -0.0023,0.0022 -0.856455,0.836573 -0.259807,0.253778 -0.0018,0.0017 -0.715053,0.608197 -0.002,0.0015 -1.716373,1.190021 -0.08125,0.05633 -1.094555,0.6052 -0.0027,0.0015 -0.222438,0.100004 -1.203679,0.541147 -0.0025,9.86e-4 -1.781643,0.586224 -0.0024,6.56e-4 -0.09504,0.02172 -1.010754,0.230959 -0.113598,0.02596 -0.003,3.78e-4 -0.617183,0.104862 -0.767018,0.07178 -1.100513,0.10299 -0.625176,0.01198 -0.625171,-0.01198 -0.0028,5.1e-5 -0.0021,-1.45e-4 -0.934624,-0.06377 -0.0025,-2.92e-4 -0.931771,-0.110853 -0.922779,-0.168778 -0.821964,-0.193138 -0.09183,-0.02158 -0.0032,-7.95e-4 m 4.245053,-16.2117456 -0.0012,7.419e-4 -7.4e-4,7.429e-4 -2.98e-4,3.462e-4 -2.1e-4,3.376e-4 -3.8e-5,5.82e-5 -1.98e-4,3.967e-4 -1.99e-4,4.95e-4 -1.98e-4,9.899e-4 0,8.411e-4 0.05139,0.1011687 0.0094,0.018595 5e-5,1.974e-4 0,9.92e-5 0,9.92e-5 4.9e-5,2.966e-4 5e-5,2.479e-4 1.49e-4,3.462e-4 9.9e-5,3.967e-4 4.9e-5,9.83e-5 1.49e-4,2.975e-4 2.98e-4,4.454e-4 3.93e-4,4.949e-4 3.47e-4,3.462e-4 4.46e-4,3.472e-4 4.46e-4,2.965e-4 3.09e-4,1.555e-4 8.8e-5,4.29e-5 5.3e-4,2.031e-4 1.11e-4,4.39e-5 3.47e-4,4.96e-5 3.97e-4,4.96e-5 2.97e-4,4.96e-5 8.4e-4,0 0.0036,-0.00277 0.05447,-0.020426 0.04438,-0.016644 8.43e-4,-0.00183 0.02091,-0.082694 -1.95e-4,-0.00168 -9.42e-4,-0.00173 -0.02138,-0.03253 -4.84e-4,-7.382e-4 -0.0056,-0.00153 -0.0846,-0.031366 -0.07414,0.064634 M 0.04068162,-21.699589 0.38066491,-21.685183 0.396,-21.684 0.73500001,-21.788 1.021,-21.999001 l 0.198,-0.293998 0.00285,-0.0088 0.039069,-0.226168 0.047801,-0.276716 2.8e-4,-0.0093 L 1.219,-23.157 1.021,-23.451 0.88409954,-23.552 0.73500001,-23.662001 0.396,-23.764999 0.042,-23.75 0,-23.731373 l -0.32100001,0.142372 -0.289,0.274 -0.004068,0.0084 -0.16987985,0.483578 -0.002052,0.009 0.03,0.307998 0.14599997,0.371001 0.289,0.274 L 0,-21.717743 l 0.0087035,0.0039 0.02067374,0.0092 0.0095975,0.005 0.0017069,7.2e-5 M -15.989872,8.1662035 l 0.048,-0.1168928 0.0057,-0.013988 -3.24e-4,-0.01578 -0.0074,-0.00472 -0.05013,-0.032052 -0.0032,-0.00183 -0.0034,3.429e-4 -0.03655,0.00295 -0.02191,0.00177 -0.04,0.034 -0.0016,0.011858 0.02529,0.037809 0.06225,0.093071 0.01599,0.00813 0.0072,-0.00466 z"
       transform="translate(60.549277,0.6893648)" />
  </g>
  <g
     inkscape:groupmode="layer"
     id="layer23"
     inkscape:label="white out"
     transform="translate(0.75265273,0.31296254)">
    <path
       sodipodi:type="arc"
       style="fill:#ffffff;fill-opacity:1;stroke:#ffffff;stroke-width:1.5;stroke-miterlimit:4;stroke-opacity:1;stroke-dasharray:none;stroke-dashoffset:0"
       id="path10911"
       sodipodi:cx="377.38693"
       sodipodi:cy="121.22188"
       sodipodi:rx="6.9207959"
       sodipodi:ry="6.9207959"
       d="m 384.30773,121.22188 c 0,3.82225 -3.09855,6.92079 -6.9208,6.92079 -3.82225,0 -6.92079,-3.09854 -6.92079,-6.92079 0,-3.82225 3.09854,-6.9208 6.92079,-6.9208 3.82225,0 6.9208,3.09855 6.9208,6.9208 z"
       transform="matrix(0.28222223,0,0,0.28222223,-61.928009,-25.435634)" />
    <path
       style="fill:#ffffff;fill-opacity:1;stroke:#ffffff;stroke-width:0.29177442px;stroke-linecap:butt;stroke-linejoin:miter;stroke-opacity:1"
       d="m -57.79661,-5.9937658 -2.690413,7.0670763 19.269065,-7.9860017 10.541816,5.8422423 1.690099,-1.3554559 1.101427,0.00424 1.68401,-2.0996755 -18.428162,-8.2406807 -13.167842,6.7682552 z"
       id="path12539"
       sodipodi:nodetypes="ccccccccc" />
    <path
       sodipodi:nodetypes="ccccccccc"
       id="path12543"
       d="m 57.739833,-6.4000811 3.201668,7.31253074 -19.139304,-7.82540564 -10.29294,5.8436903 -1.650199,-1.3557918 -1.075424,0.00424 -1.644253,-2.1001959 17.993102,-8.2427236 12.60735,6.3636559 z"
       style="fill:#ffffff;fill-opacity:1;stroke:#ffffff;stroke-width:0.2883454px;stroke-linecap:butt;stroke-linejoin:miter;stroke-opacity:1" />
  </g>
</svg>
