<?xml version="1.0" encoding="UTF-8" standalone="no"?>
<svg
   xmlns:dc="http://purl.org/dc/elements/1.1/"
   xmlns:cc="http://creativecommons.org/ns#"
   xmlns:rdf="http://www.w3.org/1999/02/22-rdf-syntax-ns#"
   xmlns:svg="http://www.w3.org/2000/svg"
   xmlns="http://www.w3.org/2000/svg"
   xmlns:sodipodi="http://sodipodi.sourceforge.net/DTD/sodipodi-0.dtd"
   xmlns:inkscape="http://www.inkscape.org/namespaces/inkscape"
   width="215.34123"
   height="221.3761"
   viewBox="-21 -32.000999 60.774083 62.477256"
   version="1.1"
   id="svg4304"
   inkscape:version="0.47 r22583"
   sodipodi:docname="Sportfinder reticule-top.svg">
  <metadata
     id="metadata4316">
    <rdf:RDF>
      <cc:Work
         rdf:about="">
        <dc:format>image/svg+xml</dc:format>
        <dc:type
           rdf:resource="http://purl.org/dc/dcmitype/StillImage" />
      </cc:Work>
    </rdf:RDF>
  </metadata>
  <defs
     id="defs4314">
    <inkscape:perspective
       sodipodi:type="inkscape:persp3d"
       inkscape:vp_x="0 : 113.38937 : 1"
       inkscape:vp_y="0 : 1000 : 0"
       inkscape:vp_z="148.81889 : 113.38937 : 1"
       inkscape:persp3d-origin="74.409447 : 75.592911 : 1"
       id="perspective4318" />
  </defs>
  <sodipodi:namedview
     pagecolor="#ffffff"
     bordercolor="#666666"
     borderopacity="1"
     objecttolerance="10"
     gridtolerance="10"
     guidetolerance="10"
     inkscape:pageopacity="0"
     inkscape:pageshadow="2"
     inkscape:window-width="739"
     inkscape:window-height="645"
     id="namedview4312"
     showgrid="false"
     inkscape:zoom="0.73585912"
     inkscape:cx="117.55699"
     inkscape:cy="46.147093"
     inkscape:window-x="269"
     inkscape:window-y="0"
     inkscape:window-maximized="0"
     inkscape:current-layer="svg4304" />
  <title
     id="title4306">svgOutput</title>
  <desc
     id="desc4308">made with tinkercad</desc>
  <path
     d="m 29.382311,-23.140406 -1.669548,6.019998 -4.543834,16.38400056 -8.597617,31.00099944 -10.2310004,0 -8.5979452,-31.00099944 -3.882262,-13.99799956 -0.661743,-2.386001 -1.8160504,-6.547998 0,-1.644001 0,-2.048001 0,-1.376998 0.04486,-0.671002 0.0021,-0.032 0.140999,-0.609999 0.234001,-0.515001 0.3279994,-0.421999 0.422001,-0.328001 0.396,-0.180348 0.119999,-0.05465 0.609001,-0.140001 0.702999,-0.047 0.615999,0 4.096001,0 4.0959996,0 8.1920004,0 1.7019996,0 6.490001,0 4.095999,0 4.096001,0 0.615,0 0.702999,0.047 0.611,0.140001 0.118999,0.0543 0.396,0.180699 0.422001,0.328001 0.327999,0.421999 0.235001,0.515001 0.139999,0.609999 0.0021,0.032 0.04486,0.671002 0,1.376998 0,2.048001 0,2.172001 m -18.297918,1.299998 -1.7019996,0 -1.903,0 0,4.719999 0,2.386001 1.903,0 1.7019996,0 0,-2.386001 0,-4.719999 z"
     id="path4310"
     style="fill:#ffffff;fill-opacity:0;stroke:#000000;stroke-width:0.42333335;stroke-miterlimit:4;stroke-opacity:1;stroke-dasharray:none" />
  <path
     sodipodi:type="arc"
     style="fill:#ffffff;fill-opacity:0;stroke:#000000;stroke-width:1.5;stroke-miterlimit:4;stroke-opacity:1;stroke-dasharray:none"
     id="path4830"
     sodipodi:cx="15.855292"
     sodipodi:cy="17.777147"
     sodipodi:rx="7.2069511"
     sodipodi:ry="7.2069511"
     d="m 23.062243,17.777147 a 7.2069511,7.2069511 0 1 1 -14.4139018,0 7.2069511,7.2069511 0 1 1 14.4139018,0 z"
     transform="matrix(0.28222223,0,0,0.28222223,-11.346494,-32.601809)" />
  <path
     transform="matrix(0.28222223,0,0,0.28222223,21.332493,-32.601809)"
     d="m 23.062243,17.777147 a 7.2069511,7.2069511 0 1 1 -14.4139018,0 7.2069511,7.2069511 0 1 1 14.4139018,0 z"
     sodipodi:ry="7.2069511"
     sodipodi:rx="7.2069511"
     sodipodi:cy="17.777147"
     sodipodi:cx="15.855292"
     id="path4832"
     style="fill:#ffffff;fill-opacity:0;stroke:#000000;stroke-width:1.5;stroke-miterlimit:4;stroke-opacity:1;stroke-dasharray:none"
     sodipodi:type="arc" />
  <rect
     style="fill:#ffffff;fill-opacity:0;stroke:#000000;stroke-width:0.38513038;stroke-miterlimit:4;stroke-opacity:1;stroke-dasharray:none"
     id="rect4834"
     width="4.1864066"
     height="4.9620061"
     x="7.3745127"
     y="25.071703"
     ry="0" />
  <g
     inkscape:groupmode="layer"
     id="layer11"
     inkscape:label="under"
     transform="translate(9.3823114,-0.73640744)">
    <path
       style="fill:none;stroke:#000000;stroke-width:0.42333335;stroke-linecap:butt;stroke-linejoin:miter;stroke-miterlimit:4;stroke-opacity:1;stroke-dasharray:none"
       d="m -6.0424264,27.338853 12.272881,-0.05617 C 6.1954221,25.497093 4.0437488,21.940978 0.20634661,22.242658 -3.9418951,21.975227 -6.0913794,25.911316 -6.0424264,27.338853 z"
       id="path6275"
       sodipodi:nodetypes="cccc" />
  </g>
  <g
     inkscape:groupmode="layer"
     id="layer10"
     inkscape:label="top"
     transform="translate(9.3823114,-0.73640744)">
    <rect
       style="fill:#ffffff;fill-opacity:1;stroke:#000000;stroke-width:0.42398497;stroke-miterlimit:4;stroke-opacity:1;stroke-dasharray:none;stroke-dashoffset:0"
       id="rect5754"
       width="60.286205"
       height="6.590014"
       x="-30.106424"
       y="-30.988705"
       ry="0.76697922" />
    <rect
       y="-31.052925"
       x="-30.170645"
       height="3.4584699"
       width="60.222881"
       id="rect6270"
       style="fill:#ffffff;fill-opacity:1;stroke:#000000;stroke-width:0.42333335;stroke-miterlimit:4;stroke-opacity:1;stroke-dasharray:none;stroke-dashoffset:0" />
    <rect
       style="fill:#ffffff;fill-opacity:1;stroke:#000000;stroke-width:0.42333335;stroke-miterlimit:4;stroke-opacity:1;stroke-dasharray:none;stroke-dashoffset:0"
       id="rect6272"
       width="21.23621"
       height="3.5916069"
       x="-10.677311"
       y="27.368452" />
  </g>
</svg>
