<?xml version="1.0" encoding="UTF-8" standalone="no"?>
<svg
   xmlns:dc="http://purl.org/dc/elements/1.1/"
   xmlns:cc="http://creativecommons.org/ns#"
   xmlns:rdf="http://www.w3.org/1999/02/22-rdf-syntax-ns#"
   xmlns:svg="http://www.w3.org/2000/svg"
   xmlns="http://www.w3.org/2000/svg"
   xmlns:sodipodi="http://sodipodi.sourceforge.net/DTD/sodipodi-0.dtd"
   xmlns:inkscape="http://www.inkscape.org/namespaces/inkscape"
   width="456.63086"
   height="107.78334"
   viewBox="-57.709999 -64.931999 128.87139 30.418856"
   version="1.1"
   id="svg3872"
   inkscape:version="0.91 r13725"
   sodipodi:docname="135 Graflok 23 Integrated Panel-top.svg">
  <metadata
     id="metadata3884">
    <rdf:RDF>
      <cc:Work
         rdf:about="">
        <dc:format>image/svg+xml</dc:format>
        <dc:type
           rdf:resource="http://purl.org/dc/dcmitype/StillImage" />
        <dc:title>svgOutput</dc:title>
      </cc:Work>
    </rdf:RDF>
  </metadata>
  <defs
     id="defs3882">
    <inkscape:perspective
       sodipodi:type="inkscape:persp3d"
       inkscape:vp_x="0 : 230.07578 : 1"
       inkscape:vp_y="0 : 999.99999 : 0"
       inkscape:vp_z="408.91536 : 230.07578 : 1"
       inkscape:persp3d-origin="204.45769 : 153.38385 : 1"
       id="perspective3886" />
    <inkscape:perspective
       id="perspective4472"
       inkscape:persp3d-origin="204.45769 : 141.04252 : 1"
       inkscape:vp_z="408.91536 : 211.56378 : 1"
       inkscape:vp_y="0 : 999.99999 : 0"
       inkscape:vp_x="0 : 211.56378 : 1"
       sodipodi:type="inkscape:persp3d" />
    <inkscape:perspective
       id="perspective4548"
       inkscape:persp3d-origin="204.48427 : 141.04252 : 1"
       inkscape:vp_z="408.96853 : 211.56378 : 1"
       inkscape:vp_y="0 : 999.99999 : 0"
       inkscape:vp_x="0 : 211.56378 : 1"
       sodipodi:type="inkscape:persp3d" />
    <inkscape:perspective
       id="perspective4564"
       inkscape:persp3d-origin="0.50000004 : 0.33333333 : 1"
       inkscape:vp_z="1.0000001 : 0.5 : 1"
       inkscape:vp_y="0 : 999.99999 : 0"
       inkscape:vp_x="0 : 0.5 : 1"
       sodipodi:type="inkscape:persp3d" />
    <inkscape:perspective
       id="perspective4679"
       inkscape:persp3d-origin="191.87896 : 90.053139 : 1"
       inkscape:vp_z="383.75789 : 135.07971 : 1"
       inkscape:vp_y="0 : 999.99999 : 0"
       inkscape:vp_x="0 : 135.07971 : 1"
       sodipodi:type="inkscape:persp3d" />
    <inkscape:perspective
       id="perspective4695"
       inkscape:persp3d-origin="0.50000004 : 0.33333333 : 1"
       inkscape:vp_z="1.0000001 : 0.5 : 1"
       inkscape:vp_y="0 : 999.99999 : 0"
       inkscape:vp_x="0 : 0.5 : 1"
       sodipodi:type="inkscape:persp3d" />
    <inkscape:perspective
       id="perspective4392"
       inkscape:persp3d-origin="214.37009 : 41.25118 : 1"
       inkscape:vp_z="428.74016 : 61.876768 : 1"
       inkscape:vp_y="0 : 999.99999 : 0"
       inkscape:vp_x="0 : 61.876769 : 1"
       sodipodi:type="inkscape:persp3d" />
    <clipPath
       id="clipPath3918"
       clipPathUnits="userSpaceOnUse">
      <rect
         y="-17.038937"
         x="-59.795086"
         height="15.284922"
         width="119.41724"
         id="rect3920"
         style="fill:#ffffff;fill-opacity:1;stroke:#ffffff;stroke-width:0.37728414;stroke-miterlimit:4;stroke-dasharray:none;stroke-dashoffset:0;stroke-opacity:1" />
    </clipPath>
    <inkscape:perspective
       sodipodi:type="inkscape:persp3d"
       inkscape:vp_x="0 : 0.5 : 1"
       inkscape:vp_y="0 : 999.99999 : 0"
       inkscape:vp_z="1.0000001 : 0.5 : 1"
       inkscape:persp3d-origin="0.50000004 : 0.33333333 : 1"
       id="perspective3930" />
    <inkscape:perspective
       id="perspective4392-9"
       inkscape:persp3d-origin="214.37009 : 41.25118 : 1"
       inkscape:vp_z="428.74016 : 61.876768 : 1"
       inkscape:vp_y="0 : 999.99999 : 0"
       inkscape:vp_x="0 : 61.876769 : 1"
       sodipodi:type="inkscape:persp3d" />
    <clipPath
       id="clipPath3918-8"
       clipPathUnits="userSpaceOnUse">
      <rect
         y="-17.038937"
         x="-59.795086"
         height="15.284922"
         width="119.41724"
         id="rect3920-0"
         style="fill:#ffffff;fill-opacity:1;stroke:#ffffff;stroke-width:0.37728414;stroke-miterlimit:4;stroke-dasharray:none;stroke-dashoffset:0;stroke-opacity:1" />
    </clipPath>
    <inkscape:perspective
       sodipodi:type="inkscape:persp3d"
       inkscape:vp_x="0 : 0.5 : 1"
       inkscape:vp_y="0 : 999.99999 : 0"
       inkscape:vp_z="1.0000001 : 0.5 : 1"
       inkscape:persp3d-origin="0.50000004 : 0.33333333 : 1"
       id="perspective3779" />
    <inkscape:perspective
       id="perspective4392-3"
       inkscape:persp3d-origin="214.37009 : 41.25118 : 1"
       inkscape:vp_z="428.74016 : 61.876768 : 1"
       inkscape:vp_y="0 : 999.99999 : 0"
       inkscape:vp_x="0 : 61.876769 : 1"
       sodipodi:type="inkscape:persp3d" />
    <inkscape:perspective
       id="perspective3440"
       inkscape:persp3d-origin="0.50000004 : 0.33333333 : 1"
       inkscape:vp_z="1.0000001 : 0.5 : 1"
       inkscape:vp_y="0 : 999.99999 : 0"
       inkscape:vp_x="0 : 0.5 : 1"
       sodipodi:type="inkscape:persp3d" />
    <inkscape:perspective
       id="perspective7771"
       inkscape:persp3d-origin="191.79038 : 28.823621 : 1"
       inkscape:vp_z="383.58074 : 43.235432 : 1"
       inkscape:vp_y="0 : 999.99999 : 0"
       inkscape:vp_x="0 : 43.235432 : 1"
       sodipodi:type="inkscape:persp3d" />
    <inkscape:perspective
       id="perspective7879"
       inkscape:persp3d-origin="191.79038 : 28.822441 : 1"
       inkscape:vp_z="383.58074 : 43.233662 : 1"
       inkscape:vp_y="0 : 999.99999 : 0"
       inkscape:vp_x="0 : 43.233662 : 1"
       sodipodi:type="inkscape:persp3d" />
    <inkscape:perspective
       id="perspective8003"
       inkscape:persp3d-origin="191.79038 : 28.657087 : 1"
       inkscape:vp_z="383.58074 : 42.98563 : 1"
       inkscape:vp_y="0 : 999.99999 : 0"
       inkscape:vp_x="0 : 42.98563 : 1"
       sodipodi:type="inkscape:persp3d" />
    <inkscape:perspective
       id="perspective8590"
       inkscape:persp3d-origin="203.37917 : 22.3753 : 1"
       inkscape:vp_z="406.75832 : 33.56295 : 1"
       inkscape:vp_y="0 : 999.99999 : 0"
       inkscape:vp_x="0 : 33.56295 : 1"
       sodipodi:type="inkscape:persp3d" />
    <inkscape:perspective
       id="perspective8666"
       inkscape:persp3d-origin="191.79038 : 28.822441 : 1"
       inkscape:vp_z="383.58074 : 43.233662 : 1"
       inkscape:vp_y="0 : 999.99999 : 0"
       inkscape:vp_x="0 : 43.233662 : 1"
       sodipodi:type="inkscape:persp3d" />
    <inkscape:perspective
       id="perspective8678"
       inkscape:persp3d-origin="0.50000004 : 0.33333333 : 1"
       inkscape:vp_z="1.0000001 : 0.5 : 1"
       inkscape:vp_y="0 : 999.99999 : 0"
       inkscape:vp_x="0 : 0.5 : 1"
       sodipodi:type="inkscape:persp3d" />
  </defs>
  <sodipodi:namedview
     pagecolor="#ffffff"
     bordercolor="#666666"
     borderopacity="1"
     objecttolerance="10"
     gridtolerance="10"
     guidetolerance="10"
     inkscape:pageopacity="0"
     inkscape:pageshadow="2"
     inkscape:window-width="1705"
     inkscape:window-height="997"
     id="namedview3880"
     showgrid="false"
     inkscape:zoom="2.0514981"
     inkscape:cx="181.67405"
     inkscape:cy="13.869711"
     inkscape:window-x="51"
     inkscape:window-y="0"
     inkscape:window-maximized="0"
     inkscape:current-layer="layer13"
     fit-margin-top="10"
     fit-margin-left="10"
     fit-margin-right="10"
     fit-margin-bottom="-20" />
  <title
     id="title3874">svgOutput</title>
  <desc
     id="desc3876">made with tinkercad</desc>
  <g
     inkscape:groupmode="layer"
     id="layer14"
     inkscape:label="add 0"
     transform="translate(3.9796836,-22.292883)" />
  <g
     inkscape:groupmode="layer"
     id="layer11"
     inkscape:label="add 1"
     transform="translate(3.9796836,-22.292883)" />
  <g
     inkscape:groupmode="layer"
     id="layer15"
     inkscape:label="1.5"
     transform="translate(3.9796836,-22.292883)" />
  <g
     inkscape:groupmode="layer"
     id="layer12"
     inkscape:label="add 2"
     transform="translate(3.9796836,-22.292883)" />
  <g
     inkscape:groupmode="layer"
     id="layer13"
     inkscape:label="add 3"
     transform="translate(3.9796836,-22.292883)">
    <path
       style="fill:#ffffff;fill-opacity:1;stroke:#000000;stroke-width:0.42333335;stroke-miterlimit:4;stroke-dasharray:none;stroke-opacity:1"
       d="m -50.819261,-28.969554 0,3.009085 0,8.19161 0,2.000361 1.348273,0 2.048316,0 4.096081,0 8.191612,0 8.192163,0 8.192161,0 8.191611,0 8.1921646,0 8.1921615,0 8.1916109,0 8.192162,0 8.192164,0 8.192162,0 8.191611,0 8.192164,0 4.096081,0 2.047765,0 0.855486,0 0,-2.000361 0,-8.19161 0,-3.009085 -0.855486,0 -2.047765,0 -4.096081,0 -8.192164,0 -8.191611,0 -8.192162,0 -8.192164,0 -8.192162,0 -8.1916109,0 -8.1921615,0 -8.1921646,0 -8.191611,0 -8.192161,0 -8.192163,0 -8.191612,0 -4.096081,0 -2.048316,0 -1.348273,0 z m 80.872111,6.702778 0.08268,0 0.23151,0.03087 0.03418,0.0182 0.02094,0.01047 0.39963,0.230959 0.07111,0.111899 0.115204,0.180246 0.01103,0.01214 0.03087,0.03362 0.06008,0.454753 0.0193,0.100872 -0.124025,0.389159 -0.385298,0.386952 -0.218833,0.05843 -0.307027,0.08158 -0.23592,-0.06284 -0.211117,-0.05567 -0.183554,-0.143315 -0.126227,-0.06394 -0.142215,-0.184658 -0.10473,-0.329627 -0.03142,-0.07607 0.0011,-0.02094 0.01434,-0.326319 0.01047,-0.08158 0.08929,-0.215524 0.05016,-0.06559 0.07221,-0.07166 0.207255,-0.206706 0.04685,-0.04685 0.214971,-0.0893 0.05567,-0.02866 0.23151,-0.03087 z m -49.779156,0.02534 0.07993,0.02204 0.399632,0.230406 0.03307,0.02534 0.06284,0.09922 0.123472,0.193478 0.02537,0.03252 0.02204,0.08048 0.06008,0.4542 -0.0055,0.04189 -0.175838,0.42223 -0.02866,0.05512 -0.302065,0.277814 -0.525859,0.140007 -0.446484,-0.118511 -0.09701,-0.03417 -0.297657,-0.299311 -0.02866,-0.02921 -0.04189,-0.04575 -0.01874,-0.05953 -0.0678,-0.251355 -0.05181,-0.194578 0.07551,-0.337896 0.0023,-0.06229 0.04189,-0.07221 0.0893,-0.140008 0.03417,-0.05292 0.06284,-0.09922 0.329077,-0.190169 0.142212,-0.08213 0.462469,0 0.04189,-0.0055 z"
       id="path8582"
       inkscape:connector-curvature="0" />
    <rect
       style="opacity:1;fill:none;fill-opacity:1;stroke:#000000;stroke-width:0.42333338;stroke-linecap:round;stroke-linejoin:miter;stroke-miterlimit:4;stroke-dasharray:none;stroke-dashoffset:0;stroke-opacity:1"
       id="rect4169"
       width="7.7820702"
       height="22.665277"
       x="-58.655792"
       y="-39.605228"
       ry="0.58365524" />
    <path
       style="opacity:1;fill:#000000;fill-opacity:1;stroke:#000000;stroke-width:0.42333338;stroke-linecap:round;stroke-linejoin:miter;stroke-miterlimit:4;stroke-dasharray:none;stroke-dashoffset:0;stroke-opacity:1"
       d="m -54.069681,-16.714944 0,0.298207 -0.224345,0 0,1.97666 3.004124,0 0,-1.350479 112.433601,0 0,1.322367 3.004123,0 0,-1.97666 -0.601376,0 0,-0.270095 -117.616127,0 z"
       id="rect4180"
       inkscape:connector-curvature="0" />
    <path
       id="path7871"
       d="m 37.66491,-38.797674 0.212002,-0.04874 0.396999,-0.09126 0.702999,-0.047 2.995999,0.0081 4.096001,0.01106 8.192002,0.02212 2.120999,0.0057 0.396999,0.09111 0.213001,0.04889 0.515,0.235 0.422001,0.328 0.327999,0.422 0.100002,0.21915 0.134999,0.295851 0.139999,0.609999 0.047,0.703 0,0.009 0,8.192001 0,5.497 0,2.695001 0,0.008 0,3.6e-5 -0.0017,0.02562 -0.04529,0.677385 -0.139999,0.609001 -0.134999,0.297 -0.100002,0.22 -0.163998,0.210999 -0.164001,0.211001 -0.422001,0.328 -0.174,0.07906 -0.33728,0.153251 -0.0037,0.0017 -0.03639,0.0084 -0.173607,0.03968 -0.02386,0.0054 -0.236245,0.05493 -0.139892,0.03252 -0.0034,2.33e-4 -0.06957,0.0048 -0.630001,0.04302 -1.418,0 -5.496552,0 4.2e-5,-2.44e-4 0,-11.201756 0,-2.304 -2.695492,0 -0.176487,0 0,2.304 0,4.096 0,1.401 0,2.695001 0,3.009755 -1.87e-4,2.44e-4 -3.919327,0 -2.995999,0 -0.0034,-2.44e-4 -0.530972,-0.03625 -0.168602,-0.0115 -6.5e-5,-1.5e-5 -0.01363,-0.0032 -0.340111,-0.07927 -0.04319,-0.01 -0.002,-4.63e-4 -0.02379,-0.0055 -0.186214,-0.04256 -0.0025,-0.0011 -0.0018,-8.24e-4 -0.5117,-0.232051 -0.422001,-0.328 -0.163999,-0.211 -0.164,-0.211 -0.234001,-0.517 -0.140999,-0.609 -0.047,-0.703 0,-0.008 0,-8.192001 0,-8.201001 0.047,-0.703 0.140999,-0.609999 0.234001,-0.515001 0.327999,-0.422 0.422001,-0.328 0.515999,-0.235 m -28.052328,22.216001 6.1e-5,-2.44e-4 0,-11.201756 0,-2.304 -2.871469,0 0,2.304 0,11.201756 6.1e-5,2.44e-4 -1.632327,0 -4.0960001,0 -1.18699988,0 -0.0037,-2.44e-4 -0.53097199,-0.03625 -0.168358,-0.0115 -0.15800003,-0.03683 -0.195809,-0.04564 -0.04519,-0.01046 -0.02378,-0.0055 -0.186216,-0.04256 -0.0025,-0.0011 -0.51352,-0.232875 -0.057,-0.0443 -0.365,-0.283696 -0.164,-0.211001 -0.164,-0.210999 -0.234,-0.517 -0.097,-0.418958 -0.044,-0.190043 -0.04529,-0.677385 -0.0017,-0.02562 0,-3.6e-5 0,-8.199964 0,-8.201001 0.047,-0.703 0.044,-0.190354 0.097,-0.419645 0.234,-0.515001 0.328,-0.422 0.422,-0.328 0.516001,-0.235 0.212,-0.04874 0.238999,-0.05494 0.15800003,-0.03632 0.70300099,-0.047 1.18699888,0 4.0960011,0 1.632266,0 2.871469,0 3.688265,0 3.226001,0 0.703,0.047 0.166999,0.03833 0.443,0.101672 0.515001,0.235 0.422,0.328 0.328,0.422 0.236,0.515001 0.139999,0.609999 0.047,0.703 0,0.009 0,4.096001 0,4.096 0,4.096 0,4.096001 0,0.008 -0.047,0.703 -0.036,0.1566 -0.104,0.4524 -0.236,0.517 -0.164001,0.211 -0.163999,0.211 -0.422,0.328 -0.512852,0.233024 -0.0021,9.76e-4 -0.186215,0.04256 -0.06909,0.01597 -0.04985,0.01159 -0.13785,0.03205 -0.166999,0.03883 -0.168358,0.0115 -0.530972,0.03625 -0.0037,2.44e-4 -3.226001,0 -3.688327,0 m -36.783675,-0.048 -0.168602,0.0115 -0.319401,0.02181 -0.211571,0.01445 -0.0034,2.44e-4 -6.914327,0 -1.83e-4,-2.44e-4 0,-3.009756 0,-2.695 0,-5.497 0,-2.304 -1.062489,0 -1.80949,0 0,2.304 0,11.201756 4.2e-5,2.44e-4 -6.382554,0 -0.533001,0 -0.702999,-0.048 -0.373318,-0.08701 -0.02568,-0.0059 -0.01352,-0.0031 -0.196484,-0.04491 -0.0043,-0.002 -0.198704,-0.09011 -0.313,-0.141942 -0.422001,-0.328 -0.163998,-0.211001 -0.164001,-0.210999 -0.234001,-0.517 -0.140999,-0.609001 -0.04529,-0.677385 -0.0017,-0.02562 0,-3.6e-5 0,-0.008 0,-8.192001 0,-8.192001 0,-0.009 0.047,-0.703 0.140999,-0.609999 0.234001,-0.515001 0.327999,-0.422 0.422001,-0.328 0.313,-0.142548 0.202999,-0.09245 0.609001,-0.14 0.702999,-0.047 0.533001,0 8.192002,0 4.096001,0 3.880998,0 0.215,0.01438 0.488003,0.03262 0.609998,0.14 0.515,0.235 0.422001,0.328 0.013,0.01673 0.314999,0.405274 0.235,0.515001 0.14,0.609999 0.047,0.703 0,0.009 0,8.192001 0,8.192001 0,0.008 -0.047,0.703 -0.14,0.609 -0.235,0.517001 -0.314999,0.405274 -0.013,0.01673 -0.422001,0.328 -0.515,0.233999 -0.074,0.01691 -0.112215,0.02565 -0.02379,0.0055 -0.0453,0.01047 -0.35463,0.08245 -6.4e-5,1.6e-5 z"
       style="fill:#ffffff;fill-opacity:1;stroke:#000000;stroke-width:0.42333338;stroke-miterlimit:4;stroke-dasharray:none;stroke-opacity:1"
       inkscape:connector-curvature="0" />
    <path
       style="fill:none;fill-rule:evenodd;stroke:#000000;stroke-width:0.42333341;stroke-linecap:butt;stroke-linejoin:miter;stroke-miterlimit:4;stroke-dasharray:none;stroke-opacity:1"
       d="m -37.778056,-16.574194 3.295221,0"
       id="path4258"
       inkscape:connector-curvature="0" />
    <path
       style="fill:none;fill-rule:evenodd;stroke:#000000;stroke-width:0.42333341;stroke-linecap:butt;stroke-linejoin:miter;stroke-miterlimit:4;stroke-dasharray:none;stroke-opacity:1"
       d="m 6.6347162,-16.586943 3.295221,0"
       id="path4258-7"
       inkscape:connector-curvature="0" />
    <path
       style="fill:none;fill-rule:evenodd;stroke:#000000;stroke-width:0.42333341;stroke-linecap:butt;stroke-linejoin:miter;stroke-miterlimit:4;stroke-dasharray:none;stroke-opacity:1"
       d="m 45.823604,-16.585646 3.295221,0"
       id="path4258-5"
       inkscape:connector-curvature="0" />
    <path
       id="path7995"
       d="m -46.404006,-38.561445 0.313,-0.142549 0.202999,-0.09245 0.609001,-0.140001 0.702999,-0.047 0.533001,0 0.966999,0 7.225003,0 6.476998,0 0.003,0 1.496998,0 0.215,0.01437 0.488003,0.03262 0.609999,0.140001 0.514999,0.235 0.422001,0.328 0.327999,0.422 0.235001,0.515 0.139999,0.61 0.047,0.703 0,8.201 0,8.192001 0,0.0086 -0.01739,0.260422 -0.02961,0.442949 -0.139999,0.608999 -0.235001,0.517 -0.314999,0.405275 -0.013,0.01673 -0.422001,0.328 -0.514999,0.234 -0.114676,0.02583 -0.0677,0.01548 -0.01,0.0023 -0.01764,0.0044 0,-0.019 -0.460001,-0.205 -0.428001,-0.575101 -0.118999,-0.1599 -0.596001,-1.356 -0.996998,-2.748 0,-0.502 -0.003,0 0,-5.497001 0,-3.298 0.003,0 0,-6.006 -0.003,0 -6.476998,0 -7.225003,0 -0.003,0 0,6.006 0.003,0 0,3.298 0,5.497001 -0.002,0 0,0.508 -0.965,2.659327 -0.03,0.08267 -0.597,1.356 -0.546001,0.735001 -0.461998,0.205999 0,0.018 -0.02669,-0.0061 -0.183315,-0.0419 -0.202999,-0.09206 -0.313,-0.141942 -0.422001,-0.328 -0.327999,-0.422 -0.234001,-0.517 -0.140999,-0.608999 -0.02961,-0.442949 -0.01739,-0.260422 0,-0.0086 0,-8.192001 0,-8.192 0,-0.009 0.047,-0.703 0.140999,-0.61 0.234001,-0.515 0.327999,-0.422 0.422001,-0.328 m 84.069006,-0.235 0.212002,-0.04874 0.397,-0.09126 0.702999,-0.047 1.497002,0.004 0.003,9e-6 5.591999,0.0151 8.110001,0.0219 0.003,9e-6 0.079,2.14e-4 2.120999,0.0057 0.61,0.140001 0.514999,0.235 0.422001,0.328 0.327999,0.422 0.235,0.515 0.14,0.61 0.047,0.703 0,8.201 0,8.192001 0,0.0086 -0.01739,0.260422 -0.02961,0.442949 -0.14,0.608999 -0.134998,0.297001 -0.100002,0.219999 -0.327999,0.422 -0.422001,0.328 -0.513324,0.233239 -0.0017,7.61e-4 -0.114673,0.02583 -0.06771,0.01548 -0.01,0.0023 -0.01764,0.0044 0,-3.78e-4 0,-0.01862 -0.459999,-0.205 -0.013,-0.01747 -0.534001,-0.717532 -0.596001,-1.356 -0.201358,-0.555 -0.716641,-1.975255 -0.079,-0.217745 0,-0.502 -0.003,0 0,-5.497001 0,-3.298 0.003,0 0,-6.006 -0.003,0 -8.110001,0 -5.591999,0 -0.003,0 0,6.006 0.003,0 0,3.298 0,5.497001 -0.002,0 0,0.508 -0.995003,2.742 -0.595997,1.356 -0.547001,0.735 -0.459999,0.205108 -0.002,8.92e-4 0,0.018 -0.02669,-0.0061 -0.183312,-0.0419 -0.515998,-0.234001 -0.422002,-0.328 -0.164778,-0.212 -0.163221,-0.21 -0.234002,-0.517 -0.140998,-0.608999 -0.02962,-0.442949 -0.01739,-0.260421 0,-0.0086 0,-8.192002 0,-8.201 0.047,-0.703 0.140998,-0.61 0.234002,-0.515 0.327999,-0.422 0.422002,-0.328 0.515998,-0.235 m -38.47900185,21.852002 -0.22100005,0.09854 -0.241001,0.107458 0,0.018 -0.02669,-0.0061 -0.183312,-0.0419 -0.516,-0.234 -0.422,-0.328001 -0.328,-0.422 -0.234,-0.517 -0.097,-0.418957 -0.044,-0.190042 -0.02961,-0.442948 -0.01739,-0.260422 0,-8.200631 0,-8.201 0.047,-0.703 0.044,-0.190355 0.097,-0.419645 0.234,-0.515 0.328,-0.422 0.422,-0.328 0.516,-0.235 0.60900005,-0.140001 0.703,-0.047 1.18699995,0 4.096001,0 8.1920009,0 1.728999,0 1.497001,0 0.703,0.047 0.167,0.03833 0.442999,0.101672 0.515001,0.235 0.422,0.328 0.328,0.422 0.236,0.515 0.139999,0.61 0.047,0.703 0,0.009 0,4.894 0,3.298 0,5.497001 0,2.695 0,0.0086 -0.01739,0.260422 -0.02961,0.442948 -0.036,0.1566 -0.104,0.452399 -0.236,0.517001 -0.163223,0.21 -0.164777,0.212 -0.422,0.328 -0.502372,0.228263 -0.01263,0.0057 -0.114045,0.02583 -0.06812,0.01557 -0.0096,0.0022 -0.01827,0.0044 0,-0.019 -0.232999,-0.103837 -0.227001,-0.101163 -0.547,-0.735001 -0.595999,-1.356 -0.20136,-0.554999 -0.795641,-2.193001 0,-0.502 -0.003,0 0,-5.497001 0,-3.298 0.003,0 0,-4.894 0,-1.112 -1.728999,0 -8.1920009,0 -3.786001,0 0,1.112 0,4.894 0.003,0 0,3.298 0,5.497001 -0.002,0 0,0.508 -0.79360495,2.187001 -0.201395,0.554999 -0.595999,1.356 -0.547,0.735001 z"
       style="fill:#ffffff;fill-opacity:1;stroke:#000000;stroke-width:0.42333338;stroke-miterlimit:4;stroke-dasharray:none;stroke-opacity:1"
       inkscape:connector-curvature="0" />
  </g>
</svg>
