<?xml version="1.0" encoding="UTF-8" standalone="no"?>
<svg
   xmlns:dc="http://purl.org/dc/elements/1.1/"
   xmlns:cc="http://creativecommons.org/ns#"
   xmlns:rdf="http://www.w3.org/1999/02/22-rdf-syntax-ns#"
   xmlns:svg="http://www.w3.org/2000/svg"
   xmlns="http://www.w3.org/2000/svg"
   xmlns:sodipodi="http://sodipodi.sourceforge.net/DTD/sodipodi-0.dtd"
   xmlns:inkscape="http://www.inkscape.org/namespaces/inkscape"
   width="423.27176"
   height="89.776581"
   viewBox="-52.122112 -12.201 119.4567 25.336946"
   version="1.1"
   id="svg3019"
   inkscape:version="0.91 r13725"
   sodipodi:docname="Hasselblad V back adpater -top.svg">
  <metadata
     id="metadata3031">
    <rdf:RDF>
      <cc:Work
         rdf:about="">
        <dc:format>image/svg+xml</dc:format>
        <dc:type
           rdf:resource="http://purl.org/dc/dcmitype/StillImage" />
        <dc:title>svgOutput</dc:title>
      </cc:Work>
    </rdf:RDF>
  </metadata>
  <defs
     id="defs3029">
    <inkscape:perspective
       sodipodi:type="inkscape:persp3d"
       inkscape:vp_x="0 : 17.541142 : 1"
       inkscape:vp_y="0 : 1000 : 0"
       inkscape:vp_z="409.26615 : 17.541142 : 1"
       inkscape:persp3d-origin="204.63307 : 11.694094 : 1"
       id="perspective3033" />
    <inkscape:perspective
       id="perspective3110"
       inkscape:persp3d-origin="183.81436 : 28.821261 : 1"
       inkscape:vp_z="367.62873 : 43.231892 : 1"
       inkscape:vp_y="0 : 1000 : 0"
       inkscape:vp_x="0 : 43.231892 : 1"
       sodipodi:type="inkscape:persp3d" />
    <inkscape:perspective
       id="perspective3186"
       inkscape:persp3d-origin="183.81436 : 28.821261 : 1"
       inkscape:vp_z="367.62873 : 43.231892 : 1"
       inkscape:vp_y="0 : 1000 : 0"
       inkscape:vp_x="0 : 43.231892 : 1"
       sodipodi:type="inkscape:persp3d" />
    <inkscape:perspective
       id="perspective3326"
       inkscape:persp3d-origin="183.81613 : 28.655907 : 1"
       inkscape:vp_z="367.63227 : 42.98386 : 1"
       inkscape:vp_y="0 : 1000 : 0"
       inkscape:vp_x="0 : 42.98386 : 1"
       sodipodi:type="inkscape:persp3d" />
    <inkscape:perspective
       id="perspective4292"
       inkscape:persp3d-origin="0.50000001 : 0.33333333 : 1"
       inkscape:vp_z="1 : 0.50000001 : 1"
       inkscape:vp_y="0 : 1000 : 0"
       inkscape:vp_x="0 : 0.50000001 : 1"
       sodipodi:type="inkscape:persp3d" />
  </defs>
  <sodipodi:namedview
     pagecolor="#ffffff"
     bordercolor="#666666"
     borderopacity="1"
     objecttolerance="10"
     gridtolerance="10"
     guidetolerance="10"
     inkscape:pageopacity="0"
     inkscape:pageshadow="2"
     inkscape:window-width="1259"
     inkscape:window-height="733"
     id="namedview3027"
     showgrid="false"
     inkscape:zoom="1.3169914"
     inkscape:cx="255.22118"
     inkscape:cy="51.828182"
     inkscape:window-x="250"
     inkscape:window-y="111"
     inkscape:window-maximized="0"
     inkscape:current-layer="layer4"
     fit-margin-top="0"
     fit-margin-left="0"
     fit-margin-right="0"
     fit-margin-bottom="0" />
  <title
     id="title3021">svgOutput</title>
  <desc
     id="desc3023">made with tinkercad</desc>
  <path
     d="m -46.381068,8.6738837 0,-7.90099996 1.970112,0 8.192001,0 8.191997,0 8.192002,0 7.845802,0 0.346197,0 8.1919994,0 8.1920008,0 8.1920008,0 8.192001,0 8.191999,0 8.192002,0 8.191997,0 8.192001,0 8.192002,0 5.037884,0 0,7.90099996 -5.037884,0 -8.192002,0 -8.192001,0 -7.472999,0 -0.718998,0 -8.192002,0 -8.191999,0 -8.192001,0 -8.1920008,0 -8.1920008,0 -8.1919994,0 -8.191999,0 -8.192002,0 -8.191997,0 -8.192001,0 -1.970112,0 m 80.773687,-5.4156306 -0.344576,-0.3463698 -0.05263,-0.013981 -0.474369,-0.1260186 -0.399,0.087999 -0.308682,0.1983108 -0.04292,0.032443 -0.0669,0.086406 -0.08386,0.1083155 -8.93e-4,0.00116 -0.11154,0.3527566 -0.02022,0.047611 0.0042,0.094999 0.01383,0.3150005 0.09522,0.2303339 0.02544,0.043885 0.464296,0.3971901 0.03205,0.020591 0.291,0.06418 0.108,0.02382 0.272998,-0.036 0.03382,-0.01761 0.230333,-0.095217 0.06235,-0.057173 0.210602,-0.1931109 0.02562,-0.028045 0.171389,-0.3291784 0.01323,-0.049102 0.01271,-0.2895641 0.0036,-0.082235 -0.0083,-0.037269 -0.112446,-0.3527556 -0.01449,-0.024265 -0.02988,-0.027105 m -47.898674,0.29 0.0029,0.2336302 0.0053,0.4301672 0.02543,0.043885 0.199503,0.3119483 0.324753,0.1882324 0.146248,0.084768 0.49422,0 0.02534,0.00335 0.0491,-0.013137 0.427117,-0.2475638 0.02022,-0.015653 0.142999,-0.2467142 0.104565,-0.1804013 0.02059,-0.032051 0.01435,-0.3268333 0.002,-0.044966 0.0082,-0.03727 -0.0056,-0.021037 -0.0075,-0.027971 -0.10438,-0.3301078 -0.0072,-0.022648 -0.0097,-0.012526 -0.01535,-0.010364 -0.0406,-0.027418 -0.340384,-0.3412685 -0.0051,-0.0051 -0.02803,-0.0037 -0.463816,-0.1232147 -0.0091,-0.00241 -0.04097,0.00903 -0.244074,0.032305 -0.422642,0.2449712 -0.04292,0.032443 -0.20549,0.368803 -0.0015,0.003 -0.01854,0.03494 -5.17e-4,0.00391 -5.5e-5,4.262e-4 -0.0028,0.021097 0.0034,0.025436 z"
     id="path3025"
     style="fill:#ffffff;fill-opacity:1;stroke:#000000;stroke-width:0.42333335;stroke-miterlimit:4;stroke-dasharray:none;stroke-opacity:1"
     inkscape:connector-curvature="0" />
  <g
     inkscape:groupmode="layer"
     id="layer1"
     inkscape:label="add 1"
     transform="translate(4.7410432,11.973884)">
    <path
       id="path3102"
       d="m 28.360117,-6.5268138 0.329002,0.045144 0.03064,-0.00609 0.196449,-0.039053 0.07406,-0.017198 0.271827,-0.063128 0.345293,-0.2294707 0.209311,-0.1497526 0.237705,-0.3849283 0.115311,-0.1726897 0.0042,-0.020788 0.03666,-0.1827977 0.07344,-0.3633856 -2.57e-4,-0.00155 -0.0431,-0.2583277 -0.07508,-0.3859303 -0.0038,-0.01976 -0.133077,-0.1996181 -0.194828,-0.3121526 -0.0017,-0.00277 -0.260662,-0.1864934 -0.289544,-0.208847 -0.03092,-0.021219 -0.260669,-0.0432 -0.08857,-0.014679 -0.325287,-0.064815 -2.76e-4,-5.5e-5 -0.325566,0.06487 -0.290969,0.057879 -0.287819,0.2059232 -0.275246,0.1836984 -0.0169,0.025316 -0.166804,0.2499287 -0.164579,0.2468716 -0.05788,0.3492426 -0.04862,0.2440345 -0.01625,0.08153 0.006,0.029907 0.05891,0.2956576 0.05788,0.2905762 2.7e-5,4.22e-5 0.164552,0.2464357 0.176659,0.2646954 0.007,0.010549 0.121254,0.081239 0.287819,0.2059234 0.150961,0.099427 0.257665,0.053962 0.145892,0.015842 m -71.229839,-14.883137 0.667293,-0.04165 1.560692,0 8.191998,0 4.096,0 3.307667,0 0.788334,0 4.096001,0 4.095999,0 8.1919995,0 4.096,0 0.832,0 3.26400003,0 8.19200097,0 4.0960005,0 1.149,0 1.285061,0 0.382001,0 0.377178,0 0.380712,0 0.522047,0 8.192,0 8.192001,0 0.718998,0 1.329003,0 1.670998,0 0.376999,0 4.096001,0 8.192001,0 4.036,0 0.06,0.004 0.642998,0.04299 0.61,0.141001 0.515,0.233999 0.422001,0.328 0.327999,0.422 0.235,0.516001 0.14,0.608999 0.047,0.703 0,0.009 0,8.192 0,4.0960003 0,1.4019999 0,2.6940003 0,0.008 -0.047,0.7030001 -0.14,0.60900027 -0.235,0.5159995 -0.327999,0.423001 -0.422001,0.328 -0.51128,0.23231 -0.0037,0.0017 -0.06893,0.01576 -0.409767,0.09472 -0.131302,0.03053 -0.642998,0.04299 -0.06,0.004 -4.036,0 -8.192001,0 -4.096001,0 -2.047997,0 -2.048001,0 -8.192001,0 -8.192,0 -1.843999,0 -2.252,0 -4.0960005,0 -8.19200097,0 -4.09600003,0 -4.096,0 -8.1919995,0 -4.095999,0 -3.715561,0 -0.38044,0 -0.7985,0 -3.297501,0 -4.096,0 -8.191998,0 -1.560219,0 -0.674434,-0.0421 -0.06638,-0.0044 -0.0067,-4.47e-4 -2.7e-4,-1.8e-5 -0.04552,-0.01059 -0.539684,-0.124951 -0.02379,-0.0055 -0.516002,-0.233999 -0.421998,-0.328 -0.241001,-0.310803 -0.087,-0.112198 -0.233998,-0.5159995 -0.141002,-0.60900027 -0.047,-0.7030001 0,-0.008 0,-4.0960002 0,-4.0960003 0,-8.192 0,-0.009 0.047,-0.703 0.141002,-0.608999 0.233998,-0.516001 0.087,-0.111933 0.241001,-0.310067 0.421998,-0.328 0.516002,-0.233999 0.608998,-0.141001 0.08002,-0.0053 m 25.158197,14.8466556 0.386652,0.088042 0.05298,-0.00873 0.239946,-0.039521 0.353521,-0.064577 0.005,-9.172e-4 0.25111,-0.1676497 0.317221,-0.2087724 0.03933,-0.058912 0.140409,-0.2103088 0.11931,-0.1690476 0.0673,-0.1012464 0.0026,-0.013162 0.05563,-0.2774141 0.05913,-0.2967522 0.0057,-0.028812 -0.06487,-0.3255646 -0.05827,-0.3492426 -0.164582,-0.2468716 -0.162433,-0.2433824 -0.02126,-0.031862 -0.275245,-0.1836984 -0.264984,-0.1895852 -0.02284,-0.016338 -0.349638,-0.057879 -0.325508,-0.064859 -5.6e-5,-1.1e-5 -0.325565,0.06487 -0.290388,0.057842 -1.87e-4,3.72e-5 -0.100641,0.067295 -0.287819,0.2059232 -0.167465,0.1177442 -0.207033,0.3162012 -0.152344,0.2285138 -0.0011,0.00577 -0.06421,0.351392 -0.0347,0.2121758 -0.01333,0.081491 0.08728,0.3866231 0.04548,0.2535787 0.01778,0.026645 0.13426,0.2012028 0.156964,0.2188719 0.351104,0.2781739 0.211697,0.1469121 0.253906,0.045808 z"
       style="fill:#ffffff;fill-opacity:1;stroke:#000000;stroke-width:0.42333335;stroke-miterlimit:4;stroke-dasharray:none;stroke-opacity:1"
       inkscape:connector-curvature="0" />
  </g>
  <g
     inkscape:groupmode="layer"
     id="layer2"
     inkscape:label="add 2"
     transform="translate(4.7410432,11.973884)">
    <path
       id="path3178"
       d="m 36.805373,0.73604187 -0.691867,-0.04626 -0.01113,-7.44e-4 -0.237758,-0.05542 -0.246106,-0.05698 -0.125137,-0.0286 -0.515999,-0.233999 -0.422001,-0.328 -0.328001,-0.422998 -0.234001,-0.515999 -0.140999,-0.60899997 -0.047,-0.703 0,-0.008 0,-4.096001 0,-4.0959999 0,-8.192 0,-0.009 0.047,-0.703 0.140999,-0.609 0.234001,-0.516001 0.327999,-0.422 0.422001,-0.328 0.157002,-0.0712 0.358997,-0.162801 0.609001,-0.141001 0.702999,-0.047 0.376999,0 4.096001,0 8.192001,0 4.036,0 0.06,0.004 0.642998,0.04299 0.61,0.141001 0.515,0.233999 0.280002,0.21763 0.141999,0.11037 0.327999,0.422 0.235,0.516001 0.14,0.609 0.047,0.703 0,0.009 0,8.192 0,4.0959999 0,1.402 0,2.694001 0,0.008 -0.047,0.703 -0.14,0.60899997 -0.235,0.515999 -0.327999,0.423001 -0.422001,0.328 -0.51128,0.23231 -0.0037,0.0017 -0.173931,0.03976 -0.104767,0.02422 -0.331302,0.07703 -0.642998,0.04299 -0.06,0.004 -4.036,0 -3.149597,0 0,-11.20099987 0,-2.303 -2.328617,0 0,2.303 0,11.20099987 -2.713787,0 -4.096001,0 -0.376999,0 m -69.53719,0 0,-11.20099987 0,-2.303 -2.328617,0 0,2.303 0,11.20099987 -5.581192,0 -1.593552,0 -0.172435,-0.01076 -0.282013,-0.01885 -0.260002,-0.01738 -0.336434,-0.07822 -0.06356,-0.01472 -0.02092,-0.0048 -0.01229,-0.0028 -0.175785,-0.04037 -0.155002,-0.07029 -0.361,-0.163708 -0.421998,-0.328 -0.163612,-0.211001 -0.07739,-0.0998 -0.087,-0.112198 -0.233998,-0.515999 -0.141002,-0.60899997 -0.047,-0.703 0,-0.008 0,-4.096001 0,-4.0959999 0,-8.192 0,-0.009 0.047,-0.703 0.141002,-0.609 0.233998,-0.516001 0.087,-0.111933 0.077,-0.09907 0.164001,-0.211 0.421998,-0.328 0.516002,-0.233999 0.608998,-0.141001 0.260002,-0.01738 0.331287,-0.02215 0.119656,-0.0075 1.597057,0 5.581192,0 2.610806,0 4.096,0 2.048001,0 0.759405,0 0.4195,0.02801 0.284096,0.01899 0.584999,0.135221 0.025,0.0058 0.515001,0.233999 0.421999,0.328 0.164,0.211 0.161584,0.207893 0.0024,0.0031 0.234999,0.516001 0.001,0.0044 0.138981,0.604566 0.047,0.703 0,0.009 0,8.192 0,8.1920009 0,0.008 -0.04659,0.696866 -4.1e-4,0.0061 -0.140001,0.60899997 -0.002,0.0044 -0.232981,0.511566 -0.164389,0.212 -0.162096,0.209044 -0.0015,0.002 -0.421999,0.328 -0.0024,0.0011 -0.512594,0.232905 -0.002,4.71e-4 -0.02297,0.0053 -0.584999,0.135222 -0.01113,7.44e-4 -0.69187,0.04626 -2.808001,0 -4.096,0 -0.282189,0 m 29.7861911,0 -0.703,-0.047 -0.129,-0.03007 -0.108757,-0.02535 -0.161243,-0.03733 -0.08487,-0.01965 -0.125136,-0.0286 -0.516,-0.233999 -0.422,-0.328 -0.328,-0.423001 -0.234,-0.515999 -0.141,-0.60900097 -0.047,-0.703 0,-0.008 0,-2.694 0,-1.402 0,-4.0959999 0,-8.192 0,-0.009 0.047,-0.703 0.141,-0.609 0.234,-0.516001 0.328,-0.422 0.422,-0.328 0.516,-0.233999 0.212001,-0.04908 0.267999,-0.06205 0.129,-0.02987 0.703,-0.047 3.26399998,0 8.19200102,0 4.0959999,0 1.149,0 0.703,0.047 0.196,0.0453 0.200999,0.04646 0.213001,0.04924 0.515,0.233999 0.422,0.328 0.327999,0.422 0.235001,0.516001 0.134,0.582899 0.006,0.0261 0.047,0.703 0,16.4009999 -0.047,0.703001 -0.006,0.0261 -0.134,0.58289997 -0.235001,0.515999 -0.327999,0.423001 -0.422,0.328 -0.515,0.233999 -0.125136,0.0286 -0.08486,0.01962 -0.161647,0.03737 -0.238353,0.05542 -0.002,1.3e-4 -0.701037,0.04687 -1.149,0 -4.0959999,0 -1.940596,0 0,-11.20100087 0,-2.303 -2.328617,0 0,2.303 0,11.20100087 -3.92278802,0 -3.26399998,0 z"
       style="fill:#ffffff;fill-opacity:1;stroke:#000000;stroke-width:0.42333335;stroke-miterlimit:4;stroke-dasharray:none;stroke-opacity:1"
       inkscape:connector-curvature="0" />
  </g>
  <g
     inkscape:groupmode="layer"
     id="layer3"
     inkscape:label="add 3"
     transform="translate(4.7410432,11.973884)">
    <path
       id="path3318"
       d="m 16.494592,-1.4919166 -0.006,0.0261 -0.134,0.5829 -0.235001,0.515999 -0.327999,0.423001 -0.422,0.328 -0.515,0.233999 -0.181729,0.04154 -0.02827,0.0065 0,-0.019 -0.460001,-0.203999 -0.546999,-0.736 -0.596,-1.355 -0.997001,-2.747 0,-0.502 -0.003,0 0,-5.4980004 0,-3.297 0.003,0 0,-6.006 -0.003,0 -11.93699962,0 -1.76399998,0 -0.003,0 0,6.006 0.003,0 0,3.297 0,5.4980004 -0.002,0 0,0.505 -0.794548,2.18896 -0.201451,0.555 -0.596,1.355 -0.546999,0.736 -0.461001,0.203999 0,0.019 -0.21,-0.048 -0.515999,-0.233999 -0.422,-0.328 -0.328,-0.423001 -0.234001,-0.515999 -0.140999,-0.609 -0.047,-0.703 0,-0.008 0,-2.694 0,-5.4980004 0,-3.297001 0,-4.904 0.047,-0.703 0.140999,-0.608999 0.234001,-0.516001 0.328,-0.422 0.422,-0.328 0.515999,-0.233999 0.609,-0.141001 0.703001,-0.047 1.496999,0 0.003,0 1.76399998,0 11.93699962,0 0.003,0 1.497001,0 0.703,0.047 0.61,0.141001 0.515,0.233999 0.422,0.328 0.327999,0.422 0.235001,0.516001 0.134,0.582899 0.006,0.0261 0.047,0.703 0,16.4010004 -0.047,0.703 m 19.394,-20.0570004 0.702999,-0.047 1.497002,0 0.003,0 11.165001,0 2.537998,0 1.498001,0 0.702999,0.047 0.610001,0.141001 0.514999,0.233999 0.422001,0.328 0.327999,0.422 0.235001,0.516001 0.139999,0.608999 0.047,0.703 0,8.201 0,5.4980004 0,2.694001 0,0.008 -0.047,0.703 -0.139999,0.609 -0.235001,0.515999 -0.327999,0.423001 -0.422001,0.328 -0.514999,0.233999 -0.181729,0.04154 -0.02827,0.0065 0,-0.019 -0.460003,-0.204039 -0.547001,-0.736 -0.596001,-1.355 -0.201431,-0.555 -0.795567,-2.192 0,-0.502 -0.003,0 0,-5.4980004 0,-3.297 0.002,0 0,-6.006 -0.002,0 -2.535999,0 -11.165001,0 -0.003,0 0,6.006 0.003,0 0,3.297 0,5.4980004 -0.002,0 0,0.505 -0.794552,2.189 -0.201451,0.555 -0.595997,1.355 -0.547,0.736 -0.461003,0.203999 0,0.019 -0.02831,-0.0065 -0.18169,-0.04153 -0.515998,-0.233969 -0.422001,-0.328 -0.327999,-0.423001 -0.234001,-0.515999 -0.140999,-0.609 -0.047,-0.703 0,-0.008 0,-2.694 0,-5.4980004 0,-3.297001 0,-4.904 0.047,-0.703 0.140999,-0.608999 0.234001,-0.516001 0.327999,-0.422 0.422001,-0.328 0.515999,-0.233999 0.609001,-0.141001 m -60.545996,22.2149994 0,-0.02 -0.459002,-0.203 -0.546999,-0.736 -0.596,-1.355 -0.998,-2.748999 0,-0.5 -0.003,0 0,-5.4980004 0,-3.297001 0.003,0 0,-6.006 -0.003,0 -5.403001,0 -8.296998,0 -0.002,0 0,6.006 0.002,0 0,3.297001 0,5.4980004 -0.002,0 0,0.507999 -0.79353,2.186001 -0.201469,0.554999 -0.597,1.355 -0.547001,0.736 -0.461998,0.205 0,0.018 -0.02678,-0.0061 -0.183224,-0.04188 -0.516003,-0.233999 -0.422,-0.328 -0.328,-0.423001 -0.233997,-0.515999 -0.141003,-0.609 -0.047,-0.703 0,-0.008 0,-8.1920004 0,-3.297 0,-4.904 0.047,-0.703 0.141003,-0.609 0.233997,-0.516 0.328,-0.422 0.422,-0.328 0.516003,-0.233999 0.608997,-0.141001 0.556744,-0.03722 0.146465,-0.0098 1.498791,0 0.002,0 8.296998,0 5.403001,0 0.003,0 1.497,0 0.702999,0.047 0.610001,0.141001 0.514999,0.233999 0.422001,0.328 0.327999,0.422 0.235001,0.516 0.139999,0.609 0.047,0.703 0,4.904 0,3.297 0,8.2000004 -0.047,0.703 -0.139999,0.609 -0.235001,0.515999 -0.327999,0.423001 -0.422001,0.328 -0.514999,0.233999 -0.024,0.0055 -0.156187,0.0357 -0.02981,0.0068 z"
       style="fill:#ffffff;fill-opacity:1;stroke:#000000;stroke-width:0.42333335;stroke-miterlimit:4;stroke-dasharray:none;stroke-opacity:1"
       inkscape:connector-curvature="0" />
  </g>
  <g
     inkscape:groupmode="layer"
     id="layer4"
     inkscape:label="last cold shoe"
     transform="translate(5.5293775,2.297255)">
    <rect
       style="display:inline;fill:#ffffff;fill-opacity:1;stroke:#000000;stroke-width:0.42333335;stroke-miterlimit:4;stroke-dasharray:none;stroke-dashoffset:0;stroke-opacity:1"
       id="rect11271"
       width="5.533391"
       height="22.591349"
       x="-57.439823"
       y="-14.28659" />
  </g>
</svg>
