<?xml version="1.0" encoding="UTF-8" standalone="no"?>
<svg
   xmlns:dc="http://purl.org/dc/elements/1.1/"
   xmlns:cc="http://creativecommons.org/ns#"
   xmlns:rdf="http://www.w3.org/1999/02/22-rdf-syntax-ns#"
   xmlns:svg="http://www.w3.org/2000/svg"
   xmlns="http://www.w3.org/2000/svg"
   xmlns:sodipodi="http://sodipodi.sourceforge.net/DTD/sodipodi-0.dtd"
   xmlns:inkscape="http://www.inkscape.org/namespaces/inkscape"
   width="452.63123"
   height="121.97771"
   viewBox="-57.709999 -64.931999 127.7426 34.424822"
   version="1.1"
   id="svg3872"
   inkscape:version="0.91 r13725"
   sodipodi:docname="23 back adapter-top.svg">
  <metadata
     id="metadata3884">
    <rdf:RDF>
      <cc:Work
         rdf:about="">
        <dc:format>image/svg+xml</dc:format>
        <dc:type
           rdf:resource="http://purl.org/dc/dcmitype/StillImage" />
        <dc:title>svgOutput</dc:title>
      </cc:Work>
    </rdf:RDF>
  </metadata>
  <defs
     id="defs3882">
    <inkscape:perspective
       sodipodi:type="inkscape:persp3d"
       inkscape:vp_x="0 : 230.07578 : 1"
       inkscape:vp_y="0 : 999.99999 : 0"
       inkscape:vp_z="408.91535 : 230.07578 : 1"
       inkscape:persp3d-origin="204.45768 : 153.38385 : 1"
       id="perspective3886" />
    <inkscape:perspective
       id="perspective4472"
       inkscape:persp3d-origin="204.45768 : 141.04252 : 1"
       inkscape:vp_z="408.91535 : 211.56378 : 1"
       inkscape:vp_y="0 : 999.99999 : 0"
       inkscape:vp_x="0 : 211.56378 : 1"
       sodipodi:type="inkscape:persp3d" />
    <inkscape:perspective
       id="perspective4548"
       inkscape:persp3d-origin="204.48426 : 141.04252 : 1"
       inkscape:vp_z="408.96852 : 211.56378 : 1"
       inkscape:vp_y="0 : 999.99999 : 0"
       inkscape:vp_x="0 : 211.56378 : 1"
       sodipodi:type="inkscape:persp3d" />
    <inkscape:perspective
       id="perspective4564"
       inkscape:persp3d-origin="0.50000002 : 0.33333333 : 1"
       inkscape:vp_z="1 : 0.5 : 1"
       inkscape:vp_y="0 : 999.99999 : 0"
       inkscape:vp_x="0 : 0.5 : 1"
       sodipodi:type="inkscape:persp3d" />
    <inkscape:perspective
       id="perspective4679"
       inkscape:persp3d-origin="191.87895 : 90.05314 : 1"
       inkscape:vp_z="383.75788 : 135.07971 : 1"
       inkscape:vp_y="0 : 999.99999 : 0"
       inkscape:vp_x="0 : 135.07971 : 1"
       sodipodi:type="inkscape:persp3d" />
    <inkscape:perspective
       id="perspective4695"
       inkscape:persp3d-origin="0.50000002 : 0.33333333 : 1"
       inkscape:vp_z="1 : 0.5 : 1"
       inkscape:vp_y="0 : 999.99999 : 0"
       inkscape:vp_x="0 : 0.5 : 1"
       sodipodi:type="inkscape:persp3d" />
    <inkscape:perspective
       id="perspective4392"
       inkscape:persp3d-origin="214.37008 : 41.25118 : 1"
       inkscape:vp_z="428.74015 : 61.876769 : 1"
       inkscape:vp_y="0 : 999.99999 : 0"
       inkscape:vp_x="0 : 61.876769 : 1"
       sodipodi:type="inkscape:persp3d" />
    <clipPath
       id="clipPath3918"
       clipPathUnits="userSpaceOnUse">
      <rect
         y="-17.038937"
         x="-59.795086"
         height="15.284922"
         width="119.41724"
         id="rect3920"
         style="fill:#ffffff;fill-opacity:1;stroke:#ffffff;stroke-width:0.37728414;stroke-miterlimit:4;stroke-dasharray:none;stroke-dashoffset:0;stroke-opacity:1" />
    </clipPath>
    <inkscape:perspective
       sodipodi:type="inkscape:persp3d"
       inkscape:vp_x="0 : 0.5 : 1"
       inkscape:vp_y="0 : 999.99999 : 0"
       inkscape:vp_z="1 : 0.5 : 1"
       inkscape:persp3d-origin="0.50000002 : 0.33333333 : 1"
       id="perspective3930" />
    <inkscape:perspective
       id="perspective4392-9"
       inkscape:persp3d-origin="214.37008 : 41.25118 : 1"
       inkscape:vp_z="428.74015 : 61.876769 : 1"
       inkscape:vp_y="0 : 999.99999 : 0"
       inkscape:vp_x="0 : 61.876769 : 1"
       sodipodi:type="inkscape:persp3d" />
    <clipPath
       id="clipPath3918-8"
       clipPathUnits="userSpaceOnUse">
      <rect
         y="-17.038937"
         x="-59.795086"
         height="15.284922"
         width="119.41724"
         id="rect3920-0"
         style="fill:#ffffff;fill-opacity:1;stroke:#ffffff;stroke-width:0.37728414;stroke-miterlimit:4;stroke-dasharray:none;stroke-dashoffset:0;stroke-opacity:1" />
    </clipPath>
    <inkscape:perspective
       sodipodi:type="inkscape:persp3d"
       inkscape:vp_x="0 : 0.5 : 1"
       inkscape:vp_y="0 : 999.99999 : 0"
       inkscape:vp_z="1 : 0.5 : 1"
       inkscape:persp3d-origin="0.50000002 : 0.33333333 : 1"
       id="perspective3779" />
    <inkscape:perspective
       id="perspective4392-3"
       inkscape:persp3d-origin="214.37008 : 41.25118 : 1"
       inkscape:vp_z="428.74015 : 61.876769 : 1"
       inkscape:vp_y="0 : 999.99999 : 0"
       inkscape:vp_x="0 : 61.876769 : 1"
       sodipodi:type="inkscape:persp3d" />
    <inkscape:perspective
       id="perspective3440"
       inkscape:persp3d-origin="0.50000002 : 0.33333333 : 1"
       inkscape:vp_z="1 : 0.5 : 1"
       inkscape:vp_y="0 : 999.99999 : 0"
       inkscape:vp_x="0 : 0.5 : 1"
       sodipodi:type="inkscape:persp3d" />
    <inkscape:perspective
       id="perspective7771"
       inkscape:persp3d-origin="191.79037 : 28.823621 : 1"
       inkscape:vp_z="383.58073 : 43.235432 : 1"
       inkscape:vp_y="0 : 999.99999 : 0"
       inkscape:vp_x="0 : 43.235432 : 1"
       sodipodi:type="inkscape:persp3d" />
    <inkscape:perspective
       id="perspective7879"
       inkscape:persp3d-origin="191.79037 : 28.822441 : 1"
       inkscape:vp_z="383.58073 : 43.233662 : 1"
       inkscape:vp_y="0 : 999.99999 : 0"
       inkscape:vp_x="0 : 43.233662 : 1"
       sodipodi:type="inkscape:persp3d" />
    <inkscape:perspective
       id="perspective8003"
       inkscape:persp3d-origin="191.79037 : 28.657087 : 1"
       inkscape:vp_z="383.58073 : 42.98563 : 1"
       inkscape:vp_y="0 : 999.99999 : 0"
       inkscape:vp_x="0 : 42.98563 : 1"
       sodipodi:type="inkscape:persp3d" />
    <inkscape:perspective
       id="perspective8590"
       inkscape:persp3d-origin="203.37916 : 22.3753 : 1"
       inkscape:vp_z="406.75831 : 33.56295 : 1"
       inkscape:vp_y="0 : 999.99999 : 0"
       inkscape:vp_x="0 : 33.56295 : 1"
       sodipodi:type="inkscape:persp3d" />
    <inkscape:perspective
       id="perspective8666"
       inkscape:persp3d-origin="191.79037 : 28.822441 : 1"
       inkscape:vp_z="383.58073 : 43.233662 : 1"
       inkscape:vp_y="0 : 999.99999 : 0"
       inkscape:vp_x="0 : 43.233662 : 1"
       sodipodi:type="inkscape:persp3d" />
    <inkscape:perspective
       id="perspective8678"
       inkscape:persp3d-origin="0.50000002 : 0.33333333 : 1"
       inkscape:vp_z="1 : 0.5 : 1"
       inkscape:vp_y="0 : 999.99999 : 0"
       inkscape:vp_x="0 : 0.5 : 1"
       sodipodi:type="inkscape:persp3d" />
  </defs>
  <sodipodi:namedview
     pagecolor="#ffffff"
     bordercolor="#666666"
     borderopacity="1"
     objecttolerance="10"
     gridtolerance="10"
     guidetolerance="10"
     inkscape:pageopacity="0"
     inkscape:pageshadow="2"
     inkscape:window-width="1705"
     inkscape:window-height="997"
     id="namedview3880"
     showgrid="false"
     inkscape:zoom="1.4506282"
     inkscape:cx="215.47111"
     inkscape:cy="67.100663"
     inkscape:window-x="51"
     inkscape:window-y="0"
     inkscape:window-maximized="0"
     inkscape:current-layer="layer14"
     fit-margin-top="10"
     fit-margin-left="10"
     fit-margin-right="10"
     fit-margin-bottom="10" />
  <title
     id="title3874">svgOutput</title>
  <desc
     id="desc3876">made with tinkercad</desc>
  <g
     inkscape:groupmode="layer"
     id="layer14"
     inkscape:label="add 0"
     transform="translate(3.9796782,-29.455311)">
    <path
       style="fill:#ffffff;fill-opacity:1;stroke:#000000;stroke-width:1.5;stroke-miterlimit:4;stroke-dasharray:none;stroke-opacity:1"
       d="m 24.414062,207.69336 0,0.0566 0,1.40039 399.671878,0 0,-1.40039 0,-0.0566 -3.03125,0 -7.25586,0 -14.51367,0 -29.02735,0 -29.02539,0 -29.02734,0 -29.02735,0 -29.02539,0 -29.02734,0 -29.02734,0 -29.02735,0 -29.02539,0 -29.02734,0 -29.027346,0 -29.02539,0 -14.513672,0 -7.257813,0 -4.779297,0 z"
       id="path4174"
       transform="matrix(0.28222226,0,0,0.28222224,-57.710003,-64.931999)"
       inkscape:connector-curvature="0" />
    <path
       style="fill:#ffffff;fill-opacity:1;stroke:#000000;stroke-width:1.5;stroke-miterlimit:4;stroke-dasharray:none;stroke-opacity:1"
       d="m 24.416016,160.80469 0,10.66211 0,29.02539 0,7.08789 4.777343,0 7.257813,0 14.513672,0 29.02539,0 29.027346,0 29.02734,0 29.02539,0 29.02735,0 29.02734,0 29.02539,0 29.02734,0 29.02735,0 29.02734,0 29.02539,0 29.02735,0 14.51367,0 7.25586,0 3.03125,0 0,-7.08789 0,-29.02539 0,-10.66211 -3.03125,0 -7.25586,0 -14.51367,0 -29.02735,0 -29.02539,0 -29.02734,0 -29.02735,0 -29.02734,0 -29.02539,0 -29.02734,0 -29.02735,0 -29.02539,0 -29.02734,0 -29.027346,0 -29.02539,0 -14.513672,0 -7.257813,0 -4.777343,0 z m 286.554684,23.75 0.29297,0 0.82031,0.10937 0.1211,0.0645 0.0742,0.0371 1.41601,0.81836 0.25196,0.39649 0.4082,0.63867 0.0391,0.043 0.10938,0.11914 0.21289,1.61133 0.0684,0.35742 -0.43946,1.37891 -1.36523,1.37109 -0.77539,0.20703 -1.08789,0.28906 -0.83594,-0.22265 -0.74805,-0.19727 -0.65039,-0.50781 -0.44726,-0.22656 -0.50391,-0.6543 -0.37109,-1.16797 -0.11133,-0.26953 0.004,-0.0742 0.0508,-1.15625 0.0371,-0.28906 0.3164,-0.76367 0.17774,-0.23242 0.25586,-0.25391 0.73437,-0.73242 0.16602,-0.16602 0.76171,-0.31641 0.19727,-0.10156 0.82031,-0.10937 z m -176.38281,0.0898 0.2832,0.0781 1.41602,0.8164 0.11719,0.0898 0.22265,0.35156 0.4375,0.68555 0.0899,0.11523 0.0781,0.28516 0.21289,1.60937 -0.0195,0.14844 -0.62305,1.49609 -0.10156,0.19531 -1.07031,0.98438 -1.86328,0.49609 -1.58203,-0.41992 -0.34375,-0.12109 -1.05469,-1.06055 -0.10156,-0.10351 -0.14844,-0.16211 -0.0664,-0.21094 -0.24023,-0.89063 -0.18359,-0.68945 0.26757,-1.19727 0.008,-0.2207 0.14843,-0.25586 0.31641,-0.49609 0.12109,-0.1875 0.22266,-0.35156 1.16602,-0.67383 0.5039,-0.29102 1.63867,0 0.14844,-0.0195 z"
       id="path8582"
       transform="matrix(0.28222226,0,0,0.28222224,-57.710003,-64.931999)"
       inkscape:connector-curvature="0" />
    <rect
       style="opacity:1;fill:none;fill-opacity:1;stroke:#000000;stroke-width:0.42333338;stroke-linecap:round;stroke-linejoin:miter;stroke-miterlimit:4;stroke-dasharray:none;stroke-dashoffset:0;stroke-opacity:1"
       id="rect4169"
       width="7.7820702"
       height="22.665277"
       x="-58.655792"
       y="-32.442799"
       ry="0.58365524" />
    <rect
       style="opacity:1;fill:#000000;fill-opacity:1;stroke:#000000;stroke-width:0.42333338;stroke-linecap:round;stroke-linejoin:miter;stroke-miterlimit:4;stroke-dasharray:none;stroke-dashoffset:0;stroke-opacity:1"
       id="rect4180"
       width="3.0043435"
       height="1.97654"
       x="-55.42292"
       y="-6.062294"
       ry="0.29075384"
       rx="0" />
    <rect
       style="opacity:1;fill:#000000;fill-opacity:1;stroke:#000000;stroke-width:0.42333338;stroke-linecap:round;stroke-linejoin:miter;stroke-miterlimit:4;stroke-dasharray:none;stroke-dashoffset:0;stroke-opacity:1"
       id="rect4180-3"
       width="3.0043435"
       height="1.97654"
       x="60.01469"
       y="-6.0902162"
       ry="0.29075384"
       rx="0" />
    <rect
       style="opacity:1;fill:#000000;fill-opacity:1;stroke:#000000;stroke-width:0.49387223;stroke-linecap:round;stroke-linejoin:miter;stroke-miterlimit:4;stroke-dasharray:none;stroke-dashoffset:0;stroke-opacity:1"
       id="rect4178"
       width="117.61617"
       height="0.92439109"
       x="-55.198494"
       y="-6.3603668"
       ry="0.39595866"
       rx="0" />
  </g>
  <g
     inkscape:groupmode="layer"
     id="layer11"
     inkscape:label="add 1"
     transform="translate(3.9796782,-29.455311)">
    <path
       id="path7763"
       d="m 31.9778,-14.659318 0.151024,-0.226763 0.09419,-0.401155 0.05573,-0.297026 -0.0119,-0.05974 -0.05922,-0.297285 -0.04896,-0.283044 -0.0109,-0.0175 -0.230049,-0.369241 -0.147242,-0.234579 -0.332664,-0.222131 -0.211342,-0.154567 -0.03148,-0.0076 -0.226081,-0.0544 -0.490969,-0.114896 -0.413624,0.08239 -0.236029,0.04703 -0.143347,0.09599 -0.0562,0.03763 -0.393984,0.245466 -0.03421,0.02132 -0.266783,0.428196 -0.133618,0.199549 -0.04703,0.236029 -0.08239,0.413624 0.08239,0.414185 0.04266,0.214103 0.0044,0.02193 0.133618,0.199548 0.266783,0.428196 0.0879,0.0589 0.350853,0.234275 0.04564,0.03036 0.05951,0.03959 0.0039,0.0026 0.120905,0.02649 0.46525,0.108346 0.13366,0.02663 0.199634,-0.03583 0.411557,-0.09675 0.117716,-0.03104 0.261278,-0.189786 0.316467,-0.202558 0.03282,-0.05116 0.170215,-0.265311 m 6.999135,8.1693132 -0.014,-9.99e-4 -0.487354,0 -0.598645,0 -4.096001,0 -4.096001,0 -8.192,0 -2.048,0 -2.048001,0 -0.369151,0 -0.485849,0 -0.015,9.99e-4 -3.226,0 -4.5619998,0 -9.1e-4,0 -3.629091,0 -4.0960001,0 -1.18699991,0 -0.015,-9.99e-4 -2.89400099,0 -4.096,0 -4.0960012,0 -4.095999,0 -2.048,0 -1.024,0 -1.024001,0 -0.192281,0 -0.831719,0 -1.024,0 -2.048001,0 -2.047998,0 -0.59594,0 -1.452063,0 -0.201,0 -0.014,9.99e-4 -7.976998,0 -0.93409,0 -0.0011,0 -7.256844,0 -0.533001,0 -0.691768,-0.04723 -0.01123,-7.67e-4 -0.06013,-0.01402 -0.51722,-0.11975 -0.03165,-0.0072 -0.515999,-0.233999 -0.422001,-0.328 -0.327999,-0.422 -0.234001,-0.517 -0.140999,-0.609001 -0.047,-0.703 0,-0.008 0,-8.1920012 0,-8.192001 0,-0.009 0.047,-0.703001 0.140999,-0.609999 0.234001,-0.515001 0.327999,-0.422 0.422001,-0.328 0.515999,-0.234999 0.609001,-0.140001 0.702999,-0.047 0.533001,0 3.001999,0 0.015,-9.99e-4 1.078998,0 4.096001,0 4.096001,0 4.095997,0 0.278859,0 1.769144,0 0.16259,0 0.373773,0 1.511635,0 4.096001,0 8.192,0 0.903365,0 3.1926362,9e-5 4.096,1.16e-4 4.0960009,1.16e-4 4.0960001,1.16e-4 8.1920008,2.32e-4 0.64383,1.8e-5 2.577514,0 0.874656,0 1.170785,0 0.877216,0 0.083,0 0.81619,0 1.148811,6.99e-4 8.192,0.005 4.096001,0.0025 4.096001,0.0025 0.936596,5.7e-4 3.159402,0.0019 2.273449,0.0014 0.148803,9.1e-5 1.673749,0.0046 4.237072,0.01166 3.95493,0.01068 2.120998,0.0057 0.396999,0.09112 0.213002,0.04889 0.514999,0.234999 0.422001,0.328 0.327999,0.422 0.100002,0.21915 0.134999,0.295851 0.139999,0.609999 0.047,0.703001 0,0.009 0,8.192001 0,5.497001 0,2.6950002 0,0.0075 0,4.81e-4 -0.0226,0.33799 -0.0244,0.36501 -0.139999,0.609 -0.134999,0.297 -0.100002,0.22 -0.327999,0.422 -0.422001,0.328 -0.51128,0.232311 -0.0037,0.0017 -0.480191,0.110995 -0.04469,0.01021 -0.08512,0.01979 -0.702999,0.048 -1.417999,0 -6.37465,0 -1.817352,0 -4.096001,0 -2.995999,0 m -56.875893,-8.2372232 0.105217,-0.143798 0.04703,-0.07076 0.04747,-0.23603 0.08239,-0.414185 -0.01036,-0.052 -0.07203,-0.361625 -0.04747,-0.236029 -0.133179,-0.199549 -0.266782,-0.428196 -0.03427,-0.02288 -0.316583,-0.211393 -0.19999,-0.133618 -1.69e-4,-3.4e-5 -0.235421,-0.047 -0.490968,-0.114896 -0.043,0.0094 -0.388559,0.08528 -0.236029,0.04703 -0.01053,0.0071 -0.06199,0.0417 -0.410261,0.254452 -0.119114,0.08131 -0.06153,0.0842 -0.249683,0.373172 -0.09139,0.147033 -0.04637,0.257428 -0.07315,0.367082 -0.01178,0.05914 0.04157,0.214119 0.07456,0.37484 0.09763,0.189345 0.23308,0.374104 0.142157,0.158568 0.312344,0.208562 0.172554,0.117337 0.0049,0.0011 0.446186,0.103906 0.235445,0.04757 0.03586,0.0072 0.11546,-0.01841 0.450479,-0.104906 0.151648,-0.03087 0.01023,-0.0068 0.327904,-0.218952 0.125933,-0.07997 0.07233,-0.04593 0.01382,-0.0088 0.11978,-0.192251 0.144665,-0.232194 z"
       style="fill:#ffffff;fill-opacity:1;stroke:#000000;stroke-width:0.42333338;stroke-miterlimit:4;stroke-dasharray:none;stroke-opacity:1"
       inkscape:connector-curvature="0" />
  </g>
  <g
     inkscape:groupmode="layer"
     id="layer15"
     inkscape:label="1.5"
     transform="translate(3.9796782,-29.455311)">
    <path
       id="path8658"
       d="m -20.078736,-7.7386527 0.550358,0.15253 0.08151,0.0066 0.068,0.0055 0.176655,-0.01723 0.337498,-0.04724 0.181393,-0.05989 0.261233,-0.119519 0.09608,-0.0517 0.110303,-0.081 0.359125,-0.350021 0.175362,-0.208537 0.146837,-0.339776 0.09651,-0.233957 -2.009001,0 -1.872,0 0.07023,0.186132 0.0405,0.07109 0.21172,0.426854 0.09771,0.116292 0.04275,0.05088 0.342052,0.27717 0.154249,0.112885 0.227064,0.09177 0.05386,0.0112 m -0.961134,0.668716 -0.008,-0.0067 -0.241284,-0.200518 -0.06565,-0.04983 -0.0649,-0.04926 -0.0299,-0.03425 -0.04527,-0.05184 -0.15319,-0.175446 -0.21115,-0.245868 -0.19749,-0.384168 -0.109009,-0.197335 -0.01021,-0.03457 -0.08114,-0.274793 -0.08082,-0.308472 -0.137888,0 -0.03125,0 -0.382194,0 -0.02074,0 -0.632936,0 -0.531369,0 -0.30463,0 0,-0.292 0,-0.7090013 0.835999,0 0.576362,0 0.42244,0 0.211199,0 0.207001,-0.685 0.224809,-0.368232 0.154503,-0.257901 0.01353,-0.02259 0.0051,-0.0053 0.165917,-0.170516 0.220827,-0.23733 0.434252,-0.272048 0.252916,-0.172776 0.05945,-0.02291 0.188731,-0.07274 0.228792,-0.08309 0.319857,-0.0535 0.240852,-0.04567 0.03266,-7.6e-5 0.13677,-3.1e-4 0.01498,-3.5e-5 0.32441,0.0017 0.300741,0.05773 0.296012,0.06614 0.01987,0.0044 0.245163,0.102976 0.300505,0.121796 0.187424,0.12538 0.427422,0.329531 0.225773,0.236974 0.06797,0.08434 0.135213,0.167786 0.143476,0.247314 0.14513,0.289692 0.08876,0.295571 0.100167,0.338637 1.073,0 0.972002,0 0,0.7090003 0,0.292001 -0.972002,0 -0.824382,0 -0.242618,0 -0.251999,0.804998 -0.169605,0.276032 -0.177083,0.274891 -0.08316,0.09134 -0.299159,0.227653 -0.10655,0.08108 -0.358645,0.272925 -0.09177,0.08143 -0.05112,0.02731 -0.209375,0.111847 -0.142788,0.07627 -0.02844,0.01551 -8.47e-4,1.67e-4 -0.566519,0.103417 -0.11892,0.03145 -0.170188,0.02111 -0.03275,0.0043 -0.0011,-9.8e-5 -0.08971,-0.0072 -0.07911,-0.0064 -0.15614,-0.01258 -0.495151,-0.04951 -0.158125,-0.04352 -0.490599,-0.22424 -0.04782,-0.02413 -0.245161,-0.121073 m 57.037006,-2.296999 0,-0.008 0,-8.1920013 0,-8.201001 0.047,-0.703 0.140998,-0.609999 0.234002,-0.515001 0.327999,-0.422 0.422001,-0.328 0.515998,-0.235 0.212003,-0.04874 0.396999,-0.09126 0.702999,-0.047 2.995998,0.0081 4.096001,0.01106 8.192003,0.02212 2.120999,0.0057 0.396999,0.09111 0.212999,0.04889 0.515002,0.235 0.422001,0.328 0.327999,0.422 0.100003,0.21915 0.134998,0.295851 0.139999,0.609999 0.047,0.703 0,0.009 0,8.192001 0,5.497001 0,2.6950003 0,0.0077 0,2.58e-4 -0.01214,0.181803 -0.03485,0.521198 -0.139999,0.609 -0.134998,0.297 -0.100003,0.22 -0.163999,0.211 -0.163999,0.211 -0.422002,0.328 -0.511279,0.23231 -0.0037,0.0017 -0.25829,0.0597 -0.121082,0.02768 -0.230629,0.05362 -0.073,0.005 -0.630002,0.04302 -1.418,0 -6.495472,0 1.38e-4,-8.18e-4 0,-11.2011693 0,-2.304 -0.874333,0 0,2.304 0,11.2011693 -5.64e-4,8.18e-4 -0.82171,0 -4.095999,0 -2.996,0 -0.01166,-8.18e-4 -0.117444,-0.008 -0.573896,-0.03915 -2.23e-4,-5.3e-5 -0.01346,-0.0031 -0.06456,-0.01505 -0.318739,-0.0738 -0.002,-4.51e-4 -0.168811,-0.03908 -0.04119,-0.0094 -5.65e-4,-2.49e-4 -0.0038,-0.0017 -0.5117,-0.232051 -0.422001,-0.328 -0.163999,-0.211001 -0.164,-0.210999 -0.234002,-0.517 -0.140998,-0.609001 -0.047,-0.703 m -36.15100231,3.002 -0.0125,-8.18e-4 -0.117444,-0.008 -0.573064,-0.03915 -0.07826,-0.01824 -0.07974,-0.01846 -0.409812,-0.09488 -0.04119,-0.0094 -5.64e-4,-2.48e-4 -0.0038,-0.0017 -0.511702,-0.232051 -0.422002,-0.328 -0.163999,-0.211001 -0.163999,-0.210999 -0.234002,-0.517 -0.097,-0.418958 -0.044,-0.190043 -0.03485,-0.521197 -0.01216,-0.181803 0,-2.58e-4 0,-8.1997433 0,-8.201 0.047,-0.703 0.044,-0.190354 0.097,-0.419645 0.234002,-0.515001 0.327999,-0.422 0.422001,-0.328 0.516001,-0.235 0.212,-0.04874 0.239,-0.05494 0.15799896,-0.03632 0.703002,-0.047 1.18699814,0 4.0960019,0 2.6305,0 0.874999,0 4.6865013,0 3.226,0 0.703002,0.047 0.166999,0.03833 0.442999,0.101672 0.515002,0.235 0.421998,0.328 0.328002,0.422 0.236,0.515001 0.139999,0.609999 0.047,0.703 0,0.009 0,4.096001 0,4.096 0,4.096001 0,4.0960003 0,0.008 -0.047,0.703 -0.036,0.1566 -0.104002,0.4524 -0.236,0.517001 -0.163999,0.210999 -0.163999,0.211 -0.422002,0.328001 -0.514525,0.233783 -5.64e-4,2.16e-4 -0.04119,0.0094 -0.401814,0.09288 -0.08855,0.02047 -0.07845,0.01824 -0.573063,0.03915 -0.117442,0.008 -0.0125,8.18e-4 -3.226,0 -4.6867103,0 2.09e-4,-8.18e-4 0,-11.2011683 0,-2.304 -0.874999,0 0,2.304 0,11.2011683 2.09e-4,8.18e-4 -2.630709,0 -4.096002,0 -1.18699904,0 M -24.90098,-26.470957 l 0.047,0.702999 0,0.009 0,8.192002 0,4.096 0,4.0960003 0,0.0077 0,2.58e-4 -0.01216,0.181803 -0.0068,0.102198 -0.02801,0.418999 -0.14,0.609001 -0.235,0.517 -0.164,0.210999 -0.150999,0.194275 -0.013,0.01673 -0.422001,0.328001 -0.51128,0.232311 -0.0032,0.0015 -4.8e-4,2.15e-4 -0.04119,0.0094 -0.490358,0.113345 -0.07823,0.01819 -2.21e-4,5.3e-5 -0.488003,0.03329 -0.0859,0.0059 -0.117443,0.008 -0.01166,8.47e-4 -7.912709,0 -6.21e-4,-8.47e-4 0,-3.009167 0,-2.6949993 0,-5.497001 0,-2.304 -0.06366,0 -0.810665,0 0,2.304 0,11.2011673 1.38e-4,8.47e-4 -7.381475,0 -0.533001,0 -0.702995,-0.04801 -0.216724,-0.05052 -0.182274,-0.0422 -0.09594,-0.02221 -0.114067,-0.02607 -0.0043,-0.002 -0.198704,-0.09011 -0.313,-0.141943 -0.422001,-0.328 -0.163998,-0.211 -0.164001,-0.211 -0.234001,-0.517 -0.140999,-0.609 -0.03484,-0.521197 -0.01216,-0.181803 0,-2.59e-4 0,-0.0077 0,-8.1920003 0,-8.192002 0,-0.009 0.047,-0.703 0.140999,-0.609999 0.234001,-0.515001 0.327999,-0.422 0.422001,-0.328 0.313,-0.142548 0.202999,-0.09245 0.609001,-0.14 0.702999,-0.047 0.533001,0 8.192002,0 4.096001,0 3.880998,0 0.215,0.01438 0.488003,0.03262 0.609998,0.14 0.515,0.235 0.422001,0.328 0.013,0.01673 0.314999,0.405274 0.234999,0.515001 0.140001,0.609999 m 7.143726,15.775992 -0.174727,-0.250989 -0.169327,-0.137445 -0.418316,-0.275463 -0.151491,-0.06409 -0.06135,-0.02596 -0.306197,-0.0683 -0.169063,-0.03272 -0.03129,-0.0061 -0.163296,0.0078 -0.04467,3.95e-4 -0.216001,0.0019 -0.18527,0.04783 -0.241517,0.07517 -0.102242,0.03182 -0.146494,0.07281 -0.262373,0.188385 -0.222756,0.19949 -0.331805,0.536697 -0.155544,0.309789 1.864002,0 2,0 -0.101306,-0.239606 -0.06075,-0.158989 -0.01643,-0.02353 -0.1318,-0.188887 z"
       style="fill:#ffffff;fill-opacity:1;stroke:#000000;stroke-width:0.42333338;stroke-miterlimit:4;stroke-dasharray:none;stroke-opacity:1"
       inkscape:connector-curvature="0" />
    <rect
       ry="0"
       y="-21.650986"
       x="4.8980947"
       height="14.869574"
       width="6.3403044"
       id="rect8695"
       style="fill:#ffffff;fill-opacity:1;stroke:#ffffff;stroke-width:0.41119677;stroke-miterlimit:4;stroke-dasharray:none;stroke-dashoffset:0;stroke-opacity:1" />
    <rect
       style="fill:#ffffff;fill-opacity:1;stroke:#ffffff;stroke-width:0.41119677;stroke-miterlimit:4;stroke-dasharray:none;stroke-dashoffset:0;stroke-opacity:1"
       id="rect8693"
       width="6.3403044"
       height="14.869574"
       x="-39.55698"
       y="-21.675304"
       ry="0" />
    <rect
       style="fill:#ffffff;fill-opacity:1;stroke:#ffffff;stroke-width:0.41119677;stroke-miterlimit:4;stroke-dasharray:none;stroke-dashoffset:0;stroke-opacity:1"
       id="rect8697"
       width="6.3403044"
       height="14.869574"
       x="44.002995"
       y="-21.675304"
       ry="0" />
  </g>
  <g
     inkscape:groupmode="layer"
     id="layer12"
     inkscape:label="add 2"
     transform="translate(3.9796782,-29.455311)">
    <path
       id="path7871"
       d="m 37.664911,-28.706459 0.212002,-0.04874 0.396999,-0.09126 0.702999,-0.047 2.995999,0.0081 4.096001,0.01106 8.192002,0.02212 2.120999,0.0057 0.396999,0.09111 0.213001,0.04889 0.515,0.235 0.422001,0.328 0.327999,0.422 0.100002,0.21915 0.134999,0.295851 0.139999,0.609999 0.047,0.703 0,0.009 0,8.192001 0,5.497 0,2.6950012 0,0.008 0,3.6e-5 -0.0017,0.02562 -0.04529,0.677385 -0.139999,0.609001 -0.134999,0.297 -0.100002,0.22 -0.163998,0.210999 -0.164001,0.211001 -0.422001,0.328 -0.174,0.07906 -0.33728,0.153251 -0.0037,0.0017 -0.03639,0.0084 -0.173607,0.03968 -0.02386,0.0054 -0.236245,0.05493 -0.139892,0.03252 -0.0034,2.33e-4 -0.06957,0.0048 -0.630001,0.04302 -1.418,0 -5.496552,0 4.2e-5,-2.44e-4 0,-11.2017562 0,-2.304 -2.695492,0 -0.176487,0 0,2.304 0,4.096 0,1.401 0,2.6950012 0,3.009755 -1.87e-4,2.44e-4 -3.919327,0 -2.995999,0 -0.0034,-2.44e-4 -0.530972,-0.03625 -0.168602,-0.0115 -6.5e-5,-1.5e-5 -0.01363,-0.0032 -0.340111,-0.07927 -0.04319,-0.01 -0.002,-4.63e-4 -0.02379,-0.0055 -0.186214,-0.04256 -0.0025,-0.0011 -0.0018,-8.24e-4 -0.5117,-0.232051 -0.422001,-0.328 -0.163999,-0.211 -0.164,-0.211 -0.234001,-0.517 -0.140999,-0.609 -0.047,-0.703 0,-0.008 0,-8.1920012 0,-8.201001 0.047,-0.703 0.140999,-0.609999 0.234001,-0.515001 0.327999,-0.422 0.422001,-0.328 0.515999,-0.235 m -28.0523278,22.2160012 6.1e-5,-2.44e-4 0,-11.2017562 0,-2.304 -2.871469,0 0,2.304 0,11.2017562 6.1e-5,2.44e-4 -1.632327,0 -4.0960001,0 -1.18699991,0 -0.0037,-2.44e-4 -0.53097199,-0.03625 -0.168358,-0.0115 -0.158,-0.03683 -0.195809,-0.04564 -0.04519,-0.01046 -0.02378,-0.0055 -0.186216,-0.04256 -0.0025,-0.0011 -0.51352,-0.232875 -0.057,-0.0443 -0.365,-0.283696 -0.164,-0.211001 -0.164,-0.210999 -0.234,-0.517 -0.097,-0.418958 -0.044,-0.190043 -0.04529,-0.677385 -0.0017,-0.02562 0,-3.6e-5 0,-8.1999642 0,-8.201001 0.047,-0.703 0.044,-0.190354 0.097,-0.419645 0.234,-0.515001 0.328,-0.422 0.422,-0.328 0.516001,-0.235 0.212,-0.04874 0.238999,-0.05494 0.158,-0.03632 0.70300099,-0.047 1.18699891,0 4.0960011,0 1.632266,0 2.871469,0 3.6882648,0 3.226001,0 0.703,0.047 0.166999,0.03833 0.443,0.101672 0.515001,0.235 0.422,0.328 0.328,0.422 0.236,0.515001 0.139999,0.609999 0.047,0.703 0,0.009 0,4.096001 0,4.096 0,4.096 0,4.0960012 0,0.008 -0.047,0.703 -0.036,0.1566 -0.104,0.4524 -0.236,0.517 -0.164001,0.211 -0.163999,0.211 -0.422,0.328 -0.512852,0.233024 -0.0021,9.76e-4 -0.186215,0.04256 -0.06909,0.01597 -0.04985,0.01159 -0.13785,0.03205 -0.166999,0.03883 -0.168358,0.0115 -0.530972,0.03625 -0.0037,2.44e-4 -3.226001,0 -3.6883268,0 m -36.7836752,-0.048 -0.168602,0.0115 -0.319401,0.02181 -0.211571,0.01445 -0.0034,2.44e-4 -6.914327,0 -1.83e-4,-2.44e-4 0,-3.009756 0,-2.6950002 0,-5.497 0,-2.304 -1.062489,0 -1.80949,0 0,2.304 0,11.2017562 4.2e-5,2.44e-4 -6.382554,0 -0.533001,0 -0.702999,-0.048 -0.373318,-0.08701 -0.02568,-0.0059 -0.01352,-0.0031 -0.196484,-0.04491 -0.0043,-0.002 -0.198704,-0.09011 -0.313,-0.141942 -0.422001,-0.328 -0.163998,-0.211001 -0.164001,-0.210999 -0.234001,-0.517 -0.140999,-0.609001 -0.04529,-0.677385 -0.0017,-0.02562 0,-3.6e-5 0,-0.008 0,-8.1920012 0,-8.192001 0,-0.009 0.047,-0.703 0.140999,-0.609999 0.234001,-0.515001 0.327999,-0.422 0.422001,-0.328 0.313,-0.142548 0.202999,-0.09245 0.609001,-0.14 0.702999,-0.047 0.533001,0 8.192002,0 4.096001,0 3.880998,0 0.215,0.01438 0.488003,0.03262 0.609998,0.14 0.515,0.235 0.422001,0.328 0.013,0.01673 0.314999,0.405274 0.235,0.515001 0.14,0.609999 0.047,0.703 0,0.009 0,8.192001 0,8.1920012 0,0.008 -0.047,0.703 -0.14,0.609 -0.235,0.517001 -0.314999,0.405274 -0.013,0.01673 -0.422001,0.328 -0.515,0.233999 -0.074,0.01691 -0.112215,0.02565 -0.02379,0.0055 -0.0453,0.01047 -0.35463,0.08245 -6.4e-5,1.6e-5 z"
       style="fill:#ffffff;fill-opacity:1;stroke:#000000;stroke-width:0.42333338;stroke-miterlimit:4;stroke-dasharray:none;stroke-opacity:1"
       inkscape:connector-curvature="0" />
  </g>
  <g
     inkscape:groupmode="layer"
     id="layer13"
     inkscape:label="add 3"
     transform="translate(3.9796782,-29.455311)">
    <path
       id="path7995"
       d="m -46.404006,-28.401445 0.313,-0.142549 0.202999,-0.09245 0.609001,-0.140001 0.702999,-0.047 0.533001,0 0.966999,0 7.225003,0 6.476998,0 0.003,0 1.496998,0 0.215,0.01437 0.488003,0.03262 0.609999,0.140001 0.514999,0.235 0.422001,0.328 0.327999,0.422 0.235001,0.515 0.139999,0.61 0.047,0.703 0,8.201 0,8.1920012 0,0.0086 -0.01739,0.260422 -0.02961,0.442949 -0.139999,0.608999 -0.235001,0.517 -0.314999,0.405275 -0.013,0.01673 -0.422001,0.328 -0.514999,0.234 -0.114676,0.02583 -0.0677,0.01548 -0.01,0.0023 -0.01764,0.0044 0,-0.019 -0.460001,-0.205 -0.428001,-0.575101 -0.118999,-0.1599 -0.596001,-1.356 -0.996998,-2.7480002 0,-0.502 -0.003,0 0,-5.497001 0,-3.298 0.003,0 0,-6.006 -0.003,0 -6.476998,0 -7.225003,0 -0.003,0 0,6.006 0.003,0 0,3.298 0,5.497001 -0.002,0 0,0.508 -0.965,2.6593272 -0.03,0.08267 -0.597,1.356 -0.546001,0.735001 -0.461998,0.205999 0,0.018 -0.02669,-0.0061 -0.183315,-0.0419 -0.202999,-0.09206 -0.313,-0.141942 -0.422001,-0.328 -0.327999,-0.422 -0.234001,-0.517 -0.140999,-0.608999 -0.02961,-0.442949 -0.01739,-0.260422 0,-0.0086 0,-8.1920012 0,-8.192 0,-0.009 0.047,-0.703 0.140999,-0.61 0.234001,-0.515 0.327999,-0.422 0.422001,-0.328 m 84.069006,-0.235 0.212002,-0.04874 0.397,-0.09126 0.702999,-0.047 1.497002,0.004 0.003,9e-6 5.591999,0.0151 8.110001,0.0219 0.003,9e-6 0.079,2.14e-4 2.120999,0.0057 0.61,0.140001 0.514999,0.235 0.422001,0.328 0.327999,0.422 0.235,0.515 0.14,0.61 0.047,0.703 0,8.201 0,8.1920012 0,0.0086 -0.01739,0.260422 -0.02961,0.442949 -0.14,0.608999 -0.134998,0.297001 -0.100002,0.219999 -0.327999,0.422 -0.422001,0.328 -0.513324,0.233239 -0.0017,7.61e-4 -0.114673,0.02583 -0.06771,0.01548 -0.01,0.0023 -0.01764,0.0044 0,-3.78e-4 0,-0.01862 -0.459999,-0.205 -0.013,-0.01747 -0.534001,-0.717532 -0.596001,-1.356 -0.201358,-0.555 -0.716641,-1.9752552 -0.079,-0.217745 0,-0.502 -0.003,0 0,-5.497001 0,-3.298 0.003,0 0,-6.006 -0.003,0 -8.110001,0 -5.591999,0 -0.003,0 0,6.006 0.003,0 0,3.298 0,5.497001 -0.002,0 0,0.508 -0.995003,2.7420002 -0.595997,1.356 -0.547001,0.735 -0.459999,0.205108 -0.002,8.92e-4 0,0.018 -0.02669,-0.0061 -0.183312,-0.0419 -0.515998,-0.234001 -0.422002,-0.328 -0.164778,-0.212 -0.163221,-0.21 -0.234002,-0.517 -0.140998,-0.608999 -0.02962,-0.442949 -0.01739,-0.260421 0,-0.0086 0,-8.1920022 0,-8.201 0.047,-0.703 0.140998,-0.61 0.234002,-0.515 0.327999,-0.422 0.422002,-0.328 0.515998,-0.235 m -38.47900185,21.8520022 -0.22100005,0.09854 -0.241001,0.107458 0,0.018 -0.02669,-0.0061 -0.183312,-0.0419 -0.516,-0.234 -0.422,-0.328001 -0.328,-0.422 -0.234,-0.517 -0.097,-0.418957 -0.044,-0.190042 -0.02961,-0.442948 -0.01739,-0.260422 0,-8.2006312 0,-8.201 0.047,-0.703 0.044,-0.190355 0.097,-0.419645 0.234,-0.515 0.328,-0.422 0.422,-0.328 0.516,-0.235 0.60900005,-0.140001 0.703,-0.047 1.18699995,0 4.096001,0 8.1920009,0 1.728999,0 1.497001,0 0.703,0.047 0.167,0.03833 0.442999,0.101672 0.515001,0.235 0.422,0.328 0.328,0.422 0.236,0.515 0.139999,0.61 0.047,0.703 0,0.009 0,4.894 0,3.298 0,5.497001 0,2.6950002 0,0.0086 -0.01739,0.260422 -0.02961,0.442948 -0.036,0.1566 -0.104,0.452399 -0.236,0.517001 -0.163223,0.21 -0.164777,0.212 -0.422,0.328 -0.502372,0.228263 -0.01263,0.0057 -0.114045,0.02583 -0.06812,0.01557 -0.0096,0.0022 -0.01827,0.0044 0,-0.019 -0.232999,-0.103837 -0.227001,-0.101163 -0.547,-0.735001 -0.595999,-1.356 -0.20136,-0.554999 -0.795641,-2.1930012 0,-0.502 -0.003,0 0,-5.497001 0,-3.298 0.003,0 0,-4.894 0,-1.112 -1.728999,0 -8.1920009,0 -3.786001,0 0,1.112 0,4.894 0.003,0 0,3.298 0,5.497001 -0.002,0 0,0.508 -0.79360495,2.1870012 -0.201395,0.554999 -0.595999,1.356 -0.547,0.735001 z"
       style="fill:#ffffff;fill-opacity:1;stroke:#000000;stroke-width:0.42333338;stroke-miterlimit:4;stroke-dasharray:none;stroke-opacity:1"
       inkscape:connector-curvature="0" />
  </g>
</svg>
